<?xml version="1.0" encoding="utf-8"?>
<!-- Generator: Adobe Illustrator 19.2.0, SVG Export Plug-In . SVG Version: 6.00 Build 0)  -->
<!DOCTYPE svg PUBLIC "-//W3C//DTD SVG 1.1//EN" "http://www.w3.org/Graphics/SVG/1.1/DTD/svg11.dtd">
<svg version="1.1" id="Layer_1" xmlns="http://www.w3.org/2000/svg" xmlns:xlink="http://www.w3.org/1999/xlink" x="0px" y="0px"
	 viewBox="0 0 512 512" style="enable-background:new 0 0 512 512;" xml:space="preserve">
<path d="M339.6,430.8c-0.4-4.7-28.3-179.9-28.3-179.9c0-0.3,0-0.6,0-0.7c0.1-7.8,3.7-11,9.3-17.3c0,0,48.2-49.4,63.5-66.6
	c15.3-17.2,17.5-36.3,7.6-46.2l0,0l0,0c-9.9-9.9-28.9-7.7-46.1,7.6c-17.2,15.3-66.6,63.5-66.6,63.5c-6.2,5.7-9.4,9.3-17.3,9.3
	c-0.3,0-0.6,0-0.7,0c0,0-175.1-27.9-179.9-28.3c-4.8-0.4-12-1-19.4,6.4c-8.6,8.6-7.1,12.2-0.7,15.7c0,0,127.1,71.2,131.7,74
	c4.6,2.8,5.2,6,0.6,11.2c-4.6,5.2-32.2,33.4-35.4,36.7s-3.7,2.9-7.3,3.2l-51.5,6.2c-2.6,0.2-5.1,1.3-7.1,3.3c0,0-4.3,4.3-8.8,8.8
	c-4.5,4.5-3.2,7.1,2.3,9.3c5.5,2.1,35.4,10.7,35.4,10.7c0.7,0.3,4.6,1.9,5.9,3.2c3,3,5.7,5.6,1.8,10.6c-7.1,9-10.9,17.8-8.3,20.4
	l0,0l0,0c2.5,2.5,11.4-1.2,20.4-8.3c4.9-4,7.6-1.1,10.6,1.8c1.3,1.3,2.9,5.2,3.2,5.9c0,0,8.6,29.8,10.7,35.4
	c2.1,5.5,4.8,6.8,9.3,2.3c4.5-4.5,8.8-8.8,8.8-8.8c2-2,3.1-4.5,3.3-7.1l6.2-51.5c0.3-3.5,0-4.1,3.2-7.3c3.2-3.2,31.5-30.8,36.7-35.4
	c5.2-4.6,8.4-4,11.2,0.6c2.8,4.6,74,131.7,74,131.7c3.5,6.5,7.1,7.9,15.7-0.7C340.6,442.8,340.1,435.6,339.6,430.8z"/>
</svg>
