<?xml version="1.0" encoding="utf-8"?>
<!-- Generator: Adobe Illustrator 19.2.0, SVG Export Plug-In . SVG Version: 6.00 Build 0)  -->
<!DOCTYPE svg PUBLIC "-//W3C//DTD SVG 1.1//EN" "http://www.w3.org/Graphics/SVG/1.1/DTD/svg11.dtd">
<svg version="1.1" id="Ebene_1" xmlns="http://www.w3.org/2000/svg" xmlns:xlink="http://www.w3.org/1999/xlink" x="0px" y="0px"
	 viewBox="0 0 3000 3000" style="enable-background:new 0 0 3000 3000;" xml:space="preserve">
<style type="text/css">
	.st0{clip-path:url(#SVGID_2_);}
	.st1{clip-path:url(#SVGID_2_);fill:none;}
</style>
<g id="jX1HlP.tif">
	<g>
		<path d="M2295.9,2282.9c-19.4-2.5-27-14.8-31.8-32.9c-41-155.7-82.8-311.2-124.6-466.7c-3.8-14.2-3.8-26.8,10.8-34.2
			c48.1-24.4,58.3-66.7,53.5-115.1c-5.3-54-33.7-90.6-86.2-107c-18.6-5.8-22-20-22.1-36.6c-0.1-48.3-0.2-96.7-0.2-145
			c0-53,0-105.9,0.2-158.9c0.1-27.3,3.2-31.3,28.1-40.4c49.1-17.9,78.8-58.9,80.8-111.6c1.9-48.3-26-94.8-68.9-114.6
			c-46.4-21.5-98.9-13.7-136.5,21.1c-12.5,11.6-24.5,13.5-38.7,4.1c-61.1-40.1-122.3-80-183.4-120c-40-26.1-79.7-52.6-119.9-78.4
			c-14.9-9.6-22-19.8-19.4-39.5c8.5-64.3-27.2-117-87.9-134.1c-56.9-16-118.7,10.9-143.2,62.3c-11.8,24.7-15,51.1-10.3,77.5
			c3,17.1-2.3,27.2-15.9,36.1c-83.4,54.3-166.7,109-250,163.5c-16.4,10.7-32.8,21.3-49,32.3c-13.9,9.4-26.4,8.8-38.9-3
			c-39.7-37.5-86-42.2-134.5-22.7C859,938.9,839,979.9,836.6,1030c-2.4,49.8,28.2,94.9,75,113.4c33,13.1,33.9,15,33.9,50.7
			c-0.2,96.1-0.2,192.2-0.3,288.4c0,34-1.6,35.4-32.5,47.9c-49,19.8-73.9,57.7-75.9,109.4c-1.7,45,16.6,81.6,55.5,106.5
			c25,16,26.4,18.7,18.9,46c-41.5,152.6-83.2,305.2-124.8,457.8c-3.3,12.2-6.4,24.7-17.3,32.9c-36.3,0-72.6-0.5-108.8,0.3
			c-10.3,0.2-13.9-2-12.3-12.4c1-6.2,0.2-12.6,0.2-19c7-10.8,17.3-14.3,29.6-14.1c16.1,0.2,32.3-0.7,48.3,0.1
			c11.7,0.6,17.7-3.3,20.8-15.1c35.6-131.6,71-263.3,107.9-394.5c7.8-27.7,7.6-45.5-15.3-69.9c-81.2-86.7-57.5-207.7,47.8-265.5
			c8.8-4.8,12.2-10.4,12.2-20.3c-0.2-89.8-0.2-179.6,0-269.4c0-10.4-3.4-16.5-12.9-21.7c-64.9-35.7-100-90.3-93.6-165.1
			c6-70.4,47.4-117.6,111.7-143.1c50.4-20,99.8-11.8,144.9,17.7c12.1,7.9,20.2,7.7,32-0.2c81.9-54.6,164.1-108.8,246.7-162.2
			c14.7-9.5,20.6-19.7,20.7-37.6c0.6-92.1,77.8-167.4,169.6-167.2c87.2,0.2,163.8,76.5,165.6,166.4c0.3,15.3,5.9,24.3,18,32.1
			c86.8,56.5,173.5,113.2,259.9,170.4c10,6.6,16.5,5.4,26-0.8c113.3-73.4,238,4.4,258,109.2c13.4,69.8-21.7,142.3-87.9,177.8
			c-13.1,7.1-17.5,15.1-17.4,29.6c0.6,85.8,0.6,171.5,0,257.3c-0.1,14.4,4,22.4,17.2,29.5c88.1,47.4,111.4,149.3,74.6,230.7
			c-8.4,18.7-20.8,34.6-36.9,47.2c-7.5,5.9-8.8,11.7-6.4,20.8c38.3,142.8,76.3,285.6,114.1,428.6c3.1,11.7,9.4,15.8,20.9,15.4
			c18.4-0.6,36.8-0.1,55.3-0.4c13.4-0.2,25,3.4,33.5,14.3c0,10.4,4,24.8-1.1,30s-19.6,1.1-30,1.1
			C2353.5,2282.9,2324.7,2282.9,2295.9,2282.9z"/>
		<path d="M1508.8,1022.5c0,62.1-0.3,124.2,0.3,186.3c0.1,13.8-3.8,21.2-18.1,23.7c-23.8,4.2-44.5,15.5-61.2,33.1
			c-8.1,8.6-15.2,9.1-25.6,3.5c-105-57.3-210-114.4-315.5-170.7c-14.3-7.7-18.8-14.7-13-30.7c7.7-21.3,8.9-44,2.5-66.1
			c-3.3-11.4-0.3-18,9.4-24.3c104.1-67.8,208-135.9,311.8-204.2c11.5-7.5,19.5-8.6,29.3,3.1c16,19.2,37.9,29.8,62.1,34.6
			c13.8,2.7,18.5,9.5,18.4,23.7C1508.4,897.1,1508.8,959.8,1508.8,1022.5z M1462.7,1022.1c0-43.2-1.3-86.4,0.5-129.4
			c1.1-27.4-1.2-50.2-32.9-57.8c-2.1-0.5-4.1-2.2-5.7-3.7c-10.8-10.9-20.5-7.3-32,0.3c-76.7,50.9-153,102.5-231.2,151
			c-27.3,16.9-40.6,35.2-36.3,67.4c1.6,11.5,4.1,18.8,14.6,24.5c79.6,42.7,159.2,85.4,238,129.4c21.5,12,40.6,20.1,61.2,0.1
			c2.3-2.3,6-3.6,9.2-4.5c12.4-3.2,15-11.6,14.9-23.4C1462.5,1124.5,1462.8,1073.3,1462.7,1022.1z"/>
		<path d="M1538.7,1021.3c0-62.7,0.3-125.5-0.2-188.2c-0.1-13.9,3-22.7,17.9-26.4c21.4-5.3,38.1-18.8,52.1-35.3
			c8.4-9.9,15.4-10.6,26.2-3.3c86.8,57.6,173.9,114.6,260.9,171.8c19.7,13,39.4,26,59.3,38.7c7.6,4.9,12,10.5,8.8,20
			c-8.6,25.2-5.3,50.1,2.9,74.5c3.7,11,1.1,16.6-8.9,22c-109.4,58.9-218.7,118.1-327.8,177.5c-9.5,5.2-16.2,5.6-23.7-3.7
			c-12.2-15.1-28.3-26.1-46.8-31.2c-17.6-4.9-21.3-15-21.1-31.5c0.8-61.6,0.3-123.1,0.3-184.7
			C1538.7,1021.3,1538.7,1021.3,1538.7,1021.3z M1584.8,1022.1c0,0,0.1,0,0.1,0c0,52.9-0.1,105.8,0,158.7
			c0.1,25.3,33.9,45.9,55.8,34c81-43.7,161.5-88.1,243.1-130.6c22.5-11.7,38.5-23.3,30.7-51.3c-0.7-2.6-0.2-5.8,0.3-8.6
			c1.9-12.2-2.9-20-13.5-26.9c-81.5-52.9-163-105.9-243.5-160.2c-20.5-13.8-36.7-20.4-58.2-1.6c-9.6,8.4-15.3,14.6-15.1,27.6
			C1585.1,916.3,1584.8,969.2,1584.8,1022.1z"/>
		<path d="M2065.4,1338.4c0,54.7-0.5,109.4,0.3,164c0.2,14.2-4.6,21-18.1,24c-22.6,5.1-41.7,16.9-56.4,34.7
			c-9.4,11.3-17.4,12.8-30.7,5.5c-85.2-46.9-170.8-93-256.3-139.4c-19.2-10.4-38.3-21.2-57.7-31.2c-9.1-4.7-11.9-10.6-9.8-20.9
			c3.4-16.4,4.2-33.4-1-49.5c-4.6-14.2,0.1-21.9,12.9-28.7c86.8-46.4,173.3-93.4,259.8-140.2c21.3-11.5,42.6-22.9,63.4-35.2
			c11.5-6.8,20.6-7.2,30.8,2.6c13,12.5,28.9,21,46.7,24.9c12.4,2.8,16.4,9.6,16.3,22C2065.1,1226.8,2065.4,1282.6,2065.4,1338.4z
			 M2019.6,1337.1c-0.1,0-0.2,0-0.3,0c0-44.9,0.1-89.7,0-134.6c0-20-29.2-38.5-46.6-29.1c-92.1,49.7-184,99.7-275.9,149.8
			c-18,9.8-17.7,38.8,0.3,48.6c76.7,41.8,154.4,82,229.9,125.9c28.7,16.7,50.9,21.1,77.4-2c9.6-8.4,15.7-14.5,15.5-27.5
			C2019.2,1424.5,2019.6,1380.8,2019.6,1337.1z"/>
		<path d="M975.5,1337.4c0-55.2,0.3-110.4-0.2-165.7c-0.1-12.9,3.6-20.3,17-23c17.2-3.5,32.5-11.9,45.2-24.1
			c9.9-9.5,18.8-10,30.7-3.5c82.1,45.1,164.6,89.7,246.9,134.5c23.7,12.9,47.4,26,71.5,38.2c11.6,5.8,16.4,12.5,11.9,25.7
			c-6.1,17.8-5.8,36.9-2.1,54.6c3.4,16-2.5,22.8-15.2,29.6c-74,39.6-147.7,79.8-221.6,119.8c-26.3,14.2-53,27.8-78.8,42.8
			c-12.5,7.2-21.4,7.6-30.9-4.5c-14.7-18.7-34.8-30.1-57.7-35.7c-13.1-3.2-17.3-10-17.2-23c0.5-55.2,0.2-110.4,0.2-165.7
			C975.3,1337.4,975.4,1337.4,975.5,1337.4z M1021.3,1337.2c0,0-0.1,0-0.1,0c0,43.7-0.1,87.4,0.1,131.1c0,7.8-2.6,18,6.3,21.8
			c17,7.2,29.3,22.3,47.4,26.8c2.2,0.5,5.2-2,7.8-3.4c84-45.4,167.7-91.2,252.1-135.8c15.8-8.3,13-20.7,14-33.6
			c0.9-13-3.4-21.2-15.4-27.6c-88.2-47.2-176.1-95-264.1-142.5c-18.5-10-47.7,7.2-47.9,28.5
			C1021.2,1247.4,1021.3,1292.3,1021.3,1337.2z"/>
	</g>
</g>
<g>
	<defs>
		<polygon id="SVGID_1_" points="1052.1,2143.3 898.7,2039.4 781.6,1879.4 1027.8,1665 1042.8,1605.2 1423.9,1402.3 1595.7,1416 
			1675.4,1432.1 2015.4,1626.4 2198.2,1811.8 1994.2,1958.9 1727.7,2217.9 1126.3,2395.6 		"/>
	</defs>
	<clipPath id="SVGID_2_">
		<use xlink:href="#SVGID_1_"  style="overflow:visible;"/>
	</clipPath>
	<g id="jX1HlP.tif_1_" class="st0">
		<g>
			<path d="M745.2,416.1c19.4,2.5,27,14.8,31.8,32.9c41,155.7,82.8,311.2,124.6,466.7c3.8,14.2,3.8,26.8-10.8,34.2
				c-48.1,24.4-58.3,66.7-53.5,115.1c5.3,54,33.7,90.6,86.2,107c18.6,5.8,22,20,22.1,36.6c0.1,48.3,0.2,96.7,0.2,145
				c0,53,0,105.9-0.2,158.9c-0.1,27.3-3.2,31.3-28.1,40.4c-49.1,17.9-78.8,58.9-80.8,111.6c-1.9,48.3,26,94.8,68.9,114.6
				c46.4,21.5,98.9,13.7,136.5-21.1c12.5-11.6,24.5-13.5,38.7-4.1c61.1,40.1,122.3,80,183.4,120c40,26.1,79.7,52.6,119.9,78.4
				c14.9,9.6,22,19.8,19.4,39.5c-8.5,64.3,27.2,117,87.9,134.1c56.9,16,118.7-10.9,143.2-62.3c11.8-24.7,15-51.1,10.3-77.5
				c-3-17.1,2.3-27.2,15.9-36.1c83.4-54.3,166.7-109,250-163.5c16.4-10.7,32.8-21.3,49-32.3c13.9-9.4,26.4-8.8,38.9,3
				c39.7,37.5,86,42.2,134.5,22.7c48.9-19.7,68.9-60.7,71.3-110.8c2.4-49.8-28.2-94.9-75-113.4c-33-13.1-33.9-15-33.9-50.7
				c0.2-96.1,0.2-192.2,0.3-288.4c0-34,1.6-35.4,32.5-47.9c49-19.8,73.9-57.7,75.9-109.4c1.7-45-16.6-81.6-55.5-106.5
				c-25-16-26.4-18.7-18.9-46c41.5-152.6,83.2-305.2,124.8-457.8c3.3-12.2,6.4-24.7,17.3-32.9c36.3,0,72.6,0.5,108.8-0.3
				c10.3-0.2,13.9,2,12.3,12.4c-1,6.2-0.2,12.6-0.2,19c-7,10.8-17.3,14.3-29.6,14.1c-16.1-0.2-32.3,0.7-48.3-0.1
				c-11.7-0.6-17.7,3.3-20.8,15.1c-35.6,131.6-71,263.3-107.9,394.5c-7.8,27.7-7.6,45.5,15.3,69.9c81.2,86.7,57.5,207.7-47.8,265.5
				c-8.8,4.8-12.2,10.4-12.2,20.3c0.2,89.8,0.2,179.6,0,269.4c0,10.4,3.4,16.5,12.9,21.7c64.9,35.7,100,90.3,93.6,165.1
				c-6,70.4-47.4,117.6-111.7,143.1c-50.4,20-99.8,11.8-144.9-17.7c-12.1-7.9-20.2-7.7-32,0.2c-81.9,54.6-164.1,108.8-246.7,162.2
				c-14.7,9.5-20.6,19.7-20.7,37.6c-0.6,92.1-77.8,167.4-169.6,167.2c-87.2-0.2-163.8-76.5-165.6-166.4c-0.3-15.3-5.9-24.3-18-32.1
				c-86.8-56.5-173.5-113.2-259.9-170.4c-10-6.6-16.5-5.4-26,0.8c-113.3,73.4-238-4.4-258-109.2c-13.4-69.8,21.7-142.3,87.9-177.8
				c13.1-7.1,17.5-15.1,17.4-29.6c-0.6-85.8-0.6-171.5,0-257.3c0.1-14.4-4-22.4-17.2-29.5c-88.1-47.4-111.4-149.3-74.6-230.7
				c8.4-18.7,20.8-34.6,36.9-47.2c7.5-5.9,8.8-11.7,6.4-20.8c-38.3-142.8-76.3-285.6-114.1-428.6c-3.1-11.7-9.4-15.8-20.9-15.4
				c-18.4,0.6-36.8,0.1-55.3,0.4c-13.4,0.2-25-3.4-33.5-14.3c0-10.4-4-24.8,1.1-30c5.2-5.2,19.6-1.1,30-1.1
				C687.6,416.1,716.4,416.1,745.2,416.1z"/>
			<path d="M2192.6,416.1c15.5,8.2,19.3,19.7,15,37.3c-37.4,151.9-74.2,303.9-110.5,456.1c-3.7,15.7-10,23.9-26.8,24.6
				c-23,0.9-44,9-61.9,23.6c-9.3,7.6-16.5,4.1-24.7-1.3c-58.2-38.2-116.6-76.1-174.8-114.3c-62.1-40.7-123.8-81.9-186.2-122.2
				c-13.3-8.6-18-16.9-15.5-33.5c11.2-76.2,20.8-152.6,30.5-229c2.1-16.1,8.3-29.7,19.5-41.2
				C1835.7,416.1,2014.2,416.1,2192.6,416.1z M1920.5,461.3c0,0.1,0,0.2,0,0.2c-72.5,0-145,0.3-217.5-0.3
				c-13.7-0.1-20.3,2.6-22.2,18.1c-7.8,63.9-17,127.5-25.9,191.3c-1.4,10.1,1.2,17.2,10.4,23.2c99.3,64.6,199,128.7,297.2,194.9
				c22.6,15.3,41.7,24.5,66.1,7.5c2.7-1.8,6.5-2.4,9.9-2.7c13-1.1,17.9-8.5,20.9-20.8c31.2-130.3,62.9-260.4,94.5-390.5
				c4.8-19.7,4-20.9-16-20.9C2065.4,461.2,1993,461.3,1920.5,461.3z"/>
			<path d="M1405,416.1c15.5,16.7,14.6,38.2,16.8,58.5c7.6,69.7,14.3,139.4,21.8,209.1c1.4,12.8-2.3,21.3-13.6,28.7
				c-123.8,80.8-247.4,162-370.8,243.5c-10.8,7.1-18.7,7.5-29.1-0.3c-21.9-16.4-47.4-23.6-74.5-23.2c-13.8,0.2-18.8-4.8-21.6-17.7
				c-29.5-133-59.5-265.9-89.4-398.8c-4.8-21.3-9-42.8-14.7-63.9c-3.5-13.2-3-24.9,5.2-36C1025,416.1,1215,416.1,1405,416.1z
				 M1126.2,458.7c0,0,0-0.1,0-0.1c-76.5,0-153,0.3-229.5-0.3c-13.6-0.1-18.7,2.9-15.4,17.4c30.1,132.8,59.9,265.7,89.7,398.6
				c2,8.8,5.8,14,15.5,15.6c15.9,2.5,31.4,7.4,45.8,14.8c8.7,4.5,15.8,3.6,23.9-1.8c109.6-71.9,219.4-143.6,329.3-215.1
				c9.7-6.3,11.5-13.1,10.2-24.4c-7-61.1-13.3-122.2-18.7-183.4c-1.4-15.9-6.3-21.8-23-21.7C1278,459.1,1202.1,458.7,1126.2,458.7z"
				/>
			<path d="M1532.3,1676.6c0-62.1,0.3-124.2-0.3-186.3c-0.1-13.8,3.8-21.2,18.1-23.7c23.8-4.2,44.5-15.5,61.2-33.1
				c8.1-8.6,15.2-9.1,25.6-3.5c105,57.3,210,114.4,315.5,170.7c14.3,7.7,18.8,14.7,13,30.7c-7.7,21.3-8.9,44-2.5,66.1
				c3.3,11.4,0.3,18-9.4,24.3c-104.1,67.8-208,135.9-311.8,204.2c-11.5,7.5-19.5,8.6-29.3-3.1c-16-19.2-37.9-29.8-62.1-34.6
				c-13.8-2.7-18.5-9.5-18.4-23.7C1532.7,1801.9,1532.3,1739.2,1532.3,1676.6z M1578.4,1676.9c0,43.2,1.3,86.4-0.5,129.4
				c-1.1,27.4,1.2,50.2,32.9,57.8c2.1,0.5,4.1,2.2,5.7,3.7c10.8,10.9,20.5,7.3,32-0.3c76.7-50.9,153-102.5,231.2-151
				c27.3-16.9,40.6-35.2,36.3-67.4c-1.6-11.5-4.1-18.8-14.6-24.5c-79.6-42.7-159.2-85.4-238-129.4c-21.5-12-40.6-20.1-61.2-0.1
				c-2.3,2.3-6,3.6-9.2,4.5c-12.4,3.2-15,11.6-14.9,23.4C1578.6,1574.5,1578.3,1625.7,1578.4,1676.9z"/>
			<path d="M1502.4,1677.7c0,62.7-0.3,125.5,0.2,188.2c0.1,13.9-3,22.7-17.9,26.4c-21.4,5.3-38.1,18.8-52.1,35.3
				c-8.4,9.9-15.4,10.6-26.2,3.3c-86.8-57.6-173.9-114.6-260.9-171.8c-19.7-13-39.4-26-59.3-38.7c-7.6-4.9-12-10.5-8.8-20
				c8.6-25.2,5.3-50.1-2.9-74.5c-3.7-11-1.1-16.6,8.9-22c109.4-58.9,218.7-118.1,327.8-177.5c9.5-5.2,16.2-5.6,23.7,3.7
				c12.2,15.1,28.3,26.1,46.8,31.2c17.6,4.9,21.3,15,21.1,31.5c-0.8,61.6-0.3,123.1-0.3,184.7
				C1502.4,1677.7,1502.4,1677.7,1502.4,1677.7z M1456.3,1676.9c0,0-0.1,0-0.1,0c0-52.9,0.1-105.8,0-158.7
				c-0.1-25.3-33.9-45.9-55.8-34c-81,43.7-161.5,88.1-243.1,130.6c-22.5,11.7-38.5,23.3-30.7,51.3c0.7,2.6,0.2,5.8-0.3,8.6
				c-1.9,12.2,2.9,20,13.5,26.9c81.5,52.9,163,105.9,243.5,160.2c20.5,13.8,36.7,20.4,58.2,1.6c9.6-8.4,15.3-14.6,15.1-27.6
				C1456,1782.7,1456.3,1729.8,1456.3,1676.9z"/>
			<path d="M1498.1,1214.8c1.6,8.2-2.5,12.8-10,15.3c-24.7,8.2-45.6,21.9-61.3,42.9c-7,9.3-14.1,4.3-21.2,0.5
				c-43.5-23.5-87.1-47-130.6-70.6c-60.2-32.6-120.3-65.6-180.8-97.5c-13.3-7-18.9-14.8-14.6-29.7c7.1-24.6,0.8-48.1-8.6-70.6
				c-4.9-11.7-3.7-18.3,7.3-25.5c118.1-77,235.9-154.5,353.9-231.8c14.8-9.7,16.6-8.1,18.6,10.8c11.1,106.3,22.5,212.6,33.6,318.9
				C1489.2,1123.2,1493.6,1169,1498.1,1214.8z M1449.5,1179.9c-1.2-9.1-2.6-18.2-3.5-27.3c-10.7-104.5-21.2-209-31.9-313.6
				c-2.2-21.6-4.1-22.5-21.8-10.9c-83.2,54.5-166.1,109.4-249.8,163.1c-16,10.3-25.3,19.6-17.4,39.5c2.8,7,1.8,16,1,23.9
				c-1.2,12.2,4.3,18.5,14.7,24.1c80.1,42.9,160.3,85.4,239.3,130.2c20.9,11.9,36,14.9,54.2-2.8
				C1442.4,1198.4,1452.1,1193.3,1449.5,1179.9z"/>
			<path d="M1538.6,1211.5c7.4-57.6,14.5-112.8,21.8-168.1c12.4-94,24.9-187.9,37.4-281.9c2.3-17.1,4.8-18.5,18.9-9.2
				c114.5,75.1,228.8,150.4,343.4,225.2c11.9,7.8,16.5,14.3,9.9,29c-10.5,23.4-14.5,48.5-7.6,74.1c3.2,11.7-1.6,17.9-11.5,23.2
				c-101.3,54.5-202.6,109.1-303.5,164.3c-13.6,7.4-22.8,8.1-33.9-4.8c-15.6-18.2-36.4-29.7-60.1-35.3
				C1543.5,1225.7,1535.4,1221.8,1538.6,1211.5z M1588.8,1177.3c-2.1,9.4,2.6,16,12.1,20.7c6.7,3.2,13.5,6.9,19,11.8
				c11.8,10.5,22.4,9.2,35.7,1.9c78.1-42.9,156.4-85.4,235.2-126.8c18.1-9.5,27.8-20.3,24.6-41.2c-0.8-5.5-0.2-11.7,1.6-17
				c4.7-14.5-0.4-23.7-12.7-31.7c-84.8-55.1-169.4-110.6-253.8-166.3c-13.1-8.6-15.6-4.5-17.2,9.2c-6.9,56.4-15,112.7-22.4,169
				C1603.5,1063.2,1596.3,1119.6,1588.8,1177.3z"/>
			<path d="M975.7,1360.6c0-54.7,0.5-109.4-0.3-164c-0.2-14.2,4.6-21,18.1-24c22.6-5.1,41.7-16.9,56.4-34.7
				c9.4-11.3,17.4-12.8,30.7-5.5c85.2,46.9,170.8,93,256.3,139.4c19.2,10.4,38.3,21.2,57.7,31.2c9.1,4.7,11.9,10.6,9.8,20.9
				c-3.4,16.4-4.2,33.4,1,49.5c4.6,14.2-0.1,21.9-12.9,28.7c-86.8,46.4-173.3,93.4-259.8,140.2c-21.3,11.5-42.6,22.9-63.4,35.2
				c-11.5,6.8-20.6,7.2-30.8-2.6c-13-12.5-28.9-21-46.7-24.9c-12.4-2.8-16.4-9.6-16.3-22C976,1472.2,975.7,1416.4,975.7,1360.6z
				 M1021.5,1361.9c0.1,0,0.2,0,0.3,0c0,44.9-0.1,89.7,0,134.6c0,20,29.2,38.5,46.6,29.1c92.1-49.7,184-99.7,275.9-149.8
				c18-9.8,17.7-38.8-0.3-48.6c-76.7-41.8-154.4-82-229.9-125.9c-28.7-16.7-50.9-21.1-77.4,2c-9.6,8.4-15.7,14.5-15.5,27.5
				C1021.9,1274.5,1021.5,1318.2,1021.5,1361.9z"/>
			<path d="M2065.6,1361.6c0,55.2-0.3,110.4,0.2,165.7c0.1,12.9-3.6,20.3-17,23c-17.2,3.5-32.5,11.9-45.2,24.1
				c-9.9,9.5-18.8,10-30.7,3.5c-82.1-45.1-164.6-89.8-246.9-134.5c-23.7-12.9-47.4-26-71.5-38.2c-11.6-5.8-16.4-12.5-11.9-25.7
				c6.1-17.8,5.8-36.9,2.1-54.6c-3.4-16,2.5-22.8,15.2-29.6c74-39.6,147.7-79.8,221.6-119.8c26.3-14.2,53-27.8,78.8-42.8
				c12.5-7.2,21.4-7.6,30.9,4.5c14.7,18.7,34.8,30.1,57.7,35.7c13.1,3.2,17.3,10,17.2,23c-0.5,55.2-0.2,110.4-0.2,165.7
				C2065.8,1361.6,2065.7,1361.6,2065.6,1361.6z M2019.8,1361.9c0,0,0.1,0,0.1,0c0-43.7,0.1-87.4-0.1-131.1c0-7.8,2.6-18-6.3-21.8
				c-17-7.2-29.3-22.3-47.4-26.8c-2.2-0.5-5.2,2-7.8,3.4c-84,45.4-167.7,91.2-252.1,135.8c-15.8,8.3-13,20.7-14,33.6
				c-0.9,13,3.4,21.2,15.4,27.6c88.2,47.2,176.1,95,264.1,142.5c18.5,10,47.7-7.2,47.9-28.5
				C2019.9,1451.6,2019.8,1406.7,2019.8,1361.9z"/>
		</g>
	</g>
	<rect x="1280.7" y="1763.4" class="st1" width="488.8" height="458.9"/>
</g>
</svg>
