<?xml version="1.0" encoding="utf-8"?>
<!-- Generator: Adobe Illustrator 19.2.0, SVG Export Plug-In . SVG Version: 6.00 Build 0)  -->
<!DOCTYPE svg PUBLIC "-//W3C//DTD SVG 1.1//EN" "http://www.w3.org/Graphics/SVG/1.1/DTD/svg11.dtd">
<svg version="1.1" id="Ebene_1" xmlns="http://www.w3.org/2000/svg" xmlns:xlink="http://www.w3.org/1999/xlink" x="0px" y="0px"
	 viewBox="0 0 3000 3000" style="enable-background:new 0 0 3000 3000;" xml:space="preserve">
<g id="QJ8M3z.tif">
	
		<image style="overflow:visible;" width="960" height="1200" id="Layer_0_1_" xlink:href="2EE46DF0B07217D2.png"  transform="matrix(1.8718 0 0 1.8718 -3572.1421 -497.7501)">
	</image>
</g>
<rect x="-1728.4" y="300.4" width="13.2" height="136.1"/>
<path d="M-2321,334.8l-302.2,217.4v4.9l-27,20.3c-5.6-6.7-14-11-23.5-11c-10.2,0-19.2,5-24.7,12.6l-35-24.5l3.2-6.5l-175.1-120
	l-30.6-8.9l17.4,27.4l178,118.9l3.2-5.7l35.5,25.3c-1.5,3.6-2.4,7.6-2.4,11.9c0,16.9,13.7,30.5,30.5,30.5s30.5-13.7,30.5-30.5
	c0-5.9-1.7-11.4-4.6-16.1l27.8-20.5l5.1,1.8l303.6-216.6l15-17.8L-2321,334.8z"/>
<g id="Ih3Yl9.tif">
	<g>
		<path fill="transparent" stroke="#fff" d="M1192.4,2456.9c0.3-8.7,1.4-17.4,1.4-26.1c0.2-70.8,8.2-141.3,7.5-212.3c-0.7-74.4,5-148.7,12-222.8
			c2.8-29.3,4.5-58.7,5-88.1c0.3-14.7-0.8-29.7-4.7-44.1c-1.2-4.4-0.5-8.6,0.4-12.9c5-22.8,7.2-45.9,6.7-69.2
			c-0.2-6.9-0.4-13.7,1.4-20.6c1.1-4.4,2.3-9.4-3.2-12.5c-0.6-0.3-1.2-1.2-1.1-1.8c2.9-22.6-15.4-39-17.3-60.6
			c-3.3-37.9-2.7-75.4,3.3-112.9c1.9-12.2,3.4-24.4,5.2-36.6c1.3-8.9-2.7-15.8-9.4-20.8c-13.6-10-19.5-22-12.6-38.5
			c0.8-1.9,0.6-4.3,0.8-6.5c1.1-15.8,1.1-16-14.5-18.4c-8.5-1.3-11.5-5.9-11.3-14.2c0.9-61.3,9.8-122.1,12.3-183.3
			c2-49,9.9-97.5,11.2-146.5c0.1-4.4,0.3-8.7-0.1-13.1c-0.9-10.9-5.3-16.9-17.2-21.3c-36.4-13.3-73-25.9-108.2-42.4
			c-14.1-6.6-29.2-11.1-44-16c-13.2-4.4-26.8-1.3-40-0.1c-30.8,2.8-62.1-1.5-92.3,4.9c-21,4.5-40.9,3.2-61.4-0.3
			c-23.1-4-41.5-15.5-54.8-34.3c-20.9-29.6-42.5-58.7-60.5-90.3c-12.2-21.4-26.2-41.7-35.6-64.7c-2.2-5.2-6.5-8.9-12.5-9.4
			c-19.8-1.5-39.1-7.4-59.4-2.5c-21.5,5.2-43.5,2.7-65-0.4c-30.8-4.4-61.8-8.8-92-16.7c-9.2-2.4-19-3.2-24.1-14.2
			c-2.4-5.3-10.4-4.2-15.9-5.3c-6-1.1-10.9-2.7-9.5-10.2c0.9-4.9-3.1-6-5.7-8.3c-3.9-3.5-7.6-7.4-6.1-13.1c1.3-5,6.1-5.7,10.3-6.6
			c1.1-0.2,2.5,0,3.2-0.6c18.6-18.4,42.6-10.2,64.3-12.9c5.7-0.7,11.4-1,18-1.5c-1.2-3.2-2.2-5.5-2.8-7.9
			c-2.3-9.1,0.8-14.6,10.3-14.9c13.7-0.5,27.7-0.9,41.2,1c11,1.5,21.6,2.2,32.4,0.5c9.4-1.4,18.4-0.2,26.3,4.7
			c11.2,6.9,23.5,11.5,35.3,17c5,2.3,9.4,4.9,13.1,9.3c7,8.3,23.7,8.8,31.3,1.4c3.8-3.7,8-3.2,12.2-2c25,7.1,50.7,7.8,76.2,11
			c41.3,5.3,81.7-3.1,122.5-2.3c33.5,0.6,66.6-5,99.9-7c14.7-0.9,28.9-7.7,41.6-16c9.5-6.2,19.5-9.2,30.9-8.6
			c43.3,2.3,85-5.5,126.4-17.7c26.8-7.9,54.9-13.5,82.7-11.9c36.5,2,71.7-4.7,107.4-9c8-1,13.5-3.2,9.3-13.2
			c-2.8-6.7,0.1-13.7,1.6-20.3c11.6-51.4,19.5-103.2,23.3-155.9c2.6-36.7,17-69.7,41.6-97.6c13.2-15,31.4-19.4,50-20.6
			c20.5-1.4,41.4,1.1,59.6,10.1c26.4,13,44.4,34.3,45.2,65.3c0.7,25.7,3.8,51.5,0.7,77.3c-1.3,10.8-0.9,21.7,1.8,32.5
			c3.8,15.2,1.1,30.3-2.5,45.2c-2.5,10.2-2.9,20.1,1.7,29.8c4.9,10.4,2.3,21.1-1,30.7c-3.2,9.2,2.9,16,3,24.1c0,2.3,3,2.9,5.2,3
			c25.2,1.4,49.7,11.7,74.8,9.6c27.2-2.4,50.9,10,76.6,13.6c5,0.7,10.2,2.1,14.5,4.6c17.2,9.7,38.3,11.4,54.2,21.5
			c23.7,15,50.6,13.6,75.2,22.1c25,8.6,50.3,16.8,76.9,19.6c6.9,0.7,13.6,2.5,19.4-3.2c1.4-1.4,4-2.6,5.9-2.4
			c22.9,2.2,45.2-5.4,68.3-3.2c24.1,2.2,48.4,3.8,72.5,5.9c23.2,2,47.5,3.2,71.1-4.3c18.2-5.8,37.6-8.1,56.4-11.8
			c5.4-1.1,10.3-0.7,15.2,3.4c7.6,6.5,26.6,5.2,33.2-2c6.1-6.7,13.4-10.8,21.7-13.9c9.8-3.7,19.4-8.2,29.2-12.2
			c4.7-1.9,9.7-4.6,14.5-4.5c22,0.5,43.5-7.3,65.8-3.8c5.7,0.9,11.6,0.1,17.4,0c4.8-0.1,9.7-0.3,12.2,5c2.4,5.2-0.4,9-4.1,12.4
			c-1,0.9-2,1.8-4.5,4.2c19.7-1.1,37.3-2.2,54.9-3.1c12.4-0.6,26.1-4.9,32.5,11.6c1.1,2.7,4.2,2.4,6.7,2.6c7.6,0.6,9.3,6,9.9,12.1
			c0.6,6-2.2,9.9-8.1,10.9c-4.8,0.9-6.9,3.6-6.6,8.3c0.5,8.2-4.3,10.6-11.3,11.5c-6.9,0.8-13.7,1.7-16,10.3
			c-0.8,3.1-4.8,4.4-7.9,5.3c-17.2,4.5-33.9,10.9-51.8,12.1c-6.2,0.4-12.1,2.2-18,3.9c-44.5,13-89.6,17.1-135.4,7.9
			c-10.2-2-20.3,0.5-30.2,2.8c-5.8,1.3-8,6.8-8.1,11.8c-0.2,26.3-14.3,47.7-24.9,70.2c-15.3,32.4-35.7,61.4-59.7,88.1
			c-13.8,15.3-31.3,20.5-50.9,20.4c-36-0.1-71.9,1.3-107.8,2.3c-37.4,1.1-74.9,2.3-111.9,7.4c-23,3.2-46.5,6.1-68,17.6
			c-29.6,15.9-62.6,23.1-94.8,31.6c-8.6,2.2-11.6,5.9-10.5,14.3c5.8,43,4.4,86.3,3.5,129.5c-0.6,28,1.1,55.7,2.8,83.6
			c0.8,14.3-2.9,28.7-2.3,43.4c0.8,21.8,2.6,43.4,5,65.1c3.9,35.1-1.6,70.3,0,105.5c2.8,60.6-3.6,121.2-1.9,181.9
			c0.6,20.3,2.1,40.6,3.5,60.9c1,13.3-2.7,25.9-9.7,36.3c-11.7,17.4-10,36-8.6,54.7c2,26.9,2.1,53.7,0.1,80.5
			c-0.9,11.6-1.1,23.2,0,34.8c1.8,18.5,1.6,37,0.7,55.5c-0.8,16.4-6.5,21.5-22.7,20.7c-7.4-0.4-9.7,1.8-9.4,9
			c3,84.5,1.6,169.2,6.1,253.7c0.5,10.2,0.9,20.4,0.4,30.5c-1.5,37.4,3.2,74.8,2.1,112.2c-0.2,7.7-8.1-1.8-0.9,0.6"/>
	</g>
</g>
</svg>
