<?xml version="1.0" encoding="utf-8"?>
<!-- Generator: Adobe Illustrator 19.2.0, SVG Export Plug-In . SVG Version: 6.00 Build 0)  -->
<!DOCTYPE svg PUBLIC "-//W3C//DTD SVG 1.1//EN" "http://www.w3.org/Graphics/SVG/1.1/DTD/svg11.dtd">
<svg version="1.1" id="Ebene_1" xmlns="http://www.w3.org/2000/svg" xmlns:xlink="http://www.w3.org/1999/xlink" x="0px" y="0px"
	 viewBox="0 0 850.4 850.4" style="enable-background:new 0 0 850.4 850.4;" xml:space="preserve">
<style type="text/css">
	.st0{clip-path:url(#SVGID_2_);}
	.st1{clip-path:url(#SVGID_4_);}
</style>
<g>
	<path d="M430.2,428.1c11,0,22,0.1,33-0.1c3.6-0.1,5.4,1.1,6.3,4.7c7.4,28.4,14.9,56.7,22.4,85c0.9,3.5-0.3,4.6-3.5,4.6
		c-8.3,0-16.7-0.1-25,0c-3.3,0-4.6-1.5-5.2-4.7c-3.9-22.5-8-44.9-11.8-67.4c-0.7-4.4-2.5-5.9-6.8-5.7c-6.8,0.3-13.7,0.2-20.5,0
		c-3.4-0.1-5,0.9-5.6,4.6c-3.7,22.1-7.9,44.2-11.6,66.4c-0.8,5.1-2.8,7.1-8,6.9c-7.3-0.4-14.6-0.2-22-0.1c-3.8,0-4.9-1.4-3.9-5.2
		c7.5-28,14.9-56,22.1-84c1-3.7,2.7-5.1,6.6-5.1C407.8,428.2,419,428.1,430.2,428.1z"/>
	<path d="M429.6,560.5c-23.5,0-47,0-70.5,0c-7.8,0-7.9,0-7.9-7.6c0-7,0.3-14-0.1-21c-0.3-4.7,3.6-6,5.9-5.5
		c6.5,1.5,12.9,0.7,19.3,0.7c41.8,0.1,83.6,0.1,125.5,0.1c6.5,0,6.7,0.2,6.7,6.8c0,6.7,0,13.3,0,20c0,6.2-0.3,6.5-6.5,6.5
		C477.9,560.5,453.8,560.5,429.6,560.5z"/>
	<path d="M429.9,118.1c0.3,0,0.7,0,1,0c13.7,0,14.8,1.3,12.7,15.1c-0.1,0.7-0.1,1.7-0.4,1.9c-5.6,3.4-3.4,8.8-3.2,13.5
		c0.7,14,1.8,27.9,2.7,41.9c2,31.2,3.9,62.5,5.8,93.7c1.5,25.8,3.8,51.5,7.3,77c1.3,9.9,2.6,19.8,4.3,29.6c0.7,4.1-0.8,4.9-4.4,5
		c-8.7,0.1-8.7-0.1-9.5-8.6c-2.8-27.3-4.8-54.7-6.6-82.1c-0.9-14-1.7-27.9-2.1-41.9c-1-32.8-2.1-65.6-2.3-98.4
		c0-7.8-0.6-15.6-0.8-23.5c-0.1-2.9-0.7-4.7-4.2-4.7c-3.5,0-4.6,1.5-4.7,4.8c-0.2,17-0.4,34-1,51c-1.2,35.3-2.2,70.6-4.1,105.8
		c-1.6,30.9-3.8,61.8-7.5,92.5c-0.2,1.9,0.3,4.5-2.5,4.8c-3.4,0.4-7,1.1-10.3-0.6c-1.5-0.8-0.8-2.7-0.6-4.2
		c5.2-32.1,8.8-64.3,11.4-96.7c1.6-19.6,2.1-39.2,3.3-58.8c1.5-24.9,3.2-49.8,4.7-74.7c0.4-6.3,0.8-12.6,1.1-18.9
		c0.1-1.3,0.2-3.3-0.6-3.8c-6.5-4.5-2.4-11-3.3-16.5c-0.4-2.4,1.6-3,3.6-3C423.2,118.2,426.6,118.2,429.9,118.1
		C429.9,118.1,429.9,118.1,429.9,118.1z"/>
	<path d="M431.5,178.5c0,10.3-0.2,20.5,0,30.8c0.6,23.8,1,47.6,2.4,71.4c1.8,31.9,3.1,63.8,6.6,95.6c0.6,5.1,0.8,10.3,1.4,15.4
		c0.3,2.7-0.4,4.1-3.4,4.1c-5.8-0.1-11.7-0.1-17.5-0.1c-2.5,0-3.6-1.2-3.3-3.7c2-18.9,3.9-37.7,5-56.7c0.9-14.4,1.9-28.9,2.6-43.3
		c1.5-32.6,3-65.2,3.4-97.8c0.1-5.2,0.7-10.4,1.1-15.6C430.3,178.5,430.9,178.5,431.5,178.5z"/>
	<path d="M429.4,422.7c-11.8,0-23.6-0.1-35.5,0.1c-4.2,0.1-5.5-1.5-5.6-5.5c-0.4-16.2-0.5-16.2,15.7-16.2c20.1,0,40.3,0.1,60.4-0.1
		c4.8-0.1,6.3,1.4,6.3,6.2c-0.1,15.5,0.1,15.5-15.4,15.5C446.8,422.7,438.1,422.7,429.4,422.7z"/>
	<path d="M429.7,112.7c-0.8,0-1.7-0.1-2.5,0c-5.7,1.2-7.7-2.1-8.7-6.9c-1.4-6.8,0.9-9.7,7.8-9.7c2.8,0,5.7-0.1,8.5,0
		c4.6,0.1,6.6,2.2,6.5,6.9C441.3,110.9,439,112.7,429.7,112.7z"/>
	<path d="M427.6,68.4c0-6.5-0.1-13,0-19.5c0-1.4,0-3.4,2.1-3.4c2.2,0,2,1.9,2,3.3c0.4,12.6,0.7,25.3,1,37.9c0,2,0.2,4.3-2.7,4.4
		c-2.9,0.1-2.8-2.3-2.8-4.3c0-6.2,0-12.3,0-18.5C427.3,68.4,427.4,68.4,427.6,68.4z"/>
	<g>
		<g>
			<defs>
				<rect id="SVGID_1_" x="429.9" y="524.4" width="231.4" height="274.7"/>
			</defs>
			<clipPath id="SVGID_2_">
				<use xlink:href="#SVGID_1_"  style="overflow:visible;"/>
			</clipPath>
			<path class="st0" d="M502.1,567.6c9.8,0,10.9-2,9.7,9.9c-1.9,19.4,3.9,36.3,12.7,53.3c14.2,27.1,27,55,40.4,82.6
				c5.3,10.9,10.7,21.8,16.2,32.7c1.9,3.8,1,5.1-3.1,5c-7.3-0.1-14.7,0-22,0c-6.8,0-13.7-0.2-20.5,0.1c-4,0.2-5.9-1.4-7.2-5.2
				c-5.8-16.8-12-33.6-19.8-49.6c-8.2-16.8-18.1-32.4-33.4-43.6c-20.7-15.3-43.8-17.3-68-10.8c-17.2,4.6-29.8,15.9-40.1,29.8
				c-14.8,19.9-23.3,43-31.7,66c-4.9,13.3-4.7,13.4-18.9,13.4c-11.2,0-22.3,0-33.5,0c-5,0-5.4-0.8-3.1-5.2
				c8-15.3,14.7-31.2,22.7-46.5c8.2-15.7,15.7-31.8,23.5-47.7c6.7-13.8,13.3-27.7,20.1-41.5c2-4,2.8-8,2.7-12.5
				c-0.2-8.3,0-16.7-0.1-25c-0.1-3.6,1.4-4.9,5-5 M430.8,592c-23.2,0-46.3,0.1-69.5-0.1c-3.8,0-5.4,1.2-5.4,5.2c0,4,2,4.7,5.3,4.6
				c6.4-0.1,12.8,0,19.2,0c36.6,0,73.3,0,109.9,0c3.5,0,7-0.1,10.5,0c2.8,0.1,3.7-1.3,3.9-3.9c0.4-4.3-1.2-5.9-5.6-5.8
				C476.4,592.1,453.6,592,430.8,592z M565.4,743.7c0.1-0.5,0.3-0.9,0.4-1.4c-5.4-3.5-10.8-7-16.2-10.5c-1.4-0.9-2.6-1.2-3.7,0.6
				c-1.9,2.9-3.9,5.8-5.8,8.7c-1.3,2-0.5,2.6,1.6,2.6C549.6,743.7,557.5,743.7,565.4,743.7z M294.6,743.7c9,0,16.7,0,24.4,0
				c2.1,0,2.7-1.1,1.7-2.9c-1.7-2.9-3.4-5.6-5.2-8.4c-0.7-1-1.5-1.9-2.9-1.1C306.6,734.8,300.9,738.5,294.6,743.7z M525.1,716.4
				c2,5.2,3.4,9.2,5.1,13.2c1.3,3.1,1.5,8.4,4.3,8.7c2.7,0.2,3.9-5.1,6.2-7.7c0.3-0.4,0.6-0.8,0.8-1.2c0.8-1.3,0.7-2.5-0.7-3.4
				C536,722.9,531.4,719.3,525.1,716.4z M335.7,715.7c-3.5,2.3-5.9,3.8-8.3,5.5c-11.1,7.7-10.2,4.1-2.9,15.6
				c0.2,0.3,0.4,0.6,0.6,0.8c1.4,2,2.4,1.4,3.1-0.5C330.5,730.4,332.8,723.8,335.7,715.7z M292.4,736.4c0.3,0.3,0.6,0.6,1,0.9
				c3.2-2,6.3-4,9.5-6c9.1-5.7,9.1-5.8,2.6-14.2c-0.1-0.1-0.2-0.3-0.3-0.4c-1.2-1.9-2.1-1.7-3,0.2
				C298.9,723.4,295.6,729.9,292.4,736.4z M509.7,673.1c-0.1,0.4-0.2,0.9-0.2,1.3c5.1,3,10.2,6.1,15.2,9.1c1.7,1,3.1,1.1,4.2-0.7
				c1.7-2.8,4.2-5.2,4-8.8c0-0.9-1.3-0.9-2.1-0.9C523.8,673.1,516.7,673.1,509.7,673.1z M567.7,737.1c0.3-0.2,0.5-0.5,0.8-0.7
				c-3.6-7.1-7.1-14.1-11-21.9c-2.3,3.3-4,6-5.8,8.5c-1.1,1.6-1.2,3.1,0.6,4.2C557.4,730.6,562.6,733.8,567.7,737.1z M351.3,674.1
				c-0.1-0.3-0.2-0.7-0.2-1c-4.3,0-8.6,0.1-12.9,0c-9.9-0.3-10-0.2-6.6,8.6c1,2.5,2.3,3.1,4.5,1.8
				C341.2,680.4,346.2,677.3,351.3,674.1z M528.9,711.1c4.9,4.8,10.1,7.3,15,10.4c1.2,0.8,2.2,0.4,3-0.7c1.6-2.4,3.2-4.7,4.7-7
				c1-1.6,0.3-2.5-1.5-2.6C543.3,711.1,536.6,711.1,528.9,711.1z M332,711.1c-5.8,0-10.8-0.1-15.7,0.1c-2.4,0.1-5.8-1.4-6.8,1
				c-0.9,2.1,1.9,4.4,3.2,6.3c1,1.4,1.6,4.4,4.3,2.9C322.1,718.6,327.2,715.9,332,711.1z M547.6,697.3c0.3-0.2,0.6-0.4,0.9-0.6
				c-1.2-3-2.4-6-3.8-8.9c-1.3-2.9-2.8-5.6-4.2-8.4c-0.5-1-1.4-2.4-2.6-1.1c-2.3,2.6-4.5,5.6-4.9,9c-0.3,2.7,2.9,3.2,4.8,4.4
				C540.9,693.6,544.3,695.4,547.6,697.3z M328.3,687.4c-1.5-3.4-3-6.6-5.4-9.1c-1.3-1.3-2.1,0.1-2.6,1.1c-2.4,4.7-4.7,9.5-7,14.3
				c-0.7,1.6-0.5,3.6,1.7,2.6c4.3-2.1,8.3-4.8,12.4-7.3C327.9,688.6,328.1,687.9,328.3,687.4z M545.3,703.8c0.1-0.4,0.2-0.8,0.3-1.2
				c-4.2-2.6-8.5-5.1-12.6-7.9c-2.8-1.8-4.6-1.2-6,1.6c-0.7,1.5-1.6,2.9-2.4,4.4c-1.3,2.2-0.3,3.1,1.9,3.1
				C532.8,703.8,539,703.8,545.3,703.8z M493.8,637.2c-0.1,0.4-0.2,0.8-0.3,1.1c4.1,2.4,8.2,4.9,12.4,7.3c1.3,0.7,2.9,2.7,4.3,0.8
				c2.1-2.6,4.4-5.1,5.3-8.3c0.3-0.9-1.1-0.9-1.9-0.9C507,637.1,500.4,637.2,493.8,637.2z M530.2,660.3c0.3-0.2,0.6-0.5,0.8-0.7
				c-2.1-4.1-4.1-8.3-6.2-12.4c-1-2.1-1.7-5.4-3.6-5.6c-2.5-0.2-3.1,3.4-4.7,5.2c-2.3,2.6-2,4.5,1.2,6.2
				C522,655.3,526.1,657.8,530.2,660.3z M315.1,703.3c5.1,1,9.6,0.5,14.1,0.5c2.5,0,6.3,1.4,7.2-1.1c0.9-2.3-2.2-4.8-3.4-7.3
				c-0.9-1.9-2.3-2.1-4.1-1.1C324.5,697,319.6,699.3,315.1,703.3z M526.4,665.7c0.1-0.4,0.1-0.8,0.2-1.2c-3.8-2.4-7.5-4.8-11.4-7.1
				c-1.5-0.9-3.2-2.8-4.8-0.9c-2,2.4-3.5,5.2-5,8c-0.4,0.8,0.9,1.2,1.7,1.2C513.5,665.7,519.9,665.7,526.4,665.7z M333.8,664.8
				c0.1,0.3,0.2,0.6,0.2,0.9c6,0,12-0.1,18,0c3.6,0,3.5-1.5,1.9-3.9c-0.7-1.1-1.5-2.2-2.1-3.4c-1.4-3-3.2-3.3-5.9-1.5
				C341.9,659.7,337.8,662.2,333.8,664.8z M490.8,642.7c-0.3,0.2-0.5,0.4-0.8,0.6c1.9,3.8,3.7,7.7,5.7,11.5c1.2,2.3,1.4,6.3,3.8,6.5
				c2.7,0.2,3.3-4,5.2-5.9c1.9-1.9,1.5-3.4-0.8-4.7C499.5,648,495.1,645.3,490.8,642.7z M467.7,629.5c-16.8-9.2-17.5-9.2-26.3,0
				C450.1,629.5,458.5,629.5,467.7,629.5z M342.3,700c3.4-6.6,6.6-12.8,9.8-19c-3.1,0.7-5.4,2-7.6,3.4
				C335.4,690.1,335.4,690.2,342.3,700z M509.8,680.6c-0.3,0.2-0.7,0.5-1,0.7c3.1,6.1,6.2,12.2,9.4,18.5c2.4-1.6,2.6-4.3,4.2-6
				c2.3-2.6,1.9-4.5-1.2-6.3C517.3,685.4,513.6,682.9,509.8,680.6z M329.3,661.3c2.1-1.3,3.2-1.7,4.1-2.5c2.5-2.2,4.8-4.1,8.2-5.2
				c5.3-1.6,5.4-3.5,1.7-7.8c-0.5-0.6-1.2-1.2-1.7-1.8c-1.6-2-3.3-2.1-4.1,0.3C335.5,649.9,331.6,654.6,329.3,661.3z M369.5,644.4
				c-2.8,1.8-6.3,0.5-7.9,3.3c-1.1,2-2.3,2.8-4.5,3c-1.6,0.1-3.3,1.6-1.9,3.6c1.8,2.5,2.4,6.2,6.1,7.2c0.2,0.1,0.7-0.7,0.9-1.1
				C364.6,655.3,367.5,650.4,369.5,644.4z M344.5,637.7c1.1,1.8,2.2,3.1,2.8,4.6c1.8,4.1,5.6,4.3,8.2,2.4c3.4-2.4,7.1-4.1,10.7-6.1
				c0.2-0.1,0.3-0.5,0.6-1.4C359.4,637.3,352.3,636.7,344.5,637.7z M393.1,629c6.7,1.2,21.2,0.9,24.9-0.4c-1.9-1.4-3.5-2.8-5.3-4
				c-2-1.4-3.9-3.4-6.7-2C401.9,624.6,397.8,626.7,393.1,629z M374.2,585.6c3.2,0,6.4,0.9,6.1-4.1c-0.3-3.8-0.2-6.8-5.4-6.6
				c-3.9,0.1-5.7,1.1-5.6,5.3C369.3,584,370,586.4,374.2,585.6z M491.6,580.2c1-4.2-1.2-5.3-5.2-5.3c-4.3-0.1-5.4,1.7-5.4,5.7
				c0,3.9,1.3,5.2,5.2,5.2C490.2,585.7,492.5,584.8,491.6,580.2z M470.5,585.5c4.4,0.9,5.3-1.4,5.3-5.3c0-3.8-1.2-5.3-5.1-5.3
				c-4,0-5.7,1.1-5.6,5.4C465.1,584.2,466.2,586.3,470.5,585.5z M459.7,580.5c0.7-4.2-1.1-5.6-5.2-5.6c-4.2,0-5.5,1.6-5.4,5.6
				c0,3.8,1.2,5.3,5.2,5.3C458,585.6,460.6,585,459.7,580.5z M433.3,580.4c-0.9,4.5,1.6,5.2,5.4,5.3c3.9,0.1,5.2-1.3,5.2-5.2
				c0-4-1.2-5.7-5.4-5.6C434.5,574.9,432.6,576.2,433.3,580.4z M422.6,585.5c4.4,0.8,5.4-1.4,5.5-5.3c0.1-4.3-1.9-5.3-5.7-5.3
				c-4,0-5.1,1.6-5.1,5.4C417.2,584.2,418.2,586.4,422.6,585.5z M406.7,585.5c4.1,1,5.3-1.1,5.4-5.2c0.1-4.2-1.6-5.4-5.6-5.5
				c-4.4-0.1-5.2,1.9-5.2,5.7C401.2,584.4,402.4,586.3,406.7,585.5z M390.4,585.5c4,0.6,5.8-0.8,5.7-5c0-3.9-1.2-5.7-5.4-5.7
				c-3.9,0-5.7,1-5.6,5.3C385.3,583.9,385.9,586.4,390.4,585.5z M396.7,637.6c-14.5-1.8-17.4,0.2-21.9,14.9
				C381.3,645.8,388.7,641.7,396.7,637.6z M426.8,620.5c0-1.4-0.1-2.4,0-3.4c0.3-3.6-0.6-5.2-4.3-2.9c-0.6,0.4-1.2,0.6-1.8,0.9
				c-7.2,3.6-7.3,3.7-0.7,8.2c1.8,1.3,3.8,4.1,5.8,3.2C428,625.5,426.3,622.3,426.8,620.5z M484.8,650.6c-6.5-15-6.9-15.2-20.5-12.7
				C471.8,641.5,478.8,645.2,484.8,650.6z M446.3,618.5c-1.5-0.9-2.2-1.5-3.1-1.8c-2.9-1-6-4.8-8.3-3c-2.3,1.8-0.6,6.2-0.8,9.5
				c-0.1,2.2,0.8,3.3,3,1.8C440,623,443,620.9,446.3,618.5z M364.7,580.8c0.1-3,0.5-5.8-4-5.9c-4-0.1-4.7,1.9-4.7,5.3
				c0.1,3.1,0.2,5.5,4.4,5.5C364.2,585.7,365.1,583.9,364.7,580.8z M514,625.4c-1.5-3.4-2.5-5.6-3.6-7.9c-3.1-6.2-5.6-6.3-9.6-0.6
				c-0.8,1.2-1.2,2.2,0.3,2.8C505,621.6,508.6,624.2,514,625.4z M387.2,626.1c4.3-2.1,7.2-3.4,10-5c1.7-0.9,4.5-1.2,4.6-3.2
				c0.1-2-2.8-2.5-4.2-3.8c-2.4-2.1-4-1.5-5.3,1.3C390.9,618.6,389.3,621.6,387.2,626.1z M472.2,625.5c-0.2-3.2-1.7-5-2.6-7.1
				c-3.3-7.1-3.6-7.1-9.7-2.4c-2,1.5-2,2.3,0.2,3.4C463.9,621.3,467.8,623.2,472.2,625.5z M480.7,609.4c12.2,7.9,14.3,8.2,18.9,0
				C493.3,609.4,487.1,609.4,480.7,609.4z"/>
		</g>
		<g>
			<defs>
				
					<rect id="SVGID_3_" x="198.5" y="524.4" transform="matrix(-1 -4.490065e-11 4.490065e-11 -1 628.4039 1323.5593)" width="231.4" height="274.7"/>
			</defs>
			<clipPath id="SVGID_4_">
				<use xlink:href="#SVGID_3_"  style="overflow:visible;"/>
			</clipPath>
			<path class="st1" d="M506,567.5c3.7,0.1,5.1,1.4,5,5c-0.1,8.3,0.1,16.7-0.1,25c-0.1,4.5,0.8,8.5,2.7,12.5
				c6.8,13.8,13.4,27.7,20.1,41.5c7.8,15.9,15.3,32,23.5,47.7c8,15.3,14.7,31.2,22.7,46.5c2.3,4.5,1.9,5.2-3.1,5.2
				c-11.2,0.1-22.3,0-33.5,0c-14.2,0-14-0.1-18.9-13.4c-8.4-23-16.9-46.1-31.7-66c-10.3-13.9-22.9-25.2-40.1-29.8
				c-24.2-6.5-47.3-4.5-68,10.8c-15.2,11.3-25.1,26.9-33.4,43.6c-7.9,16-14,32.8-19.8,49.6c-1.3,3.7-3.2,5.3-7.2,5.2
				c-6.8-0.3-13.7-0.1-20.5-0.1c-7.3,0-14.7-0.1-22,0c-4.2,0.1-5-1.2-3.1-5c5.5-10.8,10.9-21.7,16.2-32.7
				c13.4-27.5,26.2-55.4,40.4-82.6c8.9-16.9,14.6-33.8,12.7-53.3c-1.2-12-0.1-10,9.7-9.9 M360.6,591.9c-4.4,0-6,1.5-5.6,5.8
				c0.2,2.7,1.2,4,3.9,3.9c3.5-0.1,7,0,10.5,0c36.6,0,73.3,0,109.9,0c6.4,0,12.8-0.1,19.2,0c3.3,0.1,5.3-0.6,5.3-4.6
				c0-4-1.6-5.2-5.4-5.2c-23.2,0.1-46.3,0.1-69.5,0.1C406.2,592,383.4,592.1,360.6,591.9z M318.1,743.7c2,0,2.9-0.6,1.6-2.6
				c-1.9-2.9-3.9-5.8-5.8-8.7c-1.1-1.7-2.3-1.5-3.7-0.6c-5.4,3.5-10.8,7-16.2,10.5c0.1,0.5,0.3,0.9,0.4,1.4
				C302.3,743.7,310.2,743.7,318.1,743.7z M547.3,731.3c-1.3-0.8-2.2,0-2.9,1.1c-1.8,2.8-3.6,5.6-5.2,8.4c-1.1,1.8-0.4,2.9,1.7,2.9
				c7.7,0,15.4,0,24.4,0C559,738.5,553.2,734.8,547.3,731.3z M319,725.9c-1.4,0.9-1.5,2.1-0.7,3.4c0.2,0.4,0.5,0.9,0.8,1.2
				c2.2,2.6,3.4,7.9,6.2,7.7c2.8-0.2,3.1-5.6,4.3-8.7c1.6-4,3.1-8,5.1-13.2C328.4,719.3,323.9,722.9,319,725.9z M531.8,737.1
				c0.7,1.9,1.8,2.5,3.1,0.5c0.2-0.3,0.4-0.5,0.6-0.8c7.2-11.5,8.2-7.9-2.9-15.6c-2.4-1.6-4.8-3.2-8.3-5.5
				C527,723.8,529.3,730.4,531.8,737.1z M557.7,716.9c-1-2-1.9-2.1-3-0.2c-0.1,0.1-0.2,0.3-0.3,0.4c-6.5,8.4-6.5,8.5,2.6,14.2
				c3.2,2,6.4,4,9.5,6c0.3-0.3,0.6-0.6,1-0.9C564.2,729.9,560.9,723.4,557.7,716.9z M329,673.1c-0.8,0-2.1,0-2.1,0.9
				c-0.2,3.6,2.4,6,4,8.8c1.1,1.8,2.6,1.7,4.2,0.7c5.1-3.1,10.2-6.1,15.2-9.1c-0.1-0.4-0.2-0.9-0.2-1.3
				C343.1,673.1,336,673.1,329,673.1z M307.5,727.3c1.8-1.2,1.7-2.6,0.6-4.2c-1.8-2.6-3.5-5.2-5.8-8.5c-3.9,7.7-7.4,14.8-11,21.9
				c0.3,0.2,0.5,0.5,0.8,0.7C297.3,733.8,302.4,730.6,307.5,727.3z M523.7,683.5c2.2,1.3,3.5,0.8,4.5-1.8c3.4-8.8,3.3-9-6.6-8.6
				c-4.3,0.1-8.6,0-12.9,0c-0.1,0.3-0.2,0.7-0.2,1C513.6,677.3,518.6,680.4,523.7,683.5z M309.7,711.2c-1.8,0-2.5,0.9-1.5,2.6
				c1.5,2.4,3.1,4.7,4.7,7c0.8,1.2,1.8,1.5,3,0.7c4.8-3,10.1-5.6,15-10.4C323.2,711.1,316.5,711.1,309.7,711.2z M542.7,721.3
				c2.8,1.5,3.4-1.5,4.3-2.9c1.4-2,4.2-4.3,3.2-6.3c-1.1-2.4-4.5-0.9-6.8-1c-4.9-0.2-9.8-0.1-15.7-0.1
				C532.6,715.9,537.7,718.6,542.7,721.3z M322.1,691.6c1.9-1.2,5.1-1.7,4.8-4.4c-0.4-3.4-2.6-6.4-4.9-9c-1.2-1.4-2.1,0.1-2.6,1.1
				c-1.5,2.8-2.9,5.6-4.2,8.4c-1.3,2.9-2.5,6-3.8,8.9c0.3,0.2,0.6,0.4,0.9,0.6C315.5,695.4,318.9,693.6,322.1,691.6z M532.4,688.9
				c4.1,2.5,8.1,5.2,12.4,7.3c2.2,1.1,2.4-1,1.7-2.6c-2.3-4.8-4.6-9.5-7-14.3c-0.5-1-1.3-2.4-2.6-1.1c-2.4,2.6-3.9,5.7-5.4,9.1
				C531.7,687.9,531.9,688.6,532.4,688.9z M333.3,703.8c2.2,0,3.2-0.8,1.9-3.1c-0.8-1.4-1.7-2.9-2.4-4.4c-1.4-2.8-3.2-3.5-6-1.6
				c-4.1,2.7-8.4,5.2-12.6,7.9c0.1,0.4,0.2,0.8,0.3,1.2C320.8,703.8,327,703.8,333.3,703.8z M346.2,637.2c-0.8,0-2.2,0.1-1.9,0.9
				c0.9,3.2,3.3,5.8,5.3,8.3c1.5,1.8,3-0.1,4.3-0.8c4.2-2.4,8.3-4.9,12.4-7.3c-0.1-0.4-0.2-0.8-0.3-1.1
				C359.4,637.2,352.8,637.1,346.2,637.2z M342,653c3.2-1.7,3.5-3.6,1.2-6.2c-1.6-1.8-2.2-5.4-4.7-5.2c-1.9,0.2-2.6,3.6-3.6,5.6
				c-2.1,4.1-4.1,8.3-6.2,12.4c0.3,0.2,0.6,0.5,0.8,0.7C333.7,657.8,337.8,655.3,342,653z M530.9,694.3c-1.8-1.1-3.1-0.8-4.1,1.1
				c-1.2,2.5-4.3,5-3.4,7.3c1,2.5,4.7,1,7.2,1.1c4.5,0,9,0.5,14.1-0.5C540.2,699.3,535.4,697,530.9,694.3z M352.7,665.7
				c0.8,0,2.1-0.3,1.7-1.2c-1.4-2.8-3-5.6-5-8c-1.6-1.9-3.4,0-4.8,0.9c-3.8,2.3-7.6,4.7-11.4,7.1c0.1,0.4,0.1,0.8,0.2,1.2
				C339.9,665.7,346.3,665.7,352.7,665.7z M513.9,657c-2.7-1.9-4.5-1.5-5.9,1.5c-0.6,1.2-1.3,2.3-2.1,3.4c-1.6,2.4-1.7,4,1.9,3.9
				c6-0.1,12,0,18,0c0.1-0.3,0.2-0.6,0.2-0.9C522,662.2,517.9,659.7,513.9,657z M355.9,650.6c-2.3,1.3-2.7,2.8-0.8,4.7
				c1.9,2,2.5,6.1,5.2,5.9c2.4-0.2,2.6-4.2,3.8-6.5c2-3.8,3.8-7.7,5.7-11.5c-0.3-0.2-0.5-0.4-0.8-0.6
				C364.7,645.3,360.3,648,355.9,650.6z M418.4,629.5c-8.8-9.2-9.4-9.2-26.3,0C401.4,629.5,409.7,629.5,418.4,629.5z M515.4,684.4
				c-2.2-1.4-4.5-2.7-7.6-3.4c3.2,6.2,6.4,12.3,9.8,19C524.4,690.2,524.4,690.1,515.4,684.4z M338.6,687.5c-3.1,1.7-3.5,3.7-1.2,6.3
				c1.5,1.7,1.7,4.3,4.2,6c3.2-6.2,6.3-12.4,9.4-18.5c-0.3-0.2-0.7-0.5-1-0.7C346.2,682.9,342.5,685.4,338.6,687.5z M522.4,644.3
				c-0.8-2.4-2.6-2.3-4.1-0.3c-0.5,0.7-1.1,1.2-1.7,1.8c-3.7,4.3-3.6,6.1,1.7,7.8c3.4,1.1,5.8,3,8.2,5.2c0.8,0.8,2,1.2,4.1,2.5
				C528.2,654.6,524.3,649.9,522.4,644.3z M497.7,660.3c0.2,0.4,0.7,1.2,0.9,1.1c3.6-1,4.2-4.7,6.1-7.2c1.4-1.9-0.3-3.4-1.9-3.6
				c-2.3-0.2-3.4-1-4.5-3c-1.6-2.8-5-1.4-7.9-3.3C492.3,650.4,495.2,655.3,497.7,660.3z M493,637.2c0.4,0.8,0.4,1.2,0.6,1.4
				c3.6,2,7.3,3.7,10.7,6.1c2.6,1.9,6.4,1.7,8.2-2.4c0.7-1.5,1.7-2.8,2.8-4.6C507.5,636.7,500.4,637.3,493,637.2z M453.8,622.6
				c-2.8-1.4-4.7,0.6-6.7,2c-1.7,1.2-3.4,2.5-5.3,4c3.8,1.4,18.2,1.6,24.9,0.4C462,626.7,458,624.6,453.8,622.6z M490.6,580.2
				c0.1-4.3-1.7-5.2-5.6-5.3c-5.2-0.2-5.2,2.8-5.4,6.6c-0.4,5,2.9,4.1,6.1,4.1C489.8,586.4,490.5,584,490.6,580.2z M373.5,585.7
				c3.9,0,5.2-1.3,5.2-5.2c0-3.9-1.1-5.8-5.4-5.7c-4,0.1-6.2,1.1-5.2,5.3C367.3,584.8,369.7,585.7,373.5,585.7z M394.8,580.2
				c0.1-4.3-1.7-5.4-5.6-5.4c-4,0-5.2,1.5-5.1,5.3c0,3.9,0.9,6.2,5.3,5.3C393.7,586.3,394.7,584.2,394.8,580.2z M405.6,585.7
				c4,0.1,5.2-1.4,5.2-5.3c0-4-1.2-5.6-5.4-5.6c-4.1,0-5.9,1.5-5.2,5.6C399.2,585,401.8,585.6,405.6,585.7z M421.3,574.8
				c-4.2,0-5.4,1.7-5.4,5.6c0,3.9,1.3,5.3,5.2,5.2c3.8-0.1,6.3-0.8,5.4-5.3C427.3,576.2,425.4,574.9,421.3,574.8z M442.6,580.2
				c0-3.8-1.1-5.4-5.1-5.4c-3.9,0-5.8,1-5.7,5.3c0.1,4,1.1,6.1,5.5,5.3C441.6,586.4,442.6,584.2,442.6,580.2z M458.6,580.6
				c0-3.9-0.9-5.8-5.2-5.7c-4,0.1-5.7,1.3-5.6,5.5c0.1,4,1.2,6.2,5.4,5.2C457.4,586.3,458.6,584.4,458.6,580.6z M474.6,580.1
				c0.1-4.3-1.7-5.3-5.6-5.3c-4.2,0-5.3,1.8-5.4,5.7c0,4.3,1.8,5.7,5.7,5C473.9,586.4,474.5,583.9,474.6,580.1z M485.1,652.6
				c-4.5-14.7-7.4-16.7-21.9-14.9C471.2,641.7,478.5,645.8,485.1,652.6z M434,626.5c2,0.9,3.9-1.9,5.8-3.2c6.6-4.6,6.5-4.6-0.7-8.2
				c-0.6-0.3-1.2-0.5-1.8-0.9c-3.7-2.3-4.6-0.7-4.3,2.9c0.1,1,0,2,0,3.4C433.5,622.3,431.8,625.5,434,626.5z M395.5,637.8
				c-13.6-2.4-14-2.2-20.5,12.7C381,645.2,388,641.5,395.5,637.8z M422.7,625c2.2,1.5,3.1,0.5,3-1.8c-0.1-3.3,1.5-7.7-0.8-9.5
				c-2.3-1.8-5.4,2-8.3,3c-0.9,0.3-1.7,1-3.1,1.8C416.9,620.9,419.8,623,422.7,625z M499.4,585.7c4.2,0,4.4-2.4,4.4-5.5
				c0.1-3.4-0.7-5.4-4.7-5.3c-4.4,0.1-4.1,2.9-4,5.9C494.7,583.9,495.7,585.7,499.4,585.7z M358.8,619.7c1.4-0.7,1.1-1.7,0.3-2.8
				c-4.1-5.7-6.6-5.6-9.6,0.6c-1.1,2.2-2,4.5-3.6,7.9C351.2,624.2,354.8,621.6,358.8,619.7z M467.5,615.4c-1.3-2.9-2.9-3.4-5.3-1.3
				c-1.5,1.3-4.3,1.8-4.2,3.8c0.1,2,2.9,2.3,4.6,3.2c2.8,1.5,5.8,2.9,10,5C470.5,621.6,468.9,618.6,467.5,615.4z M399.7,619.3
				c2.2-1.1,2.2-1.9,0.2-3.4c-6.1-4.7-6.4-4.7-9.7,2.4c-1,2.1-2.4,3.9-2.6,7.1C392.1,623.2,395.9,621.3,399.7,619.3z M360.2,609.4
				c4.6,8.2,6.8,7.9,18.9,0C372.7,609.4,366.5,609.4,360.2,609.4z"/>
		</g>
	</g>
</g>
</svg>
