<?xml version="1.0" encoding="utf-8"?>
<!-- Generator: Adobe Illustrator 19.2.0, SVG Export Plug-In . SVG Version: 6.00 Build 0)  -->
<!DOCTYPE svg PUBLIC "-//W3C//DTD SVG 1.1//EN" "http://www.w3.org/Graphics/SVG/1.1/DTD/svg11.dtd">
<svg version="1.1" id="Ebene_1" xmlns="http://www.w3.org/2000/svg" xmlns:xlink="http://www.w3.org/1999/xlink" x="0px" y="0px"
	 viewBox="0 0 3000 3000" style="enable-background:new 0 0 3000 3000;" xml:space="preserve">
<g id="QJ8M3z.tif">
	
		<image style="overflow:visible;" width="960" height="1200" id="Layer_0_1_" xlink:href="187310F3BAC307E1.png"  transform="matrix(1.8718 0 0 1.8718 -3572.1421 -497.7501)">
	</image>
</g>
<rect x="-1728.4" y="300.4" width="13.2" height="136.1"/>
<path d="M-2321,334.8l-302.2,217.4v4.9l-27,20.3c-5.6-6.7-14-11-23.5-11c-10.2,0-19.2,5-24.7,12.6l-35-24.5l3.2-6.5l-175.1-120
	l-30.6-8.9l17.4,27.4l178,118.9l3.2-5.7l35.5,25.3c-1.5,3.6-2.4,7.6-2.4,11.9c0,16.9,13.7,30.5,30.5,30.5s30.5-13.7,30.5-30.5
	c0-5.9-1.7-11.4-4.6-16.1l27.8-20.5l5.1,1.8l303.6-216.6l15-17.8L-2321,334.8z"/>
<g id="b2TBeM.tif">
	<g>
		<path d="M840.6,2025.5c-0.5-9.7,11.1-38,16.4-41.4c13.2-8.5,16.3-18.2,16.3-32.8c-0.4-173.6-0.3-347.2-0.2-520.8
			c0-8.2-1.7-12.8-9.9-18.5c-11.6-8.1-19.4-21.9-17.8-38.3c0.9-8.9,7.2-8.6,12.9-8c11.9,1.3,15.3-3.8,14.9-15.1
			c-0.8-20.2-0.5-40.5-0.2-60.7c0.1-7.7-3-11.4-10.4-10.4c-21.2,3-35.2-11.3-51-21.1c-3.9-2.4-6.4-27.9-3.6-33.7
			c3.6-7.2,10.5-3.7,15.8-3.9c14.7-0.5,29.5-0.2,44.2-0.2c5.4,0,10.5-0.4,10.7-7.5c0.2-7.8,4.8-10.1,11.7-9.6
			c8.3,0.6,11.5-3.4,11-11.4c-0.3-5-0.1-10.1,0-15.2c0.1-5.7-1.5-8.9-7.9-10.7c-13-3.7-21-29.5-12.8-39.9c3.6-4.7,9.3-3.4,14.2-3.4
			c35-0.1,69.9-0.1,104.9-0.1c110,0,220,0,330,0c2.1,0,4.2,0,6.3-0.1c5.3-0.1,9.2-2.4,9.4-8c0.2-5.2-0.3-10.9-7.3-11.1
			c-7.6-0.2-7.8-4.9-7.4-10.3c0.5-6.9,5.9-6.1,10.4-6.1c16.9-0.2,33.7,0,50.6-0.2c4,0,9.1,1.5,11.4-3.2c2.3-4.8-1.1-8.8-3.5-12.7
			c-2.5-4-6.1-6.9-10.1-9.4c-6.2-3.9-11.7-8.2-14-15.6c-0.9-2.8-2.3-5.9-6-5.3c-4.7,0.8-4.1,4.9-3.9,8.1c0.5,6.3,2,12.4,4.9,18.2
			c2.6,5.1,3.3,10.2-3,12.7c-6.6,2.6-11.4-1.7-12.1-7.5c-2-15.4-8.7-34.1-2.6-45.6c8.4-15.8-1.4-32.5,9.1-47c4.4-6.1-4.7-14-9-19.4
			c-7.4-9.4-9.9-18.9-9.1-30.4c0.5-7,0.1-14.5-2-21.2c-2.2-7.1-2.7-11.3,6.2-12.2c4.9-0.4,7.1-8.9,12.9-5.5c7.5,4.4,16,8,20.8,16
			c7.6,12.7,14.6,25.5,19.3,39.7c11.6,35.1,8.5,29,41.1,29c22.8,0,33.3-10.4,35-33.9c0.8-10.9,1.7-22-1.5-32.7
			c-2.7-9.1,4.5-16.9,2.9-25.9c-0.5-2.6,4.7-4.7,5.3-3.2c4.9,10.8,16.5-9.9,21,5.2c5.2,17.3,4.7,34.2,2.5,51.7
			c-1.7,13.7,3.4,26.5,10.2,38.5c1.2,2,2.9,4.7,6,3.2c2.2-1.1,2-3.7,1.5-5.6c-7.3-25.8,5-46.7,16.3-68c6.3-11.8,5.7-23.7,4.6-37.2
			c-1.1-13.4-7.1-18.4-15.8-25.5c-13.1-10.7-14.6-30.2-4-43.3c7.6-9.4,5.9-17.8,0.5-26.5c-7.2-11.4-15-22.4-17.5-36.1
			c-1-5.2-4.6-12,0.2-15.4c5.4-3.9,9.8,2.7,13.8,5.9c7.1,5.7,14.6,11.2,19.4,20.8c1.5-7.8,0-16.2,9.2-17.2
			c8.2-0.9,10.3,5.6,11.7,12.8c8.1-6.9,16.1-13.4,23.7-20.4c2.4-2.2,4.3-3.9,7.6-2.8c3.8,1.3,3.3,4.6,3.1,7.4
			c-0.7,11.1-4.1,21.4-10,30.9c-3.3,5.4-7.3,10.4-9.9,16.1c-4,8.8-6.6,17.2-0.1,27.1c9.3,14,6.9,31-6.9,40.6
			c-14.4,10-12,24.3-12.7,37.4c-0.3,7.1,7.8,12.5,15.1,14.4c17.3,4.5,21.6,13.1,13.5,29.4c-2,4.1-5.6,8-0.8,12.3
			c4.2,3.8,8.6,6.5,11.3-1.6c1.3-3.8,1-8.8,6.7-9.4c6.4-0.7,8.4,4.3,11.9,11.8c0-6.3,1.2-10.4-0.2-13c-8-14.4,3.2-26.7,3.8-40
			c0.1-2.9,2.8-4.9,5.4-3.7c5.2,2.3,9.7,4,15,0c2.1-1.6,5.8,0.8,5.4,3.4c-1.4,10.1,4.4,19.3,2.2,29.8c-3.2,14.9-3.3,30.1,2.8,44.7
			c3.4,8.1,8.8,12.7,18,13.3c13,0.8,26.1,2.1,38.9,4c9.7,1.5,14.9-2.2,18.1-11.1c6.2-17.4,11.8-35.1,20.9-51.4
			c5.6-9.9,13.9-15.6,23.2-20.6c8.5-4.5,12.9,5.6,20.1,7c4,0.8,1.9,6.4,1,10.1c-0.8,3.3-1.2,6.6-1.3,10
			c-0.7,18.1-2.3,35.9-16.9,49.2c-4.7,4.3-4.6,9.2-1.5,14.7c4.8,8.4,6.2,17.4,3.2,26.8c-0.7,2.4-1.8,5.1,0,7.3
			c14.3,17.6,3,36.6,2.8,54.9c-0.1,6.5-6,10.5-13,7.7c-7.5-3-5.3-8.3-1.9-13.3c4.5-6.4,3.1-13.8,3.5-20.8c0.1-2.2-0.8-4.3-3.2-4.8
			c-2.3-0.5-4.3,0.5-4.9,2.8c-2.4,11.1-12.2,15.6-19.7,22.1c-3.2,2.8-6.7,5.3-8.2,9.4c-2.4,7.2-2.1,12.3,7.8,12
			c16.8-0.4,33.7-0.2,50.6,0c5.3,0.1,11.7-1.1,13.3,6.4c1.6,7.4-3.2,9-9.3,10.3c-6.3,1.4-4.5,7.1-4.5,11.6c0,4.6,2.8,6.9,7.2,7
			c5.5,0.2,11,0.3,16.4,0.3c140.8,0,281.5-0.1,422.3,0.2c6.9,0,17.1-4.6,19.1,8.2c3.4,21.7,0.4,31.7-13,34.7
			c-8.4,1.9-9.9,6-9.6,13.1c0.3,4.6,0.3,9.3,0,13.9c-0.5,7.5,2.8,11,10.3,10.7c7-0.3,12.5,1.1,12.5,10.1c0,7.5,5.8,7,10.9,7
			c16.9,0.1,33.7,0.4,50.6-0.1c9-0.3,12.5,3.1,11.1,11.8c-1.3,8.5,4.1,19.3-4.3,25c-13.2,9.1-25.1,21.7-43,22.1
			c-18.2,0.4-18.2,0.5-18.2,18.4c0,18.5,0.2,37.1-0.1,55.6c-0.1,8.5,3,11.9,11.8,12.2c15.1,0.4,20.8,9.2,13.6,23.1
			c-5.1,9.9-8.1,22.6-21.5,26.4c-3.4,0.9-3.6,4.4-3.7,7.4c-0.1,4.2-0.1,8.4-0.1,12.6c0,173.2,0.1,346.4-0.2,519.6
			c0,13.6,3.2,22.5,16.3,28.9c17.5,8.5,19.2,25.8,19.2,43.1 M1672.3,1724.5c0-78.8-0.3-157.5,0.3-236.3c0.1-13.1-4.1-16.3-16.6-16.2
			c-62.3,0.6-124.7,0.2-187,0.3c-17.5,0-17.6,0-17.6,17.2c0,151.2,0,302.4,0,453.7c0,15.5-2.5,30.8,14.8,41.5c6,3.7,10.6,7.8,18,7.8
			c46.8-0.1,93.5-0.1,140.3,0c14.9,0.1,28.1,0.6,39.4-14.3c5.6-7.4,8.5-12.9,8.5-21.1C1672.3,1879.5,1672.3,1802,1672.3,1724.5z
			 M1884.9,1723.6c0-78.3-0.2-156.7,0.3-235c0.1-12.4-2.8-17.2-16.1-16.7c-26.5,1-53.1,0.3-79.6,0.3c-17.2,0-17.3,0.1-17.3,17.7
			c0,99.4,0,198.8,0,298.2c0,57.3,0,114.5,0.1,171.8c0,4.8-1.1,9.9,3.3,14.2c18.7,18.1,18.6,18.2,46.8,18.2c10.1,0,20.2,0.1,30.3,0
			c15.5-0.1,32.2-16.9,32.2-32.4C1884.9,1881.2,1884.9,1802.4,1884.9,1723.6z M1351.3,1724.7
			C1351.4,1724.7,1351.4,1724.7,1351.3,1724.7c0.1-79.2-0.1-158.3,0.3-237.5c0.1-11.3-3.1-15.7-15-15.3c-24,0.8-48,0.2-72,0.2
			c-16,0-16.3,0.4-16.3,16.2c0,154.9,0,309.9-0.1,464.8c0,26.1,12.7,39.1,38.5,39.1c10.1,0,20.2,0,30.3,0
			c16.2-0.1,34.3-17.9,34.3-33.9C1351.4,1880.5,1351.3,1802.6,1351.3,1724.7z M2035.5,1723.2
			C2035.5,1723.2,2035.5,1723.2,2035.5,1723.2c0,75.4,0.9,150.7-0.7,226.1c-0.4,19,7.7,30,20,40.9c3.1,2.7,6.5,2.3,8.7-1
			c1.9-2.9,3.7-5.1,7.1-6.7c9.9-4.5,14.6-11.7,14.6-23.5c-0.3-151.6-0.1-303.1-0.2-454.7c0-32.3-0.2-31.8-33.1-32.4
			c-12.6-0.2-16.6,3.3-16.5,16.3C2035.8,1566.5,2035.5,1644.9,2035.5,1723.2z M1046.9,1723.4c0,78.7,0,157.5,0.1,236.2
			c0,5.2-1.4,10.5,3.8,15.1c6.1,5.3,15,7.3,18.4,15.9c0.9,2.3,5.4,2.2,6.8,0.3c8.1-11,20.9-17.3,20.7-35.7c-1.4-96-0.4-192-0.4-288
			c0-60.6-0.3-121.3-0.1-181.9c0-9.8-3-14-13.1-13.2c-7.5,0.6-15.2,0.6-22.7,0c-10.5-0.9-13.7,3.4-13.7,13.8
			C1047.1,1565.1,1046.9,1644.2,1046.9,1723.4z M1647.9,1066.6c0.9,3-1.6,8.1,4.7,6.6c6.1-1.4,27.7-27.6,26.6-33.8
			c-2-11.6,1.1-21.6,6.8-31.2c1.3-2.2,2.5-4-0.7-6.3c-9.8-7.1-19.1-3.7-21.7,7.9c-1.5,6.5-3.7,12.9-5.4,19.4
			C1655,1041.8,1649.5,1053.8,1647.9,1066.6z M1477.5,1069.3c-6.2-20.7-11.9-38.2-16.7-55.9c-4.6-17.2-6.4-18.7-24.6-16.5
			c11,9.7,20.1,21.5,17.1,36C1449.1,1053.3,1463.9,1058.2,1477.5,1069.3z M1613.9,1086.9c8.6,0.6,16.7,0.8,15.6-11.7
			c-0.7-9-0.3-18.7-12.8-19.2c-9.1-0.3-14.5,8.3-15.5,22.2C1600.6,1089,1608.2,1086.4,1613.9,1086.9z M1505.6,1087
			c8.3-0.1,15.8,1.2,15.6-10.3c-0.3-12.7-5.8-21.6-15-20.6c-11.4,1.2-11.4,10.2-12.1,18.9C1493.2,1084.7,1497.7,1088.1,1505.6,1087z
			 M1650.8,1085.1c10.9,0.5,23.4,6.8,31.3-1.7c6.7-7.2,4.7-18.6-0.2-29.4C1671.4,1065,1662.1,1075.6,1650.8,1085.1z M1710.9,983.4
			c-13-4.6-25.8-3.2-38-5.9c-3.1-0.7-7.2-1.3-8.2,3.2c-0.7,3.4,0.7,6.6,3.6,8.8C1680.5,999,1700.2,996.4,1710.9,983.4z
			 M1462.6,1086.9c4.6-0.7,11.1,2.4,13.6-3.1c3-6.6-4.6-8.7-7.9-12.5c-1.9-2.2-4.2-4.4-6.8-5.4c-4-1.6-6.5-8.4-11.5-5.2
			c-5.2,3.3-3.8,9.6-3.2,15C1447.9,1085.4,1453.5,1088.4,1462.6,1086.9z"/>
	</g>
</g>
</svg>
