<?xml version="1.0" encoding="utf-8"?>
<!-- Generator: Adobe Illustrator 19.2.0, SVG Export Plug-In . SVG Version: 6.00 Build 0)  -->
<!DOCTYPE svg PUBLIC "-//W3C//DTD SVG 1.1//EN" "http://www.w3.org/Graphics/SVG/1.1/DTD/svg11.dtd">
<svg version="1.1" id="Ebene_1" xmlns="http://www.w3.org/2000/svg" xmlns:xlink="http://www.w3.org/1999/xlink" x="0px" y="0px"
	 viewBox="0 0 850.4 850.4" style="enable-background:new 0 0 850.4 850.4;" xml:space="preserve">
<style type="text/css">
	.st0{fill:#FFFFFF;}
</style>
<g id="CkalXF.tif">
	<g>
		<path class="st0" d="M527.5,731.2c0-2.8,0-5.3,0-7.9c0-64.5,0-129.1,0-193.6c0-52.2,0-104.4,0-156.7c0-11.6,0.1-23.2,0-34.8
			c0-7,0-14.1-0.5-21c-0.4-6.2-3.4-8.9-9.6-9.6c-2.1-0.2-4.2-0.4-6.3-0.4c-61.4,0-122.9,0-184.3,0c-2.5,0-4.9,0.2-7.4,0.5
			c-4.5,0.6-7.7,3-8.7,7.5c-0.7,2.8-1.1,5.8-1.1,8.6c-0.1,14.8,0,29.6,0,44.3c0,70.3,0,140.6,0,210.9c0,49.6,0,99.1,0,148.7
			c0,1.1,0,2.1,0,3.3C382.3,731.2,454.7,731.2,527.5,731.2z M304.5,731.3c0-1.6,0-2.7,0-3.9c0-65.2,0-130.4,0.1-195.6
			c0-61.7,0.1-123.4,0.1-185.1c0-9.2,0-18.4,0.4-27.6c0.4-8.2,4.5-13.7,11.2-15.6c3-0.8,6.3-1.2,9.5-1.2c15-0.1,29.9-0.1,44.9-0.1
			c47,0,94,0,141,0c2.5,0,5.1,0.2,7.6,0.6c6,0.8,10.6,3.9,11.9,10.1c1,4.8,1.3,9.9,1.5,14.9c0.3,9.8,0.3,19.5,0.3,29.3
			c0,11.5-0.3,23-0.3,34.5c-0.1,53.3-0.1,106.6-0.1,159.9c0,57.2,0,114.3-0.1,171.5c0,2.7,0,5.4,0,8.4c3.7,0,7.2,0.3,10.6-0.1
			c1.5-0.2,3.3-1.5,4.1-2.8c0.9-1.5,1.2-3.6,1.2-5.4c0.1-68.3,0-136.6,0-204.9c0-54.3,0-108.7,0-163c0-5.7-0.1-11.5-0.1-17.2
			c0-15.7,0.1-31.4,0.1-47.1c0-3.6-2.3-6-5.8-6.4c-3.5-0.5-5.6-2.6-5.6-6.2c-0.1-8.1-0.1-16.3,0-24.4c0-3.5,2.2-5.8,5.6-6.4
			c4.2-0.7,5.9-2.7,5.9-7.1c0-5.4-0.2-10.8,0-16.2c0.5-13.3-4.6-24.4-13.4-34c-11.4-12.4-25.6-20.2-41.1-26.3
			c-18.3-7.2-37.4-11.1-56.9-12.5c-32.4-2.4-64.2,0.9-94.7,12.7c-13.9,5.4-26.7,12.6-37.5,23.1c-8.3,8-14.7,17.5-15.8,29.2
			c-0.8,8.5-0.4,17.1-0.3,25.7c0,2.9,2.2,4.7,5.4,5.3c3.7,0.7,5.9,2.8,5.9,6.3c0.1,8.2,0.1,16.4,0,24.7c0,3-2,5.4-4.4,5.9
			c-6.1,1.4-7,2.5-7,8.9c0,30.6,0,61.2,0,91.7c0,111.4,0,222.8,0,334.2c0,2.1,0,4.2,0,6.3c0.1,3.2,2.5,5.8,5.7,6
			C297.6,731.4,300.9,731.3,304.5,731.3z"/>
		<path d="M527.5,731.2c-72.8,0-145.2,0-217.9,0c0-1.2,0-2.3,0-3.3c0-49.6,0-99.1,0-148.7c0-70.3,0-140.6,0-210.9
			c0-14.8-0.1-29.6,0-44.3c0-2.9,0.4-5.8,1.1-8.6c1.1-4.5,4.3-6.9,8.7-7.5c2.4-0.3,4.9-0.5,7.4-0.5c61.4,0,122.9,0,184.3,0
			c2.1,0,4.2,0.2,6.3,0.4c6.1,0.7,9.1,3.4,9.6,9.6c0.5,7,0.5,14,0.5,21c0.1,11.6,0,23.2,0,34.8c0,52.2,0,104.4,0,156.7
			c0,64.5,0,129.1,0,193.6C527.5,725.9,527.5,728.4,527.5,731.2z M391.8,632c18,0,35.5,0,53.3,0c0-23.8,0-47.3,0-70.9
			c-17.9,0-35.5,0-53.3,0C391.8,584.7,391.8,608.2,391.8,632z M381.6,632c0-23.9,0-47.4,0-71.3c-17.5,0-34.6,0-51.8,0
			c-1.7,0-2,0.8-2,2.2c0.1,3.6,0.1,7.1,0.1,10.7c0,15.6,0,31.2,0,46.8c0,6.3,4.6,11.5,10.8,11.6C353,632.1,367.2,632,381.6,632z
			 M455.2,631.7c0.6,0.1,0.9,0.3,1.2,0.3c13.8,0,27.6,0.1,41.3,0c6.5-0.1,11.2-5.3,11.2-12c0.1-18.9,0.1-37.8,0.2-56.7
			c0-1.8-0.4-2.6-2.4-2.6c-16.2,0.1-32.5,0.1-48.7,0.2c-0.9,0-1.7,0.1-2.8,0.1C455.2,584.8,455.2,608.2,455.2,631.7z M391.8,325.2
			c0,23.7,0,47,0,70.5c1.1,0.1,1.9,0.1,2.8,0.1c15.9,0,31.7,0,47.6,0.1c2.5,0,3-0.8,3-3.1c-0.1-21.5-0.1-43.1,0-64.6
			c0-2.6-0.8-3.2-3.3-3.2c-15.8,0.1-31.6,0-47.3,0C393.8,325.1,392.9,325.2,391.8,325.2z M381.6,395.8c0-23.7,0-47.1,0-70.7
			c-1.3,0-2.4,0-3.4,0c-11.9-0.1-23.7-0.2-35.6-0.3c-7.5-0.1-12.1,2.1-14,8.4c-0.6,1.8-0.5,3.9-0.5,5.9c0,18,0,36,0,53.9
			c0,0.9,0.1,1.8,0.2,2.8C346.1,395.8,363.8,395.8,381.6,395.8z M455.3,395.7c18,0,35.7,0,53.6,0c0-1.3,0-2.3,0-3.3
			c0-18.2-0.2-36.5,0.1-54.7c0.1-8-6.2-12.8-12.6-12.7c-12.8,0.2-25.5,0.1-38.3,0.1c-0.9,0-1.8,0.1-2.8,0.2
			C455.3,348.8,455.3,372.1,455.3,395.7z M508.8,551c0-22.7,0-45.1,0-67.7c-17.9,0-35.7,0-53.4,0c0,22.6,0,45.1,0,67.7
			C473.3,551,491,551,508.8,551z M328.1,550.9c18.1,0,35.8,0,53.6,0c0-22.7,0-45.1,0-67.5c-17.9,0-35.6,0-53.6,0
			C328.1,505.9,328.1,528.3,328.1,550.9z M391.8,550.8c17.9,0,35.5,0,53.3,0c0.1-0.7,0.2-1.2,0.2-1.8c0-21.2,0-42.3,0.1-63.5
			c0-2.3-1-2.4-2.8-2.4c-16,0-31.9,0-47.9,0c-0.9,0-1.8,0.1-2.8,0.2C391.8,505.9,391.8,528.2,391.8,550.8z M508.8,405.7
			c-18,0-35.7,0-53.5,0c0,22.7,0,45,0,67.6c18,0,35.7,0,53.5,0C508.8,450.7,508.8,428.4,508.8,405.7z M445.3,473.3
			c0-22,0-43.6,0-65.2c0-2.2-0.9-2.5-2.8-2.5c-16,0-31.9,0-47.9,0c-0.9,0-1.8,0.1-2.8,0.2c0,22.7,0,45.1,0,67.5
			C409.7,473.3,427.4,473.3,445.3,473.3z M381.7,473.3c0-22.6,0-45.1,0-67.5c-18,0-35.7,0-53.4,0c0,22.7,0,45.1,0,67.5
			C346.2,473.3,363.9,473.3,381.7,473.3z M418.6,646.7C418.6,646.7,418.6,646.7,418.6,646.7c-2,0-4,0-6,0c-23.7,0-47.5,0-71.2,0.1
			c-8.3,0-13.4,5.3-13.4,13.6c0,11,0,21.9,0,32.9c0,8.6,5.2,13.8,13.8,13.9c8.8,0,17.5,0,26.3,0c42,0,83.9-0.1,125.9,0.1
			c9,0,15.5-5.6,15.1-15.2c-0.4-10.2-0.4-20.5,0-30.7c0.3-7.9-5-14.9-14.7-14.8C469.2,647,443.9,646.7,418.6,646.7z"/>
		<path d="M304.5,731.3c-3.7,0-6.9,0.1-10.2,0c-3.2-0.2-5.5-2.7-5.7-6c-0.1-2.1,0-4.2,0-6.3c0-111.4,0-222.8,0-334.2
			c0-30.6,0-61.2,0-91.7c0-6.4,0.9-7.5,7-8.9c2.4-0.6,4.4-2.9,4.4-5.9c0.1-8.2,0.1-16.4,0-24.7c-0.1-3.6-2.2-5.7-5.9-6.3
			c-3.2-0.6-5.4-2.4-5.4-5.3c-0.1-8.6-0.5-17.2,0.3-25.7c1.1-11.8,7.5-21.2,15.8-29.2c10.8-10.4,23.6-17.7,37.5-23.1
			c30.5-11.8,62.3-15.1,94.7-12.7c19.5,1.4,38.6,5.3,56.9,12.5c15.5,6.1,29.7,13.9,41.1,26.3c8.8,9.6,13.8,20.7,13.4,34
			c-0.2,5.4,0,10.8,0,16.2c0,4.4-1.7,6.4-5.9,7.1c-3.4,0.6-5.5,2.9-5.6,6.4c-0.1,8.1-0.1,16.3,0,24.4c0,3.5,2.2,5.7,5.6,6.2
			c3.5,0.5,5.8,2.8,5.8,6.4c0,15.7-0.1,31.4-0.1,47.1c0,5.7,0.1,11.5,0.1,17.2c0,54.3,0,108.7,0,163c0,68.3,0,136.6,0,204.9
			c0,1.8-0.3,3.9-1.2,5.4c-0.8,1.3-2.6,2.6-4.1,2.8c-3.4,0.4-6.9,0.1-10.6,0.1c0-2.9,0-5.7,0-8.4c0-57.2,0-114.3,0.1-171.5
			c0-53.3,0.1-106.6,0.1-159.9c0-11.5,0.3-23,0.3-34.5c0-9.8,0-19.5-0.3-29.3c-0.1-5-0.4-10-1.5-14.9c-1.3-6.1-5.9-9.2-11.9-10.1
			c-2.5-0.4-5.1-0.6-7.6-0.6c-47,0-94,0-141,0c-15,0-29.9-0.1-44.9,0.1c-3.2,0-6.4,0.4-9.5,1.2c-6.7,1.8-10.8,7.4-11.2,15.6
			c-0.4,9.2-0.4,18.4-0.4,27.6c-0.1,61.7-0.1,123.4-0.1,185.1c0,65.2,0,130.4-0.1,195.6C304.5,728.5,304.5,729.7,304.5,731.3z
			 M418.5,280.6c11.3,0,22.6,0,33.9,0c21.2,0,42.4,0,63.5,0c4.1,0,5.3-1.2,5.3-5.2c0-5.7,0-11.3,0-17c0-5-1-6-5.9-6
			c-35.2,0-70.4,0-105.7,0c-29.6,0-59.2,0-88.7,0c-3.6,0-5.2,1.1-5.2,4.1c-0.1,6.8-0.1,13.5,0,20.3c0,2.3,1.5,3.6,3.9,3.7
			c1,0,2,0,3,0C354.6,280.6,386.6,280.6,418.5,280.6z M418.6,228.3c8.7,0,17.3,0,26,0c27.5,0,55,0,82.4,0c3.6,0,4-0.4,3.9-3.9
			c-0.1-7-2.8-13-6.9-18.4c-8.8-11.5-20.9-18.4-34.1-23.9c-18.3-7.6-37.6-11.2-57.2-12.4c-27.7-1.7-54.9,1-81.1,10.6
			c-12,4.4-23.3,10.1-32.6,19c-7,6.6-12.2,14.3-12.8,24.3c-0.3,4.2,0.1,4.6,4.3,4.6C346.5,228.3,382.5,228.3,418.6,228.3z
			 M418.5,289.1c-34.2,0-68.4,0-102.6,0c-1.2,0-2.4-0.1-3.5,0.2c-0.8,0.2-1.5,1.1-2.2,1.7c0.7,0.7,1.2,1.5,2,1.9
			c0.9,0.4,2,0.3,3,0.3c21.8,0,43.6,0,65.4,0c28.2,0,56.4,0,84.6,0c18.7,0,37.4,0,56.1,0c1.5,0,3.1-0.2,4.5-0.8c1.7-0.7,1.6-2,0-2.7
			c-1.2-0.5-2.6-0.6-4-0.6C487.3,289.1,452.9,289.1,418.5,289.1z M418.5,241.4c-4.4,0-8.7,0-13.1,0c-29.9,0-59.7,0-89.6,0
			c-1.1,0-2.3-0.2-3.3,0.2c-0.9,0.3-1.7,1.2-2.5,1.8c0.8,0.7,1.5,1.7,2.4,1.9c2,0.3,4,0.3,6,0.3c36.5,0,73,0,109.5,0
			c31,0,62.1,0,93.1,0c1.5,0,3.1-0.3,4.5-0.7c0.5-0.1,1.1-1,1.1-1.6c0-0.4-0.7-1.1-1.2-1.3c-1.3-0.3-2.7-0.5-4-0.5
			C487.2,241.4,452.9,241.4,418.5,241.4z"/>
		<path class="st0" d="M391.8,632c0-23.8,0-47.3,0-70.9c17.8,0,35.4,0,53.3,0c0,23.6,0,47.1,0,70.9C427.3,632,409.7,632,391.8,632z"
			/>
		<path class="st0" d="M381.6,632c-14.5,0-28.6,0.1-42.7-0.1c-6.2-0.1-10.8-5.2-10.8-11.6c0-15.6,0-31.2,0-46.8
			c0-3.6-0.1-7.1-0.1-10.7c0-1.4,0.3-2.2,2-2.2c17.1,0,34.3,0,51.8,0C381.6,584.6,381.6,608.1,381.6,632z"/>
		<path class="st0" d="M455.2,631.7c0-23.5,0-47,0-70.7c1-0.1,1.9-0.1,2.8-0.1c16.2-0.1,32.5-0.1,48.7-0.2c2,0,2.4,0.8,2.4,2.6
			c-0.1,18.9-0.1,37.8-0.2,56.7c0,6.8-4.7,12-11.2,12c-13.8,0.1-27.6,0-41.3,0C456.1,632,455.9,631.9,455.2,631.7z"/>
		<path class="st0" d="M391.8,325.2c1.1-0.1,2-0.1,2.9-0.1c15.8,0,31.6,0,47.3,0c2.4,0,3.3,0.5,3.3,3.2c-0.1,21.5-0.1,43.1,0,64.6
			c0,2.3-0.5,3.1-3,3.1c-15.9-0.1-31.7-0.1-47.6-0.1c-0.9,0-1.8-0.1-2.8-0.1C391.8,372.2,391.8,348.9,391.8,325.2z"/>
		<path class="st0" d="M381.6,395.8c-17.8,0-35.5,0-53.4,0c-0.1-1-0.2-1.9-0.2-2.8c0-18,0-36,0-53.9c0-2-0.1-4.1,0.5-5.9
			c1.9-6.2,6.5-8.4,14-8.4c11.9,0.1,23.7,0.2,35.6,0.3c1.1,0,2.2,0,3.4,0C381.6,348.7,381.6,372,381.6,395.8z"/>
		<path class="st0" d="M455.3,395.7c0-23.6,0-46.9,0-70.5c1-0.1,1.9-0.2,2.8-0.2c12.8,0,25.5,0.2,38.3-0.1
			c6.4-0.1,12.7,4.8,12.6,12.7c-0.3,18.2-0.1,36.5-0.1,54.7c0,1,0,2,0,3.3C491,395.7,473.3,395.7,455.3,395.7z"/>
		<path class="st0" d="M508.8,551c-17.8,0-35.4,0-53.4,0c0-22.6,0-45,0-67.7c17.7,0,35.4,0,53.4,0
			C508.8,505.9,508.8,528.3,508.8,551z"/>
		<path class="st0" d="M328.1,550.9c0-22.5,0-44.9,0-67.5c17.9,0,35.7,0,53.6,0c0,22.5,0,44.9,0,67.5
			C363.9,550.9,346.2,550.9,328.1,550.9z"/>
		<path class="st0" d="M391.8,550.8c0-22.6,0-44.9,0-67.5c1-0.1,1.9-0.2,2.8-0.2c16,0,31.9,0,47.9,0c1.8,0,2.8,0.1,2.8,2.4
			c-0.1,21.2-0.1,42.3-0.1,63.5c0,0.5-0.1,1.1-0.2,1.8C427.3,550.8,409.7,550.8,391.8,550.8z"/>
		<path class="st0" d="M508.8,405.7c0,22.7,0,45,0,67.6c-17.8,0-35.5,0-53.5,0c0-22.5,0-44.9,0-67.6
			C473.1,405.7,490.8,405.7,508.8,405.7z"/>
		<path class="st0" d="M445.3,473.3c-17.9,0-35.5,0-53.5,0c0-22.4,0-44.9,0-67.5c1.1-0.1,2-0.2,2.8-0.2c16,0,31.9,0,47.9,0
			c1.9,0,2.8,0.3,2.8,2.5C445.2,429.7,445.3,451.3,445.3,473.3z"/>
		<path class="st0" d="M381.7,473.3c-17.8,0-35.5,0-53.4,0c0-22.5,0-44.9,0-67.5c17.6,0,35.4,0,53.4,0
			C381.7,428.2,381.7,450.6,381.7,473.3z"/>
		<path class="st0" d="M418.6,646.7c25.3,0,50.5,0.2,75.8-0.1c9.6-0.1,15,6.8,14.7,14.8c-0.4,10.2-0.4,20.5,0,30.7
			c0.4,9.6-6.1,15.3-15.1,15.2c-42-0.2-83.9-0.1-125.9-0.1c-8.8,0-17.5,0-26.3,0c-8.5,0-13.8-5.3-13.8-13.9c0-11,0-21.9,0-32.9
			c0-8.3,5.1-13.6,13.4-13.6c23.7-0.1,47.5,0,71.2-0.1C414.6,646.7,416.6,646.7,418.6,646.7C418.6,646.7,418.6,646.7,418.6,646.7z
			 M418.6,651.8c-25.6,0-51.3,0-76.9,0c-5.8,0-8.5,2.8-8.5,8.6c0,11,0,21.9,0,32.9c0,5.8,3.1,8.8,9,8.8c9.8,0,19.5,0,29.3,0
			c41.1,0,82.1,0,123.2,0c6.3,0,9.2-2.9,9.2-9.1c0-10.5,0-21,0-31.5c0-7.2-2.4-9.7-9.7-9.7C469,651.8,443.8,651.8,418.6,651.8z"/>
		<path class="st0" d="M418.6,228.3c-36.1,0-72.1,0-108.2,0c-4.1,0-4.5-0.4-4.3-4.6c0.6-10,5.8-17.7,12.8-24.3
			c9.4-8.9,20.6-14.6,32.6-19c26.2-9.6,53.4-12.2,81.1-10.6c19.7,1.2,38.9,4.8,57.2,12.4c13.2,5.4,25.2,12.3,34.1,23.9
			c4.1,5.4,6.8,11.4,6.9,18.4c0.1,3.5-0.3,3.9-3.9,3.9c-27.5,0-55,0-82.4,0C435.9,228.3,427.2,228.3,418.6,228.3z M311.1,223.2
			c71.8,0,143.2,0,214.6,0c-0.2-6.2-4.1-13.8-9.7-19.2c-10.9-10.6-24.2-16.7-38.4-21.2c-18.1-5.7-36.6-8.2-55.5-8.4
			c-26.5-0.3-52.4,3.1-76.9,13.8c-10.1,4.4-19.4,10.1-26.7,18.7C314.5,211.5,311.7,216.7,311.1,223.2z"/>
		<path class="st0" d="M418.5,289.1c34.4,0,68.8,0,103.2,0c1.3,0,2.8,0.1,4,0.6c1.6,0.7,1.7,2.1,0,2.7c-1.4,0.6-3,0.8-4.5,0.8
			c-18.7,0.1-37.4,0-56.1,0c-28.2,0-56.4,0-84.6,0c-21.8,0-43.6,0-65.4,0c-1,0-2.1,0-3-0.3c-0.8-0.3-1.4-1.2-2-1.9
			c0.7-0.6,1.4-1.5,2.2-1.7c1.1-0.3,2.3-0.2,3.5-0.2C350.1,289.1,384.3,289.1,418.5,289.1z"/>
		<path class="st0" d="M418.5,241.4c34.3,0,68.6,0,103,0c1.3,0,2.7,0.2,4,0.5c0.5,0.1,1.2,0.9,1.2,1.3c-0.1,0.6-0.6,1.5-1.1,1.6
			c-1.5,0.4-3,0.7-4.5,0.7c-31,0-62.1,0-93.1,0c-36.5,0-73,0-109.5,0c-2,0-4,0.1-6-0.3c-0.9-0.2-1.6-1.2-2.4-1.9
			c0.8-0.6,1.6-1.5,2.5-1.8c1-0.3,2.2-0.2,3.3-0.2c29.9,0,59.7,0,89.6,0C409.8,241.4,414.2,241.4,418.5,241.4z"/>
		<path d="M418.6,651.8c25.2,0,50.4,0,75.5,0c7.3,0,9.7,2.4,9.7,9.7c0,10.5,0,21,0,31.5c0,6.3-2.9,9.1-9.2,9.1
			c-41.1,0-82.1,0-123.2,0c-9.8,0-19.5,0-29.3,0c-6,0-9-3-9-8.8c0-11,0-21.9,0-32.9c0-5.9,2.7-8.6,8.5-8.6
			C367.3,651.8,393,651.8,418.6,651.8z"/>
		<path d="M311.1,223.2c0.6-6.5,3.4-11.7,7.4-16.4c7.2-8.6,16.5-14.2,26.7-18.7c24.5-10.7,50.4-14.1,76.9-13.8
			c18.9,0.2,37.5,2.7,55.5,8.4c14.2,4.5,27.6,10.6,38.4,21.2c5.6,5.5,9.5,13.1,9.7,19.2C454.3,223.2,382.9,223.2,311.1,223.2z"/>
	</g>
</g>
</svg>
