<?xml version="1.0" encoding="utf-8"?>
<!-- Generator: Adobe Illustrator 19.2.0, SVG Export Plug-In . SVG Version: 6.00 Build 0)  -->
<!DOCTYPE svg PUBLIC "-//W3C//DTD SVG 1.1//EN" "http://www.w3.org/Graphics/SVG/1.1/DTD/svg11.dtd">
<svg version="1.1" id="Ebene_1" xmlns="http://www.w3.org/2000/svg" xmlns:xlink="http://www.w3.org/1999/xlink" x="0px" y="0px"
	 viewBox="0 0 1024 768" style="enable-background:new 0 0 1024 768;" xml:space="preserve">
<style type="text/css">
	.st0{stroke:#FFFFFF;}
</style>
<title>colosseum rome simplified</title>
<g>
	<title>Layer 1</title>
	<g id="svg_8">
		<path id="svg_9" class="st0" d="M234.1,313.8c0,0,97.4-26.1,255.8-25.4c158.3,0.7,258.1,33,258.1,33L771.8,522
			c0,0-127.7,14.7-286.7,14.7S196,522,196,522L234.1,313.8L234.1,313.8z"/>
	</g>
	<g id="svg_10">
		<path id="svg_11" class="st0" d="M510.3,473.9c0,0-2.3-17.1-24.9-17.5c-22.6-0.4-23.5,17.5-23.5,17.5v63.9l48.4-1.1V473.9z"/>
	</g>
	<g id="svg_12">
		<path id="svg_13" class="st0" d="M397.3,384.6c0,0,2-14.8,20.6-15.7c18.6-0.9,19.3,14.5,19.3,14.5l-0.2,55.1l-39.9,0.2
			L397.3,384.6z"/>
	</g>
	<g id="svg_18">
		<path id="svg_19" class="st0" d="M217.4,259.5c11.1-32.5,32.5-65,67-73.6c14.6,3.3,11.9,8.6,11.9,8.6l15.4,46.4l18.3,5.8l5.5,21.6
			l24.2,58.9l33.4,0l1.2,22.8l27.1,83.1l32.7,1.1v25l20.2,79.3c0,0-74-2.2-151-6.7c-77-4.5-127.9-9.5-127.9-9.5
			S214.7,267.6,217.4,259.5L217.4,259.5L217.4,259.5C217.4,259.5,217.4,259.5,217.4,259.5z"/>
	</g>
	<g id="svg_20">
		<path id="svg_21" class="st0" d="M285,196.2l-14.2,10.2l-1,49.6l15.2-5.9V196.2z"/>
	</g>
	<g id="svg_22">
		<path id="svg_23" class="st0" d="M265.6,209.7l-12.9,8.8l-0.9,42.8l13.8-5.1V209.7z"/>
	</g>
	<g id="svg_24">
		<path id="svg_25" class="st0" d="M246.4,223.5l-11.7,13.3l-0.8,32.9l12.5-4.4V223.5z"/>
	</g>
	<g id="svg_26">
		<path id="svg_27" class="st0" d="M229.9,244.2l-7.9,13.3l-0.9,18.5l9.5-3.1L229.9,244.2z"/>
	</g>
	<g id="svg_28">
		<path id="svg_29" class="st0" d="M453.2,433.6c0,0-2.4-3.5-6.6-3.4c-17,0.1-65,0.5-122,4c-71.2,4.4-125.1,10.7-125.1,10.7
			l-1.1,7.5c0,0,55.9-6.5,127.2-9.3c53.4-2.1,101-3.6,120.4-3.4c6.5,0.1,8,3.6,8,3.6L453.2,433.6z"/>
	</g>
	<g id="svg_30">
		<path id="svg_31" class="st0" d="M453.5,440.9c0,0-4.3-3.1-6.9-3.1c-14.7,0-60.2,1.2-128.9,5.2c-68.7,4-119.9,9.2-119.9,9.2
			l-1.1,7l122-8.6c0,0,109.4-4.3,127.8-4.3c4.6,0,7,3.8,7,3.8L453.5,440.9L453.5,440.9z"/>
	</g>
	<g id="svg_32">
		<path id="svg_33" class="st0" d="M394.2,342.1c0,0-8.3-3.5-13.9-2.8c-13,1.5-30.7,4.2-68.8,8c-54.4,5.4-105.7,18.2-105.7,18.2
			l-1.1,6.8c0,0,43.2-11.9,97.6-17.4c38.1-3.8,60.8-6.5,77.1-8c7-0.7,15.4,4.5,15.4,4.5L394.2,342.1z"/>
	</g>
	<g id="svg_34">
		<path id="svg_35" class="st0" d="M293.9,182c0,0-6.5-3.1-9.2-1.9c-10.8,4.8-29.1,16.8-42.4,29.9c-16.6,16.4-18.7,20.5-18.7,20.5
			l-3.6,12c0,0,14.5-21.3,31.5-34.5c12.8-9.9,35.2-22.5,35.2-22.5l8.9,1.9L293.9,182z"/>
	</g>
	<g id="svg_36">
		<path id="svg_37" class="st0" d="M295.7,187c0,0-7.7-3.4-10.2-1.8c-10,6.2-32.3,20-45.8,32.1c-13.5,12-18.9,23.6-18.9,23.6
			l-2,15.1c0,0,7-19.8,23.8-34.6c11.8-10.3,34.1-25.7,45.5-32.7c4.9,0.8,8.8,4.1,8.8,4.1L295.7,187z"/>
	</g>
	<g id="svg_38">
		<path id="svg_39" class="st0" d="M387.7,473.3c0,0,2-17.1,21.3-17.5c19.3-0.4,20.1,17.5,20.1,17.5v63.9l-41.4-1.1V473.3z"/>
	</g>
	<g id="svg_40">
		<path id="svg_41" class="st0" d="M332.2,474.7c0,0,1.8-16.7,19.4-17.1c17.6-0.4,18.4,17.1,18.4,17.1v60.8l-37.8-1.7V474.7z"/>
	</g>
	<g id="svg_42">
		<path id="svg_43" class="st0" d="M282.9,475.6c0,0,1.8-15.9,16.7-16c14.9-0.1,15.2,16.6,15.2,16.6l-1,56.5l-31.9-2.3L282.9,475.6z
			"/>
	</g>
	<g id="svg_44">
		<path id="svg_45" class="st0" d="M250,477.3c0,0,1.3-14.1,10.7-14.1c9.4,0,9.4,14.7,9.4,14.7l-1.4,51.6l-20.1-1.1L250,477.3z"/>
	</g>
	<g id="svg_46">
		<path id="svg_47" class="st0" d="M225.2,477.5c0,0,1.2-13.1,8.3-13.1c7.2,0,7,13.6,7,13.6l-1.6,48l-15.9-1.1L225.2,477.5z"/>
	</g>
	<g id="svg_48">
		<path id="svg_49" class="st0" d="M206.8,479.2c0,0,0.9-12.2,5.6-12.3c4.7-0.1,4.5,12.7,4.5,12.7l-1.4,44.5l-10.6-0.3L206.8,479.2z
			"/>
	</g>
	<g id="svg_50">
		<path id="svg_51" class="st0" d="M370.5,370.4c0,0-1.6-14.9-18.8-15.2c-17.2-0.3-18,15.2-18,15.2l-0.5,54.1l36.8-1.5L370.5,370.4z
			"/>
	</g>
	<g id="svg_52">
		<path id="svg_53" class="st0" d="M316.6,378.1c0,0-1.2-14.2-15.6-14.8c-14.5-0.6-15.4,14.2-15.4,14.2l-1.1,50.2l31.1-1
			L316.6,378.1z"/>
	</g>
	<g id="svg_54">
		<path id="svg_55" class="st0" d="M273.5,383.2c0,0-0.8-12.5-9.9-12.9c-9.1-0.3-9.6,12.7-9.6,12.7l-0.5,45.9l19.5-0.4L273.5,383.2z
			"/>
	</g>
	<g id="svg_56">
		<path id="svg_57" class="st0" d="M242.8,388.3c0,0-0.7-11.6-7.6-11.9c-7-0.3-7.3,11.9-7.3,11.9l-0.2,42.7l15.5-0.5L242.8,388.3z"
			/>
	</g>
	<g id="svg_58">
		<path id="svg_59" class="st0" d="M219.6,393c0,0-0.4-10.9-5-11.2c-4.6-0.3-4.8,11.1-4.8,11.1l-0.3,39.6l10.3,0L219.6,393z"/>
	</g>
	<g id="svg_60">
		<path id="svg_61" class="st0" d="M452.2,418.8c0,0-2.4-3.5-6.6-3.4c-17,0.1-65,0.5-122,4c-71.2,4.4-125.1,10.7-125.1,10.7
			l-1.1,7.5c0,0,55.9-8.3,127.2-11.1c53.4-2.1,101-1.8,120.4-1.6c6.5,0.1,8,3.6,8,3.6L452.2,418.8z"/>
	</g>
	<g id="svg_62">
		<path id="svg_63" class="st0" d="M453.5,425.1c0,0-4.3-3.1-6.9-3.1c-14.7,0-60.2,1.2-128.9,5.2c-68.7,4-119.9,9.2-119.9,9.2
			l-1.1,7l122-8.6c0,0,109.4-4.3,127.8-4.3c4.6,0,7,3.8,7,3.8L453.5,425.1L453.5,425.1z"/>
	</g>
	<g id="svg_64">
		<path id="svg_65" class="st0" d="M318.9,283.9c0,0-1.2-12.5-15.6-11c-14.5,1.5-15.4,14.8-15.4,14.8l-1.1,44.9l31.1-5.1
			L318.9,283.9z"/>
	</g>
	<g id="svg_66">
		<path id="svg_67" class="st0" d="M275.8,294.2c0,0-0.8-11.1-9.9-10.1c-9.1,0.9-9.6,12.7-9.6,12.7l-0.5,40.9l19.5-3L275.8,294.2z"
			/>
	</g>
	<g id="svg_68">
		<path id="svg_69" class="st0" d="M245,303c0,0-0.7-10.3-7.6-9.6c-7,0.7-7.3,11.6-7.3,11.6l-0.2,38.1l15.5-2.5L245,303z"/>
	</g>
	<g id="svg_70">
		<path id="svg_71" class="st0" d="M224,310.7c0,0-0.1-9.7-4.7-9.6c-4.6,0.1-5.1,10.2-5.1,10.2l-1.3,35.3l10.4-0.6L224,310.7z"/>
	</g>
	<g id="svg_72">
		<path id="svg_73" class="st0" d="M573.5,474.6c0,0-1.9-16.6-20.6-17c-18.7-0.4-19.4,17-19.4,17v62.1l40-1.1V474.6z"/>
	</g>
	<g id="svg_74">
		<path id="svg_75" class="st0" d="M630.9,475.9c0,0-1.7-16.2-18.8-16.6c-17.1-0.4-17.8,16.6-17.8,16.6v59l36.6-1.7V475.9z"/>
	</g>
	<g id="svg_76">
		<path id="svg_77" class="st0" d="M678.6,476.8c0,0-1.7-15.5-16.2-15.6c-14.4-0.1-14.7,16.1-14.7,16.1l0.9,54.8l30.9-2.2
			L678.6,476.8z"/>
	</g>
	<g id="svg_78">
		<path id="svg_79" class="st0" d="M711.7,478.4c0,0-1.3-13.6-10.4-13.7c-9.1,0-9.1,14.2-9.1,14.2l1.4,50.1l19.4-1.1L711.7,478.4z"
			/>
	</g>
	<g id="svg_80">
		<path id="svg_81" class="st0" d="M736.6,480c0,0-1.1-12.7-8.1-12.7c-6.9,0-6.8,13.2-6.8,13.2l1.6,46.6l15.4-1.1L736.6,480z"/>
	</g>
	<g id="svg_82">
		<path id="svg_83" class="st0" d="M754.4,481.6c0,0-0.8-11.9-5.4-12c-4.5-0.1-4.3,12.3-4.3,12.3l1.4,43.2l10.3-0.3L754.4,481.6z"/>
	</g>
	<g id="svg_84">
		<path id="svg_85" class="st0" d="M510,384.3c0,0-2.4-15.3-24.9-16.3c-22.5-1-23.4,14.8-23.4,14.8l0.2,56.8l48.2,0.4L510,384.3z"/>
	</g>
	<g id="svg_86">
		<path id="svg_87" class="st0" d="M573,386.8c0,0-2-14.8-20.6-15.7c-18.6-0.9-19.3,14.5-19.3,14.5l0.2,55.1l39.9,0.2L573,386.8z"/>
	</g>
	<g id="svg_88">
		<path id="svg_89" class="st0" d="M627.1,389.9c0,0-2.3-14.4-19.4-15.2c-17.1-0.8-17.1,14.1-17.1,14.1l2.1,52.2l36.5-0.4
			L627.1,389.9z"/>
	</g>
	<g id="svg_90">
		<path id="svg_91" class="st0" d="M674.7,393c0,0-2.3-13.4-16.7-13.9c-14.4-0.5-14.1,13.5-14.1,13.5l2.9,47.5l30.7,0.1L674.7,393z"
			/>
	</g>
	<g id="svg_92">
		<path id="svg_93" class="st0" d="M707.8,395.1c0,0-1.8-12.2-10.8-12.5c-9.1-0.3-8.5,12.4-8.5,12.4l3.1,44.8l19.3-0.4L707.8,395.1z
			"/>
	</g>
	<g id="svg_94">
		<path id="svg_95" class="st0" d="M731.7,398.5c0,0-1.6-11.3-8.5-11.6c-6.9-0.2-6.3,11.6-6.3,11.6l3.2,41.6l15.3-0.5L731.7,398.5z"
			/>
	</g>
	<g id="svg_96">
		<path id="svg_97" class="st0" d="M749.5,402.5c0,0-1.3-10.3-5.8-10.6c-4.5-0.2-3.9,10.6-3.9,10.6l2.9,37.6l10.3,0L749.5,402.5z"/>
	</g>
	<g id="svg_98">
		<path id="svg_99" class="st0" d="M402,314.9c0,0,1.8-12.1,19.2-12.8c17.4-0.7,18,11.8,18,11.8l-0.2,44.9l-37.2,0.2L402,314.9z"/>
	</g>
	<g id="svg_100">
		<path id="svg_101" class="st0" d="M507.4,313.9c0,0-2.1-12.4-22.1-13.2c-20-0.8-20.8,12.1-20.8,12.1l0.2,46.2l42.9,0.3
			L507.4,313.9z"/>
	</g>
	<g id="svg_102">
		<path id="svg_103" class="st0" d="M570.7,315.9c0,0-1.8-12.1-19.2-12.8c-17.4-0.7-18,11.8-18,11.8l0.2,44.9L571,360L570.7,315.9z"
			/>
	</g>
	<g id="svg_104">
		<path id="svg_105" class="st0" d="M622.4,320.6c0,0-2.2-11.8-18.1-12.4c-15.9-0.7-16,11.6-16,11.6l2,42.7l34,2L622.4,320.6z"/>
	</g>
	<g id="svg_106">
		<path id="svg_107" class="st0" d="M669.2,327.1c0,0-2.1-11.3-15.5-12.1c-13.4-0.8-13.2,10.9-13.2,10.9l2.7,38.5l28.6,2.1
			L669.2,327.1z"/>
	</g>
	<g id="svg_108">
		<path id="svg_109" class="st0" d="M701.3,333c0,0-1.7-9.9-10.1-10.4c-8.5-0.5-8,9.8-8,9.8l2.9,35.7l18,0.8L701.3,333z"/>
	</g>
	<g id="svg_110">
		<path id="svg_111" class="st0" d="M724.5,337.2c0,0-1.5-9.2-7.9-9.6c-6.5-0.4-5.9,9.2-5.9,9.2l3.3,32.6l14,1.2L724.5,337.2z"/>
	</g>
	<g id="svg_112">
		<path id="svg_113" class="st0" d="M742.6,341.4c0,0-1.2-8.6-5.4-9c-4.2-0.3-3.6,8.7-3.6,8.7l2.7,31l9.6,0.6L742.6,341.4z"/>
	</g>
	<g id="svg_122">
		<path id="svg_123" class="st0" d="M257,227.9l3.4-1.4v11.9l-3.4,1V227.9z"/>
	</g>
	<g id="svg_124">
		<path id="svg_125" class="st0" d="M225.3,254.4l1.5-0.9v8.1l-1.5,0.7V254.4z"/>
	</g>
	<g id="svg_126">
		<path id="svg_127" class="st0" d="M334.7,249.4c0,0-10.3-2.3-16.2-3c-11,2.2-12.9,3.6-43.9,12.7c-31,9.1-61.5,21.7-61.5,21.7
			l0,5.6c0,0,30.1-12.5,61.3-21.3c31.2-8.8,38.1-8.5,50.7-10c6.8-0.8,10.3,0.3,10.3,0.3L334.7,249.4z"/>
	</g>
	<g id="svg_128">
		<path id="svg_129" class="st0" d="M335.3,254.5c0,0-11.7-3.6-14.2-3.1c-8.8,1.8-13.1,2.9-44.4,11.7c-31.4,8.9-63.5,23.1-63.5,23.1
			l0.4,6.8c0,0,30.1-14.6,61.6-23.5c31.4-8.9,41.6-8.4,52.3-10.5c5.8-1.1,8.2,3,8.2,3L335.3,254.5z"/>
	</g>
	<g id="svg_130">
		<path id="svg_131" class="st0" d="M335.6,261.4c0,0-10.3-5.7-16.2-4.5c-11,2.2-10.9,2.7-41.9,11.8c-31,9.1-64.1,23.9-64.1,23.9
			l0.1,4.2c0,0,30.2-12.7,61.4-21.4c31.2-8.8,32.8-9.4,45.5-10.9c6.8-0.8,15.8,4.3,15.8,4.3L335.6,261.4L335.6,261.4z"/>
	</g>
	<g id="svg_134">
		<path id="svg_135" class="st0" d="M393.3,324.4c0,0-15.3-4.4-22.8-3.6c-14,1.6-26.5,3.5-61.9,7.1c-54.4,5.4-105.6,18.9-105.6,18.9
			l1.2,7.4c0,0,40.8-13.2,95.1-18.7c32.6-3.3,54-6.1,71.8-7.8c11.9-1.1,22.7,3.9,22.7,3.9L393.3,324.4z"/>
	</g>
	<g id="svg_136">
		<path id="svg_137" class="st0" d="M393.8,329.8c0,0-10.9-3.9-16.5-3.2c-13,1.5-29.1,3.8-67.2,7.6c-54.4,5.4-105.7,18.2-105.7,18.2
			l-1.1,6.8c0,0,43.2-11.9,97.6-17.4c38.1-3.8,61.4-6.5,77.7-8c7-0.7,15.4,4.5,15.4,4.5L393.8,329.8L393.8,329.8L393.8,329.8
			L393.8,329.8z"/>
	</g>
	<g id="svg_138">
		<path id="svg_139" class="st0" d="M393.7,337.2c0,0-11.9-4.4-19.4-3.6c-14,1.6-28.9,3.7-64.3,7.3c-54.4,5.4-105.6,18.9-105.6,18.9
			l1.3,7.4c0,0,40.8-13.2,95.1-18.7c32.6-3.3,54-6.1,71.8-7.8c11.9-1.1,21.5,2.3,21.5,2.3L393.7,337.2z"/>
	</g>
	<g id="svg_140">
		<path id="svg_141" class="st0" d="M334.2,245.4c0,0-15-5.3-17.4-4.8c-8.8,1.8-8.7,2.6-40.1,11.5c-31.4,8.9-63.5,23.9-63.5,23.9
			l0.2,4.5c0,0,2.8-0.8,4.9-1.6c8.6-3.3,31-12,56.2-19.2c31.4-8.9,41.9-7.8,52.6-9.8c5.8-1.1,7.8-0.3,7.8-0.3L334.2,245.4z"/>
	</g>
</g>
</svg>
