<?xml version="1.0" encoding="utf-8"?>
<!-- Generator: Adobe Illustrator 19.2.0, SVG Export Plug-In . SVG Version: 6.00 Build 0)  -->
<!DOCTYPE svg PUBLIC "-//W3C//DTD SVG 1.1//EN" "http://www.w3.org/Graphics/SVG/1.1/DTD/svg11.dtd">
<svg version="1.1" id="Ebene_1" xmlns="http://www.w3.org/2000/svg" xmlns:xlink="http://www.w3.org/1999/xlink" x="0px" y="0px"
	 viewBox="0 0 3000 3000" style="enable-background:new 0 0 3000 3000;" xml:space="preserve">
<g id="QJ8M3z.tif">
	
		<image style="overflow:visible;" width="960" height="1200" id="Layer_0_1_" xlink:href="17D0FE7368309F29.png"  transform="matrix(1.8718 0 0 1.8718 -3572.1421 -497.7501)">
	</image>
</g>
<rect x="-1728.4" y="300.4" width="13.2" height="136.1"/>
<path d="M-2321,334.8l-302.2,217.4v4.9l-27,20.3c-5.6-6.7-14-11-23.5-11c-10.2,0-19.2,5-24.7,12.6l-35-24.5l3.2-6.5l-175.1-120
	l-30.6-8.9l17.4,27.4l178,118.9l3.2-5.7l35.5,25.3c-1.5,3.6-2.4,7.6-2.4,11.9c0,16.9,13.7,30.5,30.5,30.5s30.5-13.7,30.5-30.5
	c0-5.9-1.7-11.4-4.6-16.1l27.8-20.5l5.1,1.8l303.6-216.6l15-17.8L-2321,334.8z"/>
<g id="Prsadl.tif">
	<g>
		<path d="M1631.2,816.9c1.5,23.5,0.4,47.1,2.1,70.7c2.1,30.1,8.2,58.1,24.2,84.6c8.1,13.5,17.1,29.1,13.4,47.4
			c-1.4,7,0.5,14.8,9.1,17.9c5.6,2,5.9,6.5,5.9,11.5c-0.1,9.4,0.2,18.9,0.3,28.3c0.1,8.6-1,17.2,9,22.1c4.3,2.1,3.4,7.5,3.5,11.8
			c1,21.9,2.1,43.7,2.8,65.6c0.2,6.3,0.6,12,7.2,15.2c6.3,3.1,5.5,9.1,5.6,14.6c0.5,36.5-0.5,73,1.8,109.5c0.4,6.9-0.2,13.7,5.8,19
			c2.8,2.4,2.5,6.2,2.7,9.7c5.3,86.5,10.4,173.1,15.8,259.6c5.9,93.4,12,186.7,18.2,280c4.9,74.1,10,148.1,14.8,222.2
			c1.3,20.1,0.8,20.1-19.1,20.2c-59.3,0-118.6-0.2-177.8,0.3c-12.1,0.1-16.2-3.1-16.1-15.8c0.5-122.4,0.2-244.8,0.4-367.3
			c0-11.5-2-21.8-7.5-32c-17.1-31.8-33.4-63.9-50.1-95.9c-1.4-2.6-3.1-5-6.2-9.9c-6.5,19.1-17.9,33.6-17.5,53.3
			c2.3,116.8,3.4,233.6,6.1,350.3c0.8,33.9,1.2,67.8,2.2,101.7c0.3,11-3.3,15.4-14.6,15.3c-61.4-0.3-122.8-0.2-184.3-0.1
			c-9,0-12.9-2.4-12.7-12.6c1-59.7,1.2-119.4,2-179.1c1.7-132.7,3-265.3,5.6-397.9c0.9-42.5,0.7-85,1.5-127.5
			c0.1-7.5,0.6-14.5,6.3-20.2c4.4-4.4,3.8-10.3,3.6-15.8c-0.7-33.9-1.5-67.8-2.2-101.7c-0.2-8.6-1.1-17.1,8.5-22.4
			c4.5-2.5,3.8-8.3,3.8-13c0.2-15,0.3-30.1,0.4-45.1c0.1-12.8,0.3-24.6,8.9-36.4c8.2-11.1,3.1-26.8,5.8-40.2
			c1.2-6,1.8-11.7,6.4-16.2c7.6-7.5,6.3-18,6.1-26.9c-0.5-16.6,9.8-28.9,15.7-42.4c7.9-18.1,17.2-33.9,18.9-55.5
			c2.1-27.7,3.3-55.4,5.1-83.1c0.2-3.3-0.1-8,4.5-7.8c4.1,0.2,4.5,4.7,4.6,8.1c0.1,17.6,1.1,35.3-0.1,52.8
			c-2.7,37.4,9.4,71,24.6,104.1c3.1,6.7,6.3,13.3,6.1,20.8c-0.4,12.5,2.7,23.7,10.2,33.8c5.3,7.2,3.3,15.8,3.2,23.8
			c-0.2,14.3-0.3,28.3,9.7,40.2c3.2,3.8,2.9,8.8,2.9,13.6c0,12.9,0.1,25.8,0,38.7c-0.1,12.9-0.9,25.6,6.2,37.5
			c2.2,3.7,1.7,9.2,1.7,13.8c0.2,29.2,0,58.4,0.2,87.6c0.1,13.5-1.9,27.2,5.9,40.1c2.5,4.2,1.3,10.9,1.2,16.4
			c-0.5,43.3-0.8,86.7-2.1,130c-0.4,12.1,1.7,16.9,15.2,14.6c24.5-4.1,49.2-7.2,74-9.4c12.5-1.1,15.6-6.3,14.8-18
			c-3.5-56.2-5.3-112.7-1.5-168.7c3.5-50.9-1.1-102.3,5.8-152.2c4.6-33.3,4.7-66.2,6.8-99.3c0.1-2.1,0-5,1.3-6.2
			c11.3-11,8-25.5,9.9-38.8c1.7-11.9-1.6-25.3,10.3-34.3c1.5-1.1,1.5-4.9,1.4-7.4c-1.8-28,12.9-50.8,23.5-74.9
			c5.4-12.4,6.9-25.2,7.4-39.5c0.6-19.4,0.9-39.2,2.1-58.7c0.7-11.5,0.1-23.1-1.7-34.6C1624.3,816.9,1627.8,816.9,1631.2,816.9z
			 M1555.6,1701.2c0-32,0.1-65.8,0-99.5c0-16.3-0.3-16.3-17.1-14.5c-6,0.6-12,0.8-17.9,1.2c-12.4,0.9-14.6,4.2-9.6,15.3
			C1526,1636.8,1541.2,1669.8,1555.6,1701.2z"/>
		<path d="M-924,3350.7c-3.2-18.9,6.5-22.4,19-21.9c13.1,0.5,16.1-8.9,19.6-18.4c2.1-5.7,2.2-13.1,12.1-11.6c5.5,0.9,4.4-4,3.7-7.3
			c-2.8-14.8,7.5-28.8,2.5-43.7c13.5-9.3,8-25.5,11.8-37.9c2.9-9.2,9-19.3,7.7-30.2c-1.1-9,5.9-15.6,9.2-22.2
			c4.6-9.5,7.7-19.7,12.6-29.1c2.3-4.4,4.9-8.3,10-9.1c6.1-1,5.8,5,8.3,8.1c10.5,12.4,15.9,28,24.2,41.7c5.1,8.4,11.9,21,10,33.7
			c-0.2,1.3-0.7,3.2-0.1,3.7c9.7,9.3,9,22,9.1,33.3c0.1,16.1,8.3,31.2,5.2,47.5c-0.9,4.7,0.8,6.9,5.3,6c7.8-1.6,8.1,3.8,9.3,9
			c2.9,13-0.7,29,17.3,35.3c3.8,1.3,2.2,10.4,7,13c9.9,5.4,20.2,2,29.8-1.1c7.8-2.5,10.6-8.8,9.7-17.3c-2.2-21.4,7-41.4,8.3-62
			c1.8-26.5,19.3-43.7,30.2-64.8c2.1-4,3.9-11.5,10.1-10.1c6,1.3,11,5.8,13.8,12.2c11.1,25,23.2,49.5,31.9,75.5
			c0.5,1.5,1.8,2.8,3,4.6c6.9-4.7,9.6-11.3,10.4-18.6c0.7-6,3.6-8.2,9.2-8.2c4.8-0.1,8.1,0.4,11.4,5.6c22,34.3,30.5,72.4,31.6,112.3
			c0.5,16.6,9.3,31.4,8.1,48c-0.2,3.2,1.8,4.5,4.9,4.4c4-0.2,7-1.9,6.8-6.1c-0.2-6.6,0.2-12.4,6.3-16.9c2.1-1.6,1.5-5.7-0.4-8.4
			c-7.6-10.9,1.6-12.8,8.4-13.8c10.4-1.6,21.1,0,30.7-6.8c3-2.2,10-1.5,13.7,0.5c10.9,5.9,22.4,4.7,33.8,5.4
			c5.4,0.3,10.4,2.9,8.5,8.5c-3,8.7,1,15.2,4.6,21.7c4.7,8.7,4.6,18.2,6.5,27.4c0.5,2.5,0.7,5.4,4.2,5.5c2.6,0.1,3.9-1.8,4.4-4
			c1.8-8,8-7.6,14.1-8c7.3-0.4,14.6-1,21.8-1.8c14.9-1.6,23,2.7,24.7,17.2c1.4,12.6,9.7,10.8,17.3,12c9.5,1.5,7.2-6.3,8.3-11
			c1.3-5.3,3.6-9.1,8.9-11.7c8.9-4.3,17.2-9.6,25.8-14.3c2.8-1.5,6.1-3.5,5.3-6.5c-4.2-15.2,7.6-21.1,16.4-28.4
			c9.1-7.6,12.9-16.2,11.2-28.2c-1.3-9.7-1.7-19.9-0.3-29.6c2.6-17.8-2.8-31.7-17.4-41.6c-10.3-7-12.2-19.3-19.5-28.2
			c-2.1-2.6-3.2-7.5-0.3-9.6c7.9-5.7,6.6-13.9,8-21.8c2.4-13.2,14.4-25.1,26.2-25.7c14.4-0.7,24.3,4.4,33.7,17.7
			c8.7,12.3,6.6,22.8,8.6,35c3.6,21.1-6.4,28.2-20.3,37.1c-7.5,4.8-11.9,12.4-11.2,22.9c1.1,17.1,0.8,34.3,0.4,51.5
			c-0.1,6.6,2,10.8,8.1,12.8c20.2,6.6,27,23,29.8,41.8c1.7,11.3,4.3,20,18.7,15.2c3.2-1.1,5,1.4,5,4.2c-0.2,9.4,5.9,9.8,12.8,9.9
			c16.7,0.4,33.6,0.2,50.1,2.1c16.6,1.9,25.3-7.5,31.1-19.8c8.7-18.3,23.9-24.8,42.2-26.2c9.3-0.7,18.9,0.6,28.3,1.5
			c9.4,0.9,15.8-1.2,20.1-11.2c5.4-12.6,14.1-15.4,21.5-5.6c16.2,21.4,37.8,14.9,57.7,13.7c11.7-0.7,15.2,4.1,13.1,12.2
			c-2.4,9.5,6.1,19.3-1.9,28.4c7.4-6,7.2-16.7,15.6-22c4.5-2.8,8.4-7.2,12.3-11c7.5-7.4,19.2-13.3,15.1-27.6
			c-1-3.4-0.4-7.9,3.4-10.5c4.2-2.8,6.1-4-0.3-7.6c-4.8-2.7-0.5-7.5,2.9-10.3c6.5-5.3,36.7-2.5,36.7,3.9c0.1,5.8,9.7,10.9,1.9,16.9
			c-0.9,0.7-1.4,2-2.1,3.1c11,5.9,0.4,12.1-0.4,18.5c21.6-2.4,39.8,8.6,59.4,12.6c7.9,1.6,14.4,7,19.4,14.1
			c2.9,4.1,6.7,8.8,11.2,10.3c17.4,5.9,22.3,20.6,25.6,35.8c1.7,8,4.7,14.1,9.8,20.2c13.4,15.7,12.8,23.2-2.7,36
			c-6.4,5.3-6.4,9.5-1.9,16.2c8.9,13.3,16.2,27.2,11.4,44.5c-2.4,8.5,1.7,13.7,11.3,14.2c20.6,1,41.1,2.6,61.7,3.7
			c22.6,1.2,38.2,22.6,32,44c-1.2,4.2-4.3,5.1-7.7,5.5c-4.3,0.4-8.6,0.3-12.9,0.3c-184.7,0-369.4,1-554.1-0.6
			c-105.2-0.9-210.4-1.1-315.6-2.1c-396.4-3.7-792.9-0.6-1189.3-1.6c-87.6-0.2-175.3,0.5-262.9-1c-94-1.5-188-5-282-7.7
			c-10.7-0.3-21.4-1.5-32.1-1.6c-7.4-0.1-9.8-3.1-9.3-10.2c1.2-15.8,1.3-31.8,3-47.5c2.3-20.3,4.3-40-8.5-58.1
			c-3.2-4.6-3.5-10.9-2.1-16.3c2.2-8.3-1.2-16-1.4-23.8c-0.4-18,4.9-35.3,17.5-48.6c4.6-4.9,7.3-8.9,7.1-15.3
			c-0.2-8.6-0.5-17.2-0.1-25.8c1.1-20,0.3-38.3-16.8-53.7c-9.5-8.6-14-22.8-9.1-37c2.7-7.7,6.5-14.3,14.9-4.4c2,2.4,4.7,3.7,8,3.6
			c2.3-0.1,4.5-0.8,5.4-2.9c1.2-2.8-1.5-3.5-3.3-4.5c-1.1-0.6-2.4-0.9-3.5-1.6c-6-4.1-15.8-5.9-11.9-16.6c2.6-7,17.4-10.6,25.2-5.9
			c4.2,2.5,8.4,4.1,12.9,5.5c9.7,2.9,13.8,9,9,18.5c-2.4,4.7-3.1,7.4,1.9,10.4c11,6.7,5.1,17,4.5,25.8c-0.7,8.5-7.8,7.7-14.1,9.6
			c-10.3,3-9.7,15-10.4,22.3c-2,20.4-1.2,41.2-0.7,61.8c0.2,8.6,11.4,14.2,22.2,10.4c18.2-6.5,34.1-3.3,50.3,6.3
			c10.1,5.9,16,12.3,13,24.7c-1.5,6.2-0.4,11.2,7.7,6.6c4.3-2.4,7.7-1.2,12,0.4c13,4.8,26.1,3,39-1.2c2.5-0.8,5.1-2.3,5.4-5.1
			c1.7-17.5,18.7-20.3,28.8-29.8c2.6-2.4,7.4-4.3,10.7-3.7c17.4,2.8,28-7.5,40.1-17.3c24.9-20.1,53.6-29.2,85.5-19.8
			c7.1,2.1,21.3,1.2,15,17.1c-1.2,3.1,3.1,3.4,5.5,3.4c9,0.2,18,0.1,27.1,0.2c6.3,0,9.4-3.1,9.5-9.5c0.2-12.1,7.9-16.1,18.6-16.7
			c11.3-0.7,21.9,1.2,32.8,4.4c14.2,4.1,29.7,1.8,44.2,6c5.7,1.7,11.7,2.5,17.5,4c8.7,2.3,13.9,6.1,12.3,17.1c-1,7,1,16,11.6,16.8
			c7,0.6,11.9-1.8,12.2-9.7c0.3-7.3-0.7-16.1,6.2-20.1c11.3-6.6,22-15.5,36.2-15.1c9.4,0.3,18.8,1,28.2,1.3
			c6.3,0.3,13.6,1.6,15.4,7.4c3.2,10.5,10,9.8,17.9,8.8c2.5-0.3,5.3-0.5,7.7,0c10.6,2.5,14.9,0.5,15-12.3c0-13.7,3.8-27.5,11-39.8
			c2-3.3,4.6-4.8,8.2-5.4c13.5-2.4,27.2-3.8,40.9-4.2c24.6-0.8,29,13.9,30.6,34.4c0.7,9.2,4.9,18.9-1.6,28.4c-2.6,3.8,2.3,6.2,6,5.3
			c9.7-2.4,14.5,1.8,18.7,10.3c4.4,8.8,26.1,12,36.3,6.4c1.8-1,4.2-4,5-3.6c14.4,7.7,20-5.6,26.9-12.4c10.1-10,21.8-11.6,34.2-9.7
			c8.6,1.3,14.3-0.5,17.9-8.1c3.5-7.1,7.4-9,13.7-2.8c3.4,3.4,8.4,3.2,12.3,2.1c14.6-4.1,30.5-1.6,44.6-9.6c7.8-4.4,18-4.4,26.3-0.3
			c12.1,6.1,25.2,4.8,37.7,7.3c9.2,1.8,17.8-8.7,27.8-1.6c1.7,1.2,3.4-3.4,3-5.8c-3.7-23.2,9.5-44.3,8.1-67.2
			c-1.3-20.7,3.3-40.7,9.6-60c5-15.3,12.9-29.6,19.8-44.2c2.6-5.4,6.5-10,7.7-16.2c0.8-4.2,3.5-6.9,8-7c3.7-0.1,6.6,1.5,8.2,5.1
			c9.6,21.7,19.1,43.4,28,65.3c8.9,21.8,4.7,43.8,9.7,65.2c1.6,6.7,3.2,8.8,9.6,7.4c2.9-0.6,5.9-0.5,8.6,1.5
			c5.9,4.4,6.3-0.2,6.7-4.3c1.7-18.8,3.2-37.6,5-56.4c0.9-9.6-3-16.3-10.8-21.7c-11.6-8.1-24.7-15.3-13.7-33.8
			c3.3-5.6-6.4-11.7-5.8-20.4c1.2-17.4,16.4-30.7,32.5-25.2c4.4,1.5,8.1,2,12.3,0c4.4-2.1,9-1.7,11.3,2.8
			c8.5,16.3,20.5,32.4,18.4,51.3c-1.3,11.4-14.2,18.9-24.2,24.8c-8.4,5-11,10.5-11.1,19.5c-0.2,19.3-1.3,38.6-1.9,57.9
			c-0.1,4.4-2,10.3,5,11.2c6.3,0.8,7.3-4.3,8.7-9c6.6-21.8,11.6-44.2,24.4-63.7c3.1-4.7,2.7-13.6,10.8-12
			c7.2,1.4,12.7,8.1,14.7,14.8c6.4,21.3,18.3,40.6,22.6,62.6C-928.2,3346.2-927.3,3346.8-924,3350.7z"/>
		<path d="M-2161.2,4418.2c0-25.8,0.6-51.6-0.3-77.3c-0.3-10.5,3.9-14,13.1-14.1c7.7-0.1,15-0.9,22.6-3.3
			c10.3-3.3,14.8-8.4,13.9-19.3c-0.7-8.9,0.5-18,0.4-27c-0.1-9.7,4.7-15.9,14-13.6c27,6.5,35.5-11.3,41.6-31.1
			c3.7-11.9,2.3-24.8,0.6-37.1c-1.1-7.7-9-6.7-14.7-7.7c-5.1-0.9-10.8-1-12.8-6.9c-2.2-6.6,4.1-8.7,7.7-11.9
			c9.8-8.4,16.3-19,22.6-30.1c5.2-9.3,14.3-15.7,19.7-25.1c3.5-6.2,6.7-12.1,5.7-19.2c-1.3-10,3-16.3,11.8-20.4
			c14.1-6.5,24.8-17.7,36.4-27.5c3.5-2.9,5.1-7.2,5.3-11.4c0.5-9.2,14.4-13.8,7.7-26.4c-1.5-2.8,9.1-11.3,13.2-17.8
			c9.5-14.8,18.8-29.8,27.5-45c5.4-9.4,12.4-13.9,23.1-11.4c6.6,1.5,6.6-1.4,9.1-7.3c7.4-17.5,13.5-37,33.1-46.1
			c19.6-9.2,20.7-11.4,19.9-33.5c-0.2-6.1-0.8-12.1,10.2-11.2c15.6,1.4,38-20.7,38.9-36.3c0.4-7.3,4.7-12.1,9.1-16.4
			c33.2-31.9,98.4-25.7,125.4,11.6c2.3,3.2,3.5,6.7,4.7,10.4c3.6,11.1,9.2,22.3,19.3,27.8c18.2,10,27.3,27,36,43.6
			c6.6,12.6,17,18.9,28.1,23.1c10.7,4.1,18.6,9.2,25.3,18.2c6.1,8.3,13.3,15.7,20.5,23c5.2,5.3,6.5,9.4,0.1,14.8
			c-7.9,6.6-7.2,15,2.5,17.8c27.3,7.9,43.2,29.5,61.3,48.4c5.5,5.7,8.1,12,6,20.9c-4.2,17.8,3.1,28.5,20.8,33.4
			c1.7,0.5,3.3,0.9,5,1.2c16.2,2.7,27.9,10.3,38.7,24c12.3,15.8,19.1,30.8,17.5,50.8c-1.4,17.9,0.7,36,1.3,54
			c0.5,14.4-6.8,28.6-4.4,43.7c0.9,5.9,0.1,12,3.7,17.4c2.2,3.4,3,7.7,1.3,11.1c-10.7,20.8-3.1,40.8,2.3,60.8
			c1.6,5.9,2.7,11.6,2.9,17.6c0.2,9.7-1.5,20.3,11.9,23.6c1.6,0.4,3.5,3.1,3.8,4.9c2.3,14.9,13.4,17,25.5,17.9
			c25.5,1.8,50.3,10.3,76.2,8.9c9.6-0.5,17,6.8,26.3,9.1c9.7,2.5,19.1,5.1,28.8,4c9.9-1.1,15.5,8,25.1,8.4c23.9,1,47.8,6.5,71.8,3.8
			c18.2-2.1,34.1,7.4,51.7,8.4c9.9,0.6,18.7-0.5,26.2-7.7c6.5-6.3,12-5.1,16.5,2.6c3.7,6.1,9.8,10.4,11.3,18.4
			c1.3,6.8,8.5,5.4,13.1,4.5c16.9-3.2,29.1,11.3,45.3,11.3c3.5,0,7.1,5.6,7.8,10.9c1.2,8.9,3.1,17.7,2.6,26.8
			c-0.2,4.2-0.3,8.3,2.5,12.3c8,11.8,6.9,14.2-6.5,18.4c-11.2,3.5-22.5,4.1-34.2,4.5c-86.4,3.1-172.1-8.8-258-14.2
			c-94.6-6-189.1-16.1-283.8-18.8c-86.6-2.4-173.3-7.9-260,0.6c-72.9,7.2-145.6,2.5-218.2-5.7c-45.7-5.2-91.8-0.9-137.7,0.1
			c-11.2,0.2-22.3,0.6-33.5,1.1c-8.7,0.3-12.2-3.5-12.1-12.4c0.3-27.1,0.1-54.1,0.1-81.2
			C-2161.1,4418.2-2161.1,4418.2-2161.2,4418.2z"/>
		<path d="M-990,5456.1c0.1,13.8,11.3,26,4,40.8c-3.1,6.3-0.8,15.2-0.7,22.9c0,2.6-1,6.9,3.8,6.5c3-0.2,6.2-2.1,6.7-5.3
			c5.4-37.9,24-74.3,13.6-114.1c-0.3-1.2-0.8-2.8-0.3-3.8c6.3-11.8,10.3-24.4,12.1-38.2c1.7,14.1,6,26.9,9.9,39.7
			c2.2,7.1-6.9,11.1-6.6,17.4c1,23.3-6.4,47.3,4.7,69.8c3.9,7.9-2.6,14.9-0.1,23.6c3.1,10.6,15.4,17.4,11.6,31.2
			c-0.9,3.3,7.4,10.8,13.9,10.9c7,0.1,8.8-6.1,9.8-12.7c3.4-21.6,0.5-43.7,5.2-65.2c0.6-2.7-0.8-6.1,4.3-8.6
			c1.4,11.2,3.4,21.8,4,32.5c0.6,9.8-0.6,19.7-0.5,29.6c0.2,17.4,1.7,18.3,17.1,9c23.9-14.5,45.6-32.1,66.7-50.2
			c1.5-1.3,3.5-3.3,3.6-5.1c1.7-30.1,10.6-59.9,4.9-90.3c-1.6-8.5,4.4-14.6,5-22.2c1-12.2,2.5-24.3,3.9-38.3
			c5.4,5.1,4.1,10.1,4.5,14.4c1.2,13.1-1.5,26.7,5.4,39.1c1.1,1.9,0.8,5.2-0.1,7.5c-10.1,27.3-3.5,54.7-2.6,84.8
			c13.7-9.9,25.8-16.4,34.8-27.8c13.1-16.5,31.4-27.2,47.8-39.9c21.6-16.7,42.8-34.4,53.7-60.8c2.8-6.9,7.5-12,14.1-14.1
			c17.2-5.5,24.8-20.2,27.4-34.8c2.7-15.4,9.8-29,12.5-44.2c3.4-19.2,15-33.5,32.5-42.4c6.9-3.5,11.8-8.7,15.7-14.8
			c15.7-24.2,31.3-48.4,30-79.1c0-0.8,0-1.8,0.4-2.5c13-21.5,7.3-48.1,18.9-70c1.8-3.3,1.3-6.5,0.6-10c-3.1-15.9-0.6-30.6,8.7-44.2
			c5.4-7.9,7.7-17.2,10.7-26.2c1.7-5.2,1.5-9.7-2.9-14c-11.1-10.7-13.5-25.6-5.1-36.5c24.4-31.7,17.6-68.7,21.2-103.9
			c0.9-8.5,0.2-17.2,0.7-25.8c0.3-4.3-1.1-11.5,5-11.4c6.4,0.1,6.1,7.3,6,12.3c-0.2,16.3-0.8,32.6-1.2,48.9
			c-0.5,23.2-0.5,46,14.9,66.1c9,11.8,11.7,27.4,3.6,40.2c-9.8,15.4-6,29.1,1.1,42.3c8.9,16.4,11,33.1,8.4,51
			c-0.2,1.3-0.8,2.9-0.3,3.8c9.6,17.6,4.4,37.9,10.5,55.9c3.8,11.2,1.2,22.2,1.5,33.1c0.6,27.9,14.3,49.1,31.8,68.4
			c11,12.2,20.2,26.2,34.8,35.3c6.8,4.2,10.4,12.4,11.3,21c1.9,17.4,8.5,33.8,11.1,51.2c2.3,15.5,10.5,28.8,24.6,37.7
			c13.3,8.4,22.9,20.6,30.9,33.9c10.2,16.8,23.7,30.4,38.1,43.4c2.4,2.2,5.3,5.5,8.9,3.9c3.7-1.6,2.9-5.9,2.9-9.2
			c0-6.8,1-13.8-2.9-20.1c-0.9-1.4-2-3.7-1.5-4.8c7.1-12.8,3.1-27.7,7.3-42.6c5.2,4.1,3.7,8.5,4.1,12.3c0.3,3-0.8,6.5,0.5,8.9
			c9.2,18.1,2.1,37.4,4.6,56c0.9,6.6,1.6,13.1,7.7,16.8c12.9,7.9,23.3,18.6,34.4,28.7c2.9,2.6,6.7,4.5,7,8.8
			c0.5,6.8,5.1,9.8,10.4,11.8c16.3,6.3,31.2,16,48.1,20.9c7.7,2.2,15.1,4.7,15.7,15.6c-1.9-15,1.4-28.6,4.2-42.4
			c10.3,15.4,8.6,33.2,11.4,50.5c8.7-10.7,19-20.1,14.5-35.7c-0.5-1.8,0-4.3,0.9-6.2c10.5-23.9,9.2-49.6,5.3-73.6
			c-3-18.7,6.1-34.9,1.2-53.5c7.4,1.9,5.5,6.6,6.8,9.7c9.7,23.7,0.8,48.6,4.8,72.7c2.5,15.3,4.1,30.8,13.2,43.9
			c3.9,5.6,1.5,11.5,3.4,19.8c2.7-15.3,5-28.1,7.2-40.8c3.6,12.5,11.1,23.6,10.7,36.7c-0.4,16-5.3,32.8,9.9,45.4
			c2.9,2.4,2.4,6.1,1.4,9.7c-2,7.3,4,8.2,8.5,10.4c5.6,2.7,5.9-1,8.8-4.6c13.1-16.8,15.9-36.4,19.8-56.4c5.5-28.3,4.2-55.7-0.5-83.9
			c-1.9-11.6,1.2-25.2,2.7-41.4c14.2,29.5,9.8,58.2,13.3,86.5c2.4-4.5-0.3-9.3,3.2-12.9c7.3,3.1,2.2,11.3,8,15.5
			c-5.4-20.2-1.7-40,1.9-62.2c12.9,34.2,4.7,69.6,17.9,103.4c3.2-26.3-8.5-51,4.1-76.2c1.8,12,7.1,22,6.9,34.2
			c-0.3,21,4.6,41.4,9,62c4.6,21.2,17.8,36.9,26.2,55.4c1.4,3,3.6,4.7,6.2,6.2c8.1,4.4,11.6,10.5,5.9,18.9
			c-3.9,5.9-0.1,8.8,3.6,11.7c7.9,6.3,17.3,9.4,27.2,11c5.6,0.9,7.1,4.3,9.8,9.4c5.6,10.5,2.4,21.2,4,31.5c0.6,4.1,0.4,7.1,4.6,9.1
			c2.5,1.2,3.7,4.6,2.5,6.7c-6.4,11.2-1,22.1-0.2,33.2c1.1,14.8-8.5,23.8-23.9,23.8c-136.2,0-272.3,0-408.5,0
			c-139.1,0-278.2,0-417.3,0c-138.7,0-277.5,0-416.2,0c-39.5,0-79,0-118.4-0.2c-5.2,0-13.1,2.5-14.8-4.1c-1.7-6.9,0.7-14.4,8.1-18.8
			c7.5-4.5,13.1-11.1,18.2-18.1c4.6-6.2,9.4-12.2,1.7-20.3c-6.1-6.4,4.7-11.4,3.4-19.5c-1.2-7.8-1.5-13.3-8.7-16.9
			c-2.7-1.3-6.8-4.8-3.5-6.1c9.8-4.1,9.8-12.5,12.5-20.4c1.6-4.5,8.2-3.6,12.5-5.4c11.9-5,25.8-7.6,30.2-22.7
			c0.5-1.6,1.8-3.8,1.2-4.9c-8.3-14.7,2.1-19.5,12.5-24.6c1.7-0.9,3.9-3,4-4.7c1.3-15.4,12.3-25.3,19.5-37.6
			c6.9-11.8,9.4-26.1,13.5-39.5c6.8-22.3,9.5-44.8,7.4-68.5c-1.1-13.1,8.4-26.2,8.6-39.8c4.4-1,5.2,1.4,5.2,3.3
			c-0.3,16.7,5.5,32.6,1.2,50.5c-5.2,21.6-6.9,45.2,3.3,66.9c2.8,6-2.3,10.8,0.1,17.3c4.7,12.9,7.8,26.2,16,37.6
			c0.5,0.7,0.6,1.6,1.1,2.3c2.4,3-5,8.8,1.6,9.4c5.9,0.6,11.7-2.9,14.5-8.9c10.6-22.4,17.1-46.3,15-70.8
			C-998,5480.5-990.4,5469.3-990,5456.1z"/>
		<path d="M-662.8,3898.2c13.1,12.5,16.5,11.4,29.5-9.4c6.4-0.6,6.7,16.3,17,5.9c1.5-1.5,3,2.2,3.1,4.3c0.3,4.1,1.8,7.4,5.8,10.6
			c4.8-3.5,9.7-9,9.2-13.9c-1.3-13.1,12.2-11,16.5-18.2c1.4-2.3,3.6,0.4,4.8,2.2c1.3,1.9,5,3.3,5.1,2.9c1.8-13.2,17.5-3.1,21.3-13
			c3.1-8.2,7.6,2.9,11.8-0.5c1.5-1.2,5.9,3.9,5.8,3.2c-1.2-16.1,21.4-3.3,19.8-19.4c2.9,2.3,4.4,3,5.4,4.3
			c11,13.7,11.3,13.8,21.2-0.7c2.5-3.7,3.5-9.4,7.9-1.5c1.3,2.3,2.2,0.8,3.6-0.5c5.5-5,12.1-3.5,15.4,3.7c3,6.5,5.7,8.2,10.2,1
			c3.4-5.3,8.3-9.7,11.3-15.2c1.8-3.3,1.9-8.2,6.7-7.6c4.8,0.6,4.3,6,5.4,9.4c2,6.6,4.4,12.8,10.1,18.8c4.7-9.9,2.3-19.7,2.3-29
			c0-9.1,2.3-16.2,8.4-23.3c17.8-20.7,23.7-46,25.6-72.6c0.5-6.5-1.9-15.8,9.6-16.3c10.1-0.4,15.9,3.8,17,14.5
			c2.3,22.6,9.3,44,18,64.9c4,9.7,15.3,15.4,14.9,27.7c-0.1,2.1,4.3,2.7,5.2,1c5.7-11.3,9.4-2.4,13,1.3c6.3,6.4,17.5,8.6,17,21.4
			c7.2-3.8,7.1-11.8,12.6-15.5c4.8,8.4,14.4,11.9,19,20.4c2.5,4.7,6.9,5.3,9.3-0.5c3.1-7.4,5.9-6.6,10.5-1
			c3.4,4.2,8.2,7.3,12.3,10.8c5-2.8,1.6-9.5,7.1-12.6c5.1,5.1,10.5,20.1,16.9,1.5c5.5,0.5,4.9,5.1,6.8,7.6c4.3,5.6,8.9,7.4,13.3,0.9
			c3.6-5.3,4.9-5.2,8.7,0.1c4.5,6.2,8.6,12.6,11.7,19.1c3.5,0.5,4.1-2,5.6-3.4c3.1-2.7,3.2-10.1,7.8-8.6c3.5,1.1,5.4,7.2,8.1,11
			c2.4,3.3,0.2,10.6,5.7,10c4.6-0.5,8.7-5.1,10.1-10.6c0.2-0.7,1-1.3,1.5-2c12,10.4,12.8,28.3,25.5,38.8c1.6-3.1,2.7-5.4,4-7.6
			c8.7-14.7,8.7-14.7,19.7-2.4c1.6,1.8,3.5,6.2,5.2,4.8c18.6-14.9,12.8,9.4,20.2,12.2c0.5,0.2,1.8-0.3,2-0.8
			c4.3-11.6,8.3-12.2,15.1-1c5,8.3,11.5,16.2,19.6,21.9c3.2,2.3,5.8,10.1,11.8,2.1c2.5-3.3,4.5,2.1,6.9,3.3
			c5.4,2.9,4.4,14.8,15.9,10.6c1.6-0.6,10.1,9,14.1,15.3c3.8,6,6.7,15.4,17.5,11.1c0.3-0.1,0.8,0.2,1.2,0.2
			c9.8,1.9,4,18.5,16.4,17.7c11.7-0.8,13.3,8.5,17.1,16c1.6,3.1,1.8,9.7,8.3,4c3.7-3.2,4.8,0.5,6.1,3.3c3.6,7.3,7.3,14.5,11.2,21.6
			c2.3,4.3,4.5,9.2,10.4,3.8c1.4-1.3,3.8-2.1,4.4-0.5c4.9,13.5,21.6,14.1,28,25.2c5.5,9.5,9.7,19.6,17.6,27.7
			c3.1,3.1,3.6,5.7,5.4-0.3c0.6-1.9,2.8-1.2,4.3-0.1c13.6,10.7,25.7,22.7,30.4,40c2.4,8.7,5.5,17.5,5.7,26.3
			c0.3,12.4,5.1,17,17.4,18.1c25.6,2.1,51.1,5.8,76.7,8.8c0.4,0.1,0.9,0,1.3,0.1c29.1,3.2,33.5,7.7,34.2,36.3
			c0.3,10.7-0.1,21.5,0.2,32.2c0.2,8.5-3.1,12.3-11.9,12.8c-60.4,3.3-120.8,7.2-181.2,10.4c-101.1,5.3-202.3,9.5-303.5,13.5
			c-79.5,3.1-158.7,0.7-238.1-2.7c-32.5-1.4-65.1-1-97.8,0.7c-35.9,1.9-72-1.9-108.1-2.4c-54-0.8-107.9-6.9-162.1-2.1
			c-31.7,2.8-63.4-2.1-95.2-3.1c-43.3-1.4-86.5-4.4-129.8-6.5c-37.7-1.9-75.4-3.6-113.2-5.1c-8.1-0.3-11.6-3.5-11.5-11.6
			c0.3-19.3,0.3-38.6,0.3-58c0-6.9,3-9.4,10-12.1c24.2-9.2,49.4-8,74.3-10.2c11.7-1,15.5-9.4,15.1-18.8c-0.7-18.1,6.3-33.5,13.7-49
			c4.7-9.8,19.7-16.7,30.1-14.8c14.2,2.5,16.1-10.9,17.9-18.1c2.6-10.9,11.8-17.8,13.8-28.5c0.7-3.9,6.3-2.5,9.5-3.6
			c9.6-3.3,21.4,1.8,29.4-8.2c2.5-3.2,4.5-5.9,5.2-9.7c1.5-9.1,6.4-16.8,11.2-24.4c2.1-3.2,4.3-7.8,8.4-2.4c2.7,3.5,4.5,2.2,7.3,0.4
			c8.3-5.5,19.8-6.1,23.9-18.2c2.5-7.5,8.2-13.9,12.2-20.9c2.2-3.9,4.3-3,7-0.6c4.5,4,9.6,2.1,12.8-0.9c4.7-4.4,7.5-8.3,13.7-1.5
			c2.9,3.2,4.9-2,5.4-4.6c1.8-8.7,7.4-15.3,12-22.5c6-9.5,11.4-14.3,20.6-3.2c5.3,6.4,5.7-0.2,6.7-3.5c2.9-9.4,6.9-13.8,15.1-4.1
			c4.2,5,7.6,4.1,10.3-2c3.6-8.3,8.8-15.7,14.4-22.8c2-2.5,4.2-5.3,7-1.5c10.6,14.7,15.7,4,21.5-4.4
			C-665.8,3903.1-666.2,3899.4-662.8,3898.2z"/>
		<path d="M2896.8,6783.5c10.4-15.9,35.6-22.1,27.8-49.4c6.7,2.6,5.5,6.1,5.6,8.6c0.8,12.7,4.5,21.7,18.2,27.5
			c13.7,5.7,21.3,19.3,25.6,33.9c1.1,3.7,1.7,7.6,3.3,11.1c1.9,4,5.9,6.8,10,7.4c4.5,0.6,4.2-4.5,5.4-7.4c0.8-1.9,1-4.5,3.5-4.9
			c3.5-0.5,3.8,2.9,4.7,5c3.7,8.5,3.2,17.7,3.2,26.7c0.1,7.9,0,15.8,0,24.8c5.3-2.8,4.2-5.7,4.4-8c1.6-15.4,2.7-16.3,17.2-12.1
			c8.9,2.6,13.3,0,13.3-9.5c-0.1-6.4-0.4-12.9-0.3-19.3c0.1-5.5-0.2-13.2,6.4-13.8c7.2-0.7,7.5,7.3,7.6,12.4
			c0.5,16.3,0.1,32.5,0.3,48.8c0,2.7-1.1,6,4.3,9.7c0-10.2-0.2-18.9,0.1-27.6c0.1-5.6,0.5-12.9,7.5-12.8c7.4,0.1,6.8,7.5,6.9,13.1
			c0.8,85,1.8,170.1,2.3,255.1c0.1,10.3,2.8,15.1,13.9,14.4c8.3-0.5,11.7-4,11.2-12c-0.9-15.1-0.5-30.3-1.4-45.4
			c-1-16.9,0.8-34.9,1-52.4c0.1-7.9,1.9-16.3-3.8-23.6c-1-1.3-0.8-4.4-0.1-6.1c10.7-24.7,8.9-51.6,4.6-76
			c-2.6-14.9,7.2-29.1-1.7-43.5c-2.1-3.4,3.4-13,7.4-18.2c4.9-6.5,10.3-12.4,11.4-21.4c5.9,18.5,21.6,30.4,21.2,53.2
			c-0.4,28.3-1.5,57.7,4.1,85.8c6.7,33.4,0.9,67.3,8.3,100.8c3,13.3-0.8,29.5-1.2,44.5c-0.3,12.2,4.4,16.4,16.8,16.2
			c42.9-0.6,85.9-0.2,128.9-0.3c17,0,22.6-5.6,22.7-22c0.2-29.6,0.3-59.3,0.4-88.9c0-6-0.2-11.3-5.2-16.4
			c-4.9-5.1-5.6-13.1,0.5-18.3c5-4.2,4.5-9,4-14c-2.5-26.1-1.5-52.4-2.2-78.5c-0.2-8.9,1.4-17.9-5.5-25.6c-2.8-3.1-3-9.1-0.1-12.2
			c7.9-8.3,6.1-18.3,6.2-28c0.2-29.2,0.2-58.4,0.3-87.6c0-6,0.3-11.9-5.2-16.5c-6.8-5.6-5.6-11.5-0.3-17.8
			c7.8-9.4,7.6-20.7-0.4-29.6c-3-3.4-7-7.1-2.9-10.8c10.9-10,11.7-26.7,24.6-35.5c8.3-5.7,1.4-16.5,5.9-24c4.5,0.2,4.2,3.9,4.4,6.5
			c0.5,8.3,4.4,14.4,10.5,19.8c9.3,8.3,12.6,21.4,22.7,29.3c2.3,1.8,1.3,5-0.4,8.1c-6.5,11.5-8,23.1,1.9,33.9c1.8,2,3.3,4.4,2.5,7
			c-9.8,30.1,1.3,60.3-0.2,90.4c-0.5,10.6,1.4,21.4,2,32.1c0.4,6.4-0.7,13,6.7,16.7c2.9,1.5,3.7,5.3,2.4,8
			c-9,19.5-2.9,39.8-3.4,59.7c-0.4,17.1,1.3,34.3,2.6,51.4c0.4,6-0.7,12.8,7.6,15.9c4.2,1.6,3.1,7.2,2.1,10.5
			c-5.1,16.5-2.8,33.3-2.2,49.9c0.9,25.3-0.9,51.6,5.7,75.5c8,29,7,58.3,11.8,87.2c2.8,16.8,1,17.9-15.5,17.9
			c-425.2,0-850.5,0-1275.7,0c-18.4,0-18.4-0.1-18.5-18.7c-0.1-20.2,0-40.4,0-60.6c0-6.3,0.6-11.9,7.7-14.6c6-2.3,5.7-8.3,6-13.2
			c2.3-33,7.4-66.2,5-98.8c-1.2-15.8,0.3-27.8,4.8-42.7c5.7-18.7,3.1-40,4.1-60.1c0.5-9.9,3.2-20.3,0.9-29.5
			c-3.9-16.2,0.5-30.2,3.3-45.8c5.7-31.9,6-64.8,8.3-97.3c0.5-6.6,2.2-13.6-4.7-18.9c-5.5-4.3-2.3-9.4,0.8-13.7
			c9-12.8,11.6-25.5,0.1-38.3c-2.2-2.5-3.2-5.6-0.2-7.9c12.1-9.1,14.1-26.4,28.6-33.7c7.2-3.6,2.6-14.8,10.3-20.9
			c3.3,23.3,18.3,40.2,27.9,59.7c1.2,2.5,2,5.1-0.2,7.1c-11.1,9.9-7.2,21.4-3.5,32.7c0.8,2.5,2,4.7,1.4,7.4
			c-9.8,41.9-2.3,84.5-4.8,126.7c-0.2,4,1.1,7.5,3.5,10.8c3,4.2,3.4,9.7,1.6,13.6c-11,24.7-3.9,50.7-6.2,76
			c-0.9,9.6,0.5,19.6-0.5,29.5c-0.6,6.2-1.9,12.6,5.7,16.8c4.1,2.3,3.9,8.3,0.6,11.4c-5.2,4.9-4.9,10.6-5,16.6
			c-0.7,32.6,1.2,65.3-1.6,97.9c-0.9,10.3,2.5,14.6,13.6,14.5c47.2-0.5,94.5-0.4,141.7,0c10.1,0.1,14.3-3.2,13.3-13.3
			c-1.3-12.9,3.6-26.6-4.7-38.8c-0.9-1.4-0.5-4.5,0.5-6.2c13.4-24.6,5.9-50.7,6-76.3c0-2.1-1.2-4.4-0.5-6.1
			c10.5-27.8,6.7-56.4,4.4-84.9c-0.3-4.2,0.3-7.3,2.7-10.7c3.1-4.4,4.9-10.5,2.4-14.7c-6.6-11.4,0.7-20,5.6-27.9
			c4.2-6.8,9.4-12.8,12.3-21.2c5.1,13.6,14.9,24.2,20.6,37.2c1.2,2.8,1.5,4.8-1,6.6c-3.3,2.5-3.5,6.1-2.6,9.4
			c7.2,25.5-1.4,51.2,1.6,76.8c1.1,9.5-3.2,19.9,4.9,28.2c0.7,0.7,0.8,2.7,0.3,3.7c-9.6,19.1-3.1,39.7-5.4,59.4
			c-0.1,0.4,0.2,1-0.1,1.3c-9.1,10.4,19.2,15.7,3.1,29.5c-7.9,6.8-1.6,22.2-2.8,33.6c-1.1,10.9,4.3,14,14.4,14.4
			c10.6,0.4,13-4.1,13-13.7c0.8-79,1.9-158,3-237c0.2-12.6,0.4-25.3,5.8-37.3c9.9,15.1,3.6,32.2,9.1,48c0-13.7,0-27.4,0-41
			c0-8.6-0.1-17.2,0.1-25.8c0.1-3.9,0.3-8,5.8-8.3c5.6-0.3,7.8,2.7,7.9,7.8c0.1,7.7,0,15.5,0.1,23.2c0.2,12.7,7.9,18.3,17.7,11.1
			c14.2-10.5,12.7-0.1,13.7,8.4c0.2,2,0.4,4,3.4,6.1c0-6.1,0-12.2,0-18.3c0-4.3-0.4-8.7,0.5-12.8c1.1-5.4,2.5-13,8.7-12.6
			c5.7,0.4,4.8,8,5.1,12.9c0.4,9.4,0.3,18.9,0.4,28.3c0.1,4.1,0.6,8.2,6,8c4.7-0.2,5-3.9,5.1-7.5c0.2-8.2,0.9-16.4-5.2-23.2
			c-2.9-3.3-4.2-7.7,0.9-9.4c8.8-2.8,10.1-9.5,10.9-17c1.8-17.5,12.8-29.7,25.4-39.9c9.2-7.4,18.4-13.7,19.2-28
			c2.3,22.6,23.2,28.4,36,42.1c-0.7-10-0.8-20-2.2-29.9c-5.7-41.1,11.4-73.5,41.1-98.9c21.6-18.5,40.4-40.6,66.3-54.1
			c8.5-4.4,14.8-12.9,19.9-21.5c2-3.4,4.3-7,3.3-10.8c-4.6-18.2,2.2-36.1,1.3-54.2c-0.2-3.7,0.6-9,5.1-9.2c5.5-0.2,6.2,5.4,6.3,9.5
			c0.5,16.5,3.1,33,1.4,49.6c-1.3,12.3,4.1,21,14,27.7c26.5,18.1,51.5,38.1,76.1,58.7c28.6,23.9,40.4,54.3,39.2,90.8
			c-0.5,14-0.1,28.1-0.1,42.2C2894.3,6783.1,2895.6,6783.3,2896.8,6783.5z"/>
		<path d="M-1906.9,4603.7c0.8,0.5,2.1,0.8,2.1,1.3c4.5,27.3,27.3,30.9,48.1,36.8c6.2,1.7,12.6,2.6,18.8,4.2
			c5.9,1.6,13.3,1.3,13.6,10.6c0.2,8.4,0.8,16.6-9.1,20.4c-2.8,1.1-5.3,2.7-8,4.2c-4.7,2.6-6.2,6.9-6.1,11.9
			c0.2,5.8,4.9,6.5,8.9,7.7c21.3,6.3,42.7,12.4,63.4,18.4c1.3,4.9-1.5,6.2-3.5,7.2c-18.3,8.7-25.7,25.7-33.2,42.7
			c-6,13.6-2.8,19.6,12.1,22.6c22.7,4.5,45.5,8.7,68.3,13c3.8,0.7,8.1,0.6,9.4,5.3c1.3,5-0.3,9.5-4.6,12.4
			c-16.6,11.4-31.7,25.2-51,32.2c-7.9,2.8-12.5,7.8-12.6,15.9c0,8.3,5.3,12.9,13.1,15.5c34.2,11.4,68.3,23,102.4,34.5
			c3.2,1.1,6.7,1.8,9.8,3.2c3.6,1.7,6.9,4.4,7.3,8.5c0.6,5.4-4.8,5.3-8.1,6.6c-29.4,11.4-51.5,33.7-76.6,51.6
			c-7.9,5.7-6.3,12.2,3,16.2c36.3,15.4,74.4,23.8,113.4,27.2c20.3,1.8,39.6,7.4,59,12.6c9.9,2.7,11.2,14.1,3.1,20.8
			c-17.1,14.2-37.3,22.7-57.9,29.9c-18.3,6.4-35.5,15.2-52.9,23.6c-8.1,3.9-12,9.3-10.5,18.2c1.3,8-1.4,13.1-9.5,15.5
			c-7.9,2.3-10.6,8-11.7,16.3c-3,21.4-2.2,42.9-1.2,64.3c0.6,12.1,8.7,23,7.6,36c-0.4,4.8,5.1,4.9,9,4.9c9.9,0.1,19.8,0.3,29.6,0
			c8.1-0.3,12.1,3,11.9,11.2c-0.1,2.1,0.1,4.3,0.1,6.4c0.9,31.3-4.3,25.4,28,28.4c12.4,1.2,24.9,0.8,37.3,0.3
			c8.5-0.3,11.5,3.3,11.7,11.2c0.2,9,0.9,18,1.5,27c0.6,9.8,5.3,15.1,15.7,13.5c11.7-1.7,17.4,3.1,17.9,15.2
			c0.5,11.1,2.5,22.2,3.4,33.3c0.7,8.4,2.6,17.5-8.9,21.1c-3.6,1.1-4,5.4-4.2,8.9c-0.8,10.7-1.5,21.4-2,32.1
			c-0.2,3.5,0.4,6.6,3.5,9.2c12.8,10.7,13.4,23.9,2.1,38c-4.5,5.6-2.8,12.5-2.4,18.7c0.6,9.8-2.4,13.5-12.9,13.5
			c-211.3-0.3-422.6-0.3-634,0c-10.7,0-14.2-3.6-14.4-14.1c-0.7-49.8,0.4-99.6-2.5-149.4c-0.5-9,0.2-16.7,12.5-15.9
			c6,0.4,8.3-3.8,8.7-9c0.7-8.1,1.6-16.3,1.5-24.4c-0.1-10.6,3.8-16.4,15.2-15.2c3,0.3,6,0,9,0c22.2,0.5,35.7-7.1,32.2-31.4
			c-1.1-7.9,2.6-11.2,9.9-13.6c31.9-10.6,31.8-10.9,31.8-44.5c0-12,0.7-24.1-0.2-36.1c-1.1-13.8-6.5-25.9-19.6-32.4
			c-9.5-4.7-10.5-14.2-13.8-22.3c-3.3-8-7.5-12.5-16.8-12.9c-14.1-0.7-28.1-3.3-42.3-4c-8.1-0.4-12.6-3.9-15.9-10.6
			c-1.6-3.1-3.9-6.2-2.4-9.6c1.9-4.4,6.1-2.1,9.1-1.5c4.8,1,8-0.9,11.4-4.1c31.1-29.6,62.4-59,93.3-88.7c8.8-8.5,4.8-20.1-7.4-22.7
			c-8-1.7-16-3-24-4.7c-10.9-2.3-14.4-11.3-6.2-18.1c23.4-19.4,39.1-45.4,59.3-67.5c6.2-6.8,13.4-8.2,21.5-9.9
			c4.3-0.9,12.1,0.3,11.4-7.4c-0.6-7.3-0.1-16.2-9.3-19.6c-7.3-2.6-14.7-4.6-22.2-6.7c-5.8-1.6-8.5-5-7.9-11.3
			c0.6-6.5,5.1-7.5,10-7.5c6.9,0,11-3.7,14.9-8.7c11.3-14.6,22.3-29.4,34.1-43.6c6-7.3,4.3-11.5-2.5-16.7c-13-10-13-15.3-0.2-26.1
			c13.6-11.5,26-23.6,31.3-41.4c2.3-7.8,6.5-15.1-0.6-22.7c-2.9-3.1-1.8-6.7,2-8.5c14.7-7,20.6-21.4,28.6-34
			c4.5-7.1,10.3-12,18.4-12.2c13.1-0.3,19-7.5,21.9-19.3C-1911.8,4611.6-1912,4606.2-1906.9,4603.7z"/>
		<path d="M610.3,5666.7c-11.4-6.2-19.2-13.7-20.2-27.5c-1.2-18.1,6.4-30.1,24.1-33.6c4.2-0.8,8.3-2.2,12.5-3.1
			c30.5-7,43.3-23.5,45.1-55.1c1.8-31.7,4.8-63.3,7.9-94.9c1.7-17.5,11.4-26.1,29.1-26.3c15.2-0.2,29.8-3.3,44.2-7.8
			c12.1-3.8,19.2-11.1,16.2-25c-2.5,0.6-2,3.2-2.8,4.8c-1.4,3.1-2.5,7.3-6.7,6.5c-4.9-0.9-4.9-5.3-4.1-9.3
			c2.4-12.4-0.6-23.4-6.1-34.7c-8.8-18,0.2-53.2,13.2-69c9-11,19.6-22.3,19.9-38.7c0.2-9.8,7.6-18.8,6-28.6
			c-1.7-10.5,5.8-17.5,6.3-27.7c7.2,2.9,6.9,8.6,6.7,13.2c-1,18.4,6.2,35.3,9.1,53c1.5,8.7,9.4,17,15.9,24.2
			c8.5,9.4,13.8,19.4,14.3,32.1c0.3,6.7,0.6,13.2,4.6,19.5c4.4,6.9-0.4,14.2-3.3,20.7c-4.8,10.8-8.8,21.5-6.5,33.5
			c0.7,3.7,2.6,8.4-2.2,10.1c-6,2-6.6-3.6-8-7.5c-0.4-1.1-1.2-2-2.2-3.4c-1.1,17.6,1,20.6,16.3,23.6c16.4,3.2,32.9,6,49,10.8
			c20.5,6.2,27.4,14.3,29.5,35.4c3.1,31.6,6.5,63.1,9.5,94.7c1.3,13.8-1.3,26.4-14,35.1c6.5,4.5,13.4,4.1,20.1,3.7
			c14.8-1,27.9,3.6,40.5,10.6c17.8,10,22.3,25,12.1,44.7c-3.8,7.3-7.7,12.9,4.2,15.6c3.4,0.8,5.6,4.3,5.1,8.1
			c-1.9,12.8,1.4,25.1,3.3,37.6c1.7,11,6,17.5,17.8,17.6c13,0.2,26.7-0.5,28.3,17.9c0,0.4,0.3,1,0.6,1.1
			c19.3,8.2,10.9,24.8,11.5,38.6c0.9,19.7,1,39.5,2.5,59.1c1,12.4-3.1,16.5-15.7,16.4c-63.6-0.5-127.1-0.3-190.7-0.1
			c-6.2,0-14.4-2.8-14.8,8.5c-0.1,3.2-4.6,3.3-7.6,3.3c-56.6-0.1-113.3-0.2-169.9-0.5c-1.9,0-5.5-1.2-5.5-2
			c-0.9-14.5-11.9-9.1-19-9.2c-42.1-0.4-84.2-0.6-126.2,0c-11.3,0.2-14.7-3.1-14.3-14.6c1-26.2,0.6-52.4,0.2-78.6
			c-0.1-8,2.3-11.5,10.5-12.4c9.3-1,19.4-0.3,25-11.7c2.3-4.6,10.4-2.2,15.8-2.4c6.9-0.3,13.7,0.5,16.9-8.2c1.6-4.6,7-4.3,11.2-4.8
			c17-2.2,27.1-17.5,22.7-34.3C594,5679.7,596.7,5672.7,610.3,5666.7z M729.9,5502c-6.4,20.2-8.2,40.5-10.4,60.8
			c-1.3,11.5-3.2,22.3-15.1,30c18.6-0.7,22.5-3.3,28.5-17.2c2.5-5.9,5.7-11.5,7.7-17.6C747.4,5537.5,742.2,5519,729.9,5502z"/>
		<path d="M-1205.8,4782.4c-9-16.3-20.2-29.7-21.4-48.6c-1.7-26.5,3.9-35.4,30-40.3c0.8-0.2,2,0,2.5-0.5c11.9-14,31.9-18.3,41.9-34
			c7.4-11.7,17.7-17.6,30.5-18.8c9.5-0.9,18.4-2.9,27.6-5.5c23.8-6.6,46.8-0.9,69.6,5.9c10,3,19.8,6.3,29.8,0.2
			c3.6-2.2,6.6-0.8,9.2,1.9c4.1,4.3,2.8,9.4-0.2,12.9c-5.6,6.6-3.4,9.7,2.2,15.5c19.4,20.4,26.8,46.4,29.9,73.6
			c1.6,14,1.1,28.3,6.5,41.8c2.8,7,0.5,12.2-7.1,13.4c-8.4,1.2-8.9,6.5-8.5,13c1.2,21.3,9.4,40.9,16,60.8c1.7,5.3,3.8,10.5,5.2,15.9
			c2.5,9.8-3.3,14.3-11.7,14c-11.8-0.3-12.2,5-10.3,14.4c4.7,22.5,14.2,43.1,24.5,63.4c6.1,12,4.6,17.4-8.6,16.7
			c-16-0.8-15.7,5.4-13.2,17.8c12,60.3-0.6,118.5-17,176.2c-1.6,5.5-6.2,11.2-0.2,16.6c5.4,4.8,11.1,2.3,16.8,0
			c14.8-5.9,30.2-6.8,45.4-2.3c28.6,8.4,55.2,21,79,39.1c6.9,5.2,12,8.1,21.2,1.6c15.5-10.9,36.1,0.6,36.4,18.6
			c0.2,8.8-3.3,12.3-12.2,12.2c-18.5-0.4-36.9-0.1-55.4-0.1c-156.3,0-312.6,0-468.8,0.1c-10.9,0-21.3-1.8-31.7-4.5
			c-11.6-3.1-16.9-11.5-18.3-22.4c-2.1-16.3,7.2-24.2,22.5-18.5c17.7,6.6,33.6,7.1,49.1-5.6c7.2-5.9,16.2-9.6,24.4-14.3
			c11.5-6.5,22.5-10.2,36.4-4.6c10.4,4.2,21.3-4.7,32.5-4.6c2.4,0,2.8-3.1,2.2-5.2c-9.9-34.4,7-65.9,11.4-98.7
			c7.3-55.1,6.4-108.7-22-158.8c-4.8-8.4-11.2-15-17-22.4c-5.2-6.6-12.1-12.9-9.9-22.6c3-13.5,9-15.8,24-11.1
			c6.7,2.1,13.1,11.1,19.2,6.8c4-2.8,2.6-12.8,4.1-19.4c2.4-10.4,5-20.9,8.1-31.1c1.8-6,0.5-9.1-5-12.5
			c-13.2-8.2-17.2-30.6-8.4-42.6c2.6-3.6,6.3-4.1,10.2-4.4c4.4-0.2,8.4-1.7,11.8-4.5c1.8-1.5,2.8-3.4,1.3-5.6c-1.4-2-3.7-3-5.5-1.3
			c-5.3,5.3-10.1,3-16.2,1C-1201,4768.4-1201.2,4777.9-1205.8,4782.4z"/>
	</g>
</g>
</svg>
