<?xml version="1.0" encoding="utf-8"?>
<!-- Generator: Adobe Illustrator 19.2.0, SVG Export Plug-In . SVG Version: 6.00 Build 0)  -->
<!DOCTYPE svg PUBLIC "-//W3C//DTD SVG 1.1//EN" "http://www.w3.org/Graphics/SVG/1.1/DTD/svg11.dtd">
<svg version="1.1" id="Ebene_1" xmlns="http://www.w3.org/2000/svg" xmlns:xlink="http://www.w3.org/1999/xlink" x="0px" y="0px"
	 viewBox="0 0 850.4 850.4" style="enable-background:new 0 0 850.4 850.4;" xml:space="preserve">
<g>
	<path d="M227.1,396.5c35.4,3.5,70.7,7.4,106.1,10.4c63.7,5.4,127.5,5.5,191.3-0.1c31.3-2.8,62.4-6.4,93.6-9.8
		c10.2-1.1,14.2,3.3,11,12.7c-2.8,8.4-6.2,16.7-10.6,24.4c-11.7,20.4-16.3,21.3-36.4,8.6c-10.6-6.7-21.2-6.7-30.4,1.6
		c-9.9,8.8-18.4,9.8-28.7,0.5c-10.9-9.8-23.2-9.2-34.1,0.4c-9.7,8.6-18.1,7.9-27.7-0.3c-11-9.5-23.2-9.5-34.2,0
		c-9.5,8.2-17.9,9-27.7,0.4c-10.9-9.6-23.1-10.1-34.1-0.5c-10.3,8.9-19,8.4-29-0.4c-10.5-9.2-22.3-8.9-32.7,0.3
		c-10.2,9-19.2,9-28.8-0.4c-3.4-3.3-8.1-6.9-12.6-5.5c-21.5,6.5-27.9-8.6-35-23.2C227.1,409.1,227.1,402.8,227.1,396.5z"/>
	<path d="M428.1,397.4c-16.7-0.3-33.4,0.4-50-3c-9.4-1.9-14-6.1-12-16.1c4.7-23.7,14.1-44.9,32.5-61.1c19.4-17.2,41.1-16.9,60.6,0.6
		c17.8,16.1,27,36.8,31.8,59.9c2,9.6-1.5,14.6-11.3,16.6C462.6,397.8,445.3,397.1,428.1,397.4z"/>
	<path d="M432.7,490c-47.4-1.6-91.5-2.2-134.8-11.3c-13.9-2.9-27.8-6.1-38.3-16.7c-2.6-2.6-8.4-5.2-4-10c3.6-3.9,7.7-0.6,11.3,1.6
		c1.3,0.8,2.5,1.9,3.7,2.9c12.1,11.1,24.5,10.8,36.6,0.3c9.1-7.9,17.4-7.9,26.4,0.2c12.2,10.9,24.6,10.2,36.4-0.9
		c7.1-6.7,13.8-7.4,22.4-1.4c19.6,13.8,22.5,13.8,41.5-0.1c8.6-6.3,15.3-4.9,22.3,1.7c12,11.2,24.4,11.2,36.6,0.7
		c9-7.8,17.2-8.4,26.4-0.2c12.1,11,24.4,10.2,36.6-0.4c4.3-3.8,9.3-8,15.5-5.4c6.7,2.8,15.1,6.6,15.6,13.8c0.6,7-8.5,8.6-14.2,10.1
		c-31.5,8.7-63.8,11.5-96.3,13.2C460.6,489.1,444.8,488,432.7,490z"/>
	<path d="M351.9,578.6c-0.8-37.2,35.2-66.6,69.3-56.7c5.4,1.6,9.8,1.4,15.1-0.1c33.8-9.7,71,21.1,68.7,56.7
		C454,550.5,403,550.6,351.9,578.6z"/>
</g>
</svg>
