<?xml version="1.0" encoding="utf-8"?>
<!-- Generator: Adobe Illustrator 19.2.0, SVG Export Plug-In . SVG Version: 6.00 Build 0)  -->
<!DOCTYPE svg PUBLIC "-//W3C//DTD SVG 1.1//EN" "http://www.w3.org/Graphics/SVG/1.1/DTD/svg11.dtd">
<svg version="1.1" id="Ebene_1" xmlns="http://www.w3.org/2000/svg" xmlns:xlink="http://www.w3.org/1999/xlink" x="0px" y="0px"
	 viewBox="0 0 850.4 850.4" style="enable-background:new 0 0 850.4 850.4;" xml:space="preserve">
<g>
	<path d="M251.8,394.5c18.7-46.6,50.6-80.1,97.4-99.1c7.3-3,13.7-3,21,0.3c74.7,33,149.4,65.8,224.2,98.4c7.7,3.4,11.8,7.9,11,16.6
		c-0.5,5.5-0.5,11,0,16.5c0.9,10.1-2.3,16.5-11.6,22.2c-20.4,12.3-20.2,29.2,0.4,41.3c8.9,5.2,11.9,11.3,11.3,21
		c-0.7,11.4-0.2,22.9-0.2,34.4c0.1,12.2-6.1,18.9-18.1,19.8c-46.1,3.8-92.2,7.4-138.4,11.1c-53.9,4.3-107.8,8.8-161.7,12.8
		c-12,0.9-24.8,4.7-35.5-5.1C251.8,521.3,251.8,457.9,251.8,394.5z M365.4,403.2c0,0,0,0.1,0,0.1c-22.5,0-45-0.3-67.5,0.1
		c-16,0.3-23.2,8.2-23.3,24c-0.1,41.3,0.2,82.7-0.2,124c-0.1,10,3.1,14.5,13.5,13.4c13.2-1.3,26.5-1.9,39.8-3
		c27.9-2.2,55.8-4.6,83.7-6.8c7.2-0.6,11.5-1.5,9.2-11.5c-4.8-21.1,8.6-39.1,29.2-41.7c19-2.4,36,12.5,36.6,33.9
		c0.3,11,4.8,13.4,14.3,12.6c21-1.9,42.1-3.3,63.1-5.5c6.2-0.6,15.8,3.5,17.2-6.4c1.3-9.4,3.9-19.8-5.4-28.2
		c-29-26.5-28.8-50.8-0.1-76.6c9.2-8.2,8.1-13.6-2.5-19.7c-16.9-9.8-35.2-8.8-53.6-8.9c-9.9-0.1-16,1-17,13.6
		c-1.1,14.8-15.3,24.2-30.8,23.5c-14.6-0.7-27.1-10.9-27.7-25.4c-0.5-10.7-5.5-11.7-13.9-11.6C408.5,403.4,386.9,403.2,365.4,403.2z
		 M488.7,377.2c0-0.9,0-1.7,0.1-2.6c-18-8-36.1-15.8-54-24c-6.3-2.9-11.5-3.1-18.1,0c-11.7,5.4-24.2,4.8-36.2,0.1
		c-6.8-2.7-11.7-7.3-10.1-15.8c2.6-13.5-4.3-19.7-17.4-14.5c-24.5,9.8-43.8,26.3-59.4,47.5c-5.6,7.6-1.9,9.3,5.6,9.2
		c24.8-0.1,49.5,0,74.3,0C411.9,377.2,450.3,377.2,488.7,377.2z"/>
	<path d="M340.8,420.5c19.3,0,34.9,14.2,34.7,31.6c-0.1,16.1-16.2,30.5-34.4,30.8c-17.6,0.4-34.1-14.3-34.5-30.5
		C306.1,435,321.8,420.4,340.8,420.5z"/>
	<path d="M409.2,493.2c-10.8,0.2-20.9-8.9-21.5-19.3c-0.6-10.8,9.7-21,21.1-21c10.8,0,20.5,9.4,20.6,19.9
		C429.6,483.4,420.1,492.9,409.2,493.2z"/>
	<path d="M554,505c-0.2,10.8-9.4,19.5-20.8,19.5c-12.1,0-21.4-9.2-20.9-20.7c0.5-10.8,10-19.1,21.4-18.8
		C545.1,485.3,554.1,494.2,554,505z"/>
	<path d="M336.3,532.3c-0.7,10.4-11.1,19.6-21.5,19.2c-11.9-0.5-20.9-10.3-20.1-21.7c0.8-10.9,10-18.5,21.9-18
		C327.8,512.4,337,522,336.3,532.3z"/>
</g>
</svg>
