<?xml version="1.0" encoding="utf-8"?>
<!-- Generator: Adobe Illustrator 19.2.0, SVG Export Plug-In . SVG Version: 6.00 Build 0)  -->
<!DOCTYPE svg PUBLIC "-//W3C//DTD SVG 1.1//EN" "http://www.w3.org/Graphics/SVG/1.1/DTD/svg11.dtd">
<svg version="1.1" id="Ebene_1" xmlns="http://www.w3.org/2000/svg" xmlns:xlink="http://www.w3.org/1999/xlink" x="0px" y="0px"
	 viewBox="0 0 3000 3000" style="enable-background:new 0 0 3000 3000;" xml:space="preserve">
<g id="QJ8M3z.tif">
	
		<image style="overflow:visible;" width="960" height="1200" id="Layer_0_1_" xlink:href="9B8D985231DB4DF6.png"  transform="matrix(1.8718 0 0 1.8718 -3572.1421 -497.7501)">
	</image>
</g>
<rect x="-1728.4" y="300.4" width="13.2" height="136.1"/>
<path d="M-2321,334.8l-302.2,217.4v4.9l-27,20.3c-5.6-6.7-14-11-23.5-11c-10.2,0-19.2,5-24.7,12.6l-35-24.5l3.2-6.5l-175.1-120
	l-30.6-8.9l17.4,27.4l178,118.9l3.2-5.7l35.5,25.3c-1.5,3.6-2.4,7.6-2.4,11.9c0,16.9,13.7,30.5,30.5,30.5s30.5-13.7,30.5-30.5
	c0-5.9-1.7-11.4-4.6-16.1l27.8-20.5l5.1,1.8l303.6-216.6l15-17.8L-2321,334.8z"/>
<g id="tLGMSe.tif">
	<g>
		<path d="M884.8,1613.2c0,65.7,0,131.5,0,197.2c0,17.2,0,17.3,17.8,17.3c131.8,0,263.7,0,395.5,0c17.3,0,17.4,0,17.4,17.4
			c0,130.7,0,261.4,0,392.1c0,16.6,0,16.6,16.1,16.6c131.5,0,262.9,0,394.4,0c16.1,0,16.1,0,16.1-16.6c0-130.7,0-261.4,0-392.1
			c0-17.3,0-17.4,17.4-17.4c132.2,0,264.4,0,396.6,0c16.6,0,16.6,0,16.6-16.1c0-133,0-265.9,0-398.9c0-16.1,0-16.1-16.6-16.1
			c-132.2,0-264.4,0-396.6,0c-17.3,0-17.4,0-17.4-17.4c0-130.7,0-261.4,0-392.1c0-16.6,0-16.6-16.1-16.6c-131.5,0-262.9,0-394.4,0
			c-16.1,0-16.1,0-16.1,16.6c0,130.7,0,261.4,0,392.1c0,17.3,0,17.4-17.4,17.4c-131.8,0-263.7,0-395.5,0c-17.7,0-17.8,0-17.8,17.3
			C884.8,1480.2,884.8,1546.7,884.8,1613.2z"/>
	</g>
</g>
</svg>
