<?xml version="1.0" encoding="utf-8"?>
<!-- Generator: Adobe Illustrator 19.2.0, SVG Export Plug-In . SVG Version: 6.00 Build 0)  -->
<!DOCTYPE svg PUBLIC "-//W3C//DTD SVG 1.1//EN" "http://www.w3.org/Graphics/SVG/1.1/DTD/svg11.dtd">
<svg version="1.1" id="Ebene_1" xmlns="http://www.w3.org/2000/svg" xmlns:xlink="http://www.w3.org/1999/xlink" x="0px" y="0px"
	 viewBox="0 0 3000 3000" style="enable-background:new 0 0 3000 3000;" xml:space="preserve">
<style type="text/css">
	.st0{fill:transparent; stroke:#fff;}
</style>
<g id="QJ8M3z.tif">
	
		<image style="overflow:visible;" width="960" height="1200" id="Layer_0_1_" xlink:href="F76E6B2FC0074149.png"  transform="matrix(1.8718 0 0 1.8718 -3572.1421 -497.7501)">
	</image>
</g>
<rect x="-1728.4" y="300.4" width="13.2" height="136.1"/>
<path d="M-2321,334.8l-302.2,217.4v4.9l-27,20.3c-5.6-6.7-14-11-23.5-11c-10.2,0-19.2,5-24.7,12.6l-35-24.5l3.2-6.5l-175.1-120
	l-30.6-8.9l17.4,27.4l178,118.9l3.2-5.7l35.5,25.3c-1.5,3.6-2.4,7.6-2.4,11.9c0,16.9,13.7,30.5,30.5,30.5s30.5-13.7,30.5-30.5
	c0-5.9-1.7-11.4-4.6-16.1l27.8-20.5l5.1,1.8l303.6-216.6l15-17.8L-2321,334.8z"/>
<g id="_x38_tkPim.tif">
	<g>
		<path class="st0" d="M1779.5,2138.2c-3.1-7.6-6.9-13.3-7.4-19.2c-1.1-11.5-0.9-23.2-0.1-34.8c0.5-8.7-2.5-13.8-10.9-15.8
			c-12-2.8-15.3-10.6-14.5-22.3c0.6-9.1-0.7-18.3-1.5-27.5c-0.2-2.7-0.6-6.8-2.4-7.8c-17.4-9.7-18.3-25.8-19.3-43.2
			c-2.4-40.9-6.5-81.7-9.4-122.6c-0.3-4.6,1.7-11.4,5.1-13.7c11.2-8,12.4-18.7,11.5-30.7c-1.8-24.5-4.1-49-4.8-73.5
			c-0.3-10.1,2.3-20.4,4.4-30.4c1.4-7,5.7-13.7,6.1-20.6c0.6-13.3-6.9-28,8.5-38.1c1-0.7,0.6-3.7,0.5-5.6
			c-1.6-37.5-2.2-75.2-5.2-112.6c-2.7-33.6-8-67-12.4-100.5c-1.6-12.1,3.4-18.3,15.1-19.9c13.5-1.8,22.1-9.4,24.9-22.7
			c6.4-30.1,12.2-60.4,19.2-90.3c1.1-4.6,6.8-11.1,10.8-11.5c14.4-1.3,24.6-8.2,32.1-19.7c11.7-17.7,22.7-35.8,34.3-53.6
			c5.1-7.8,5.1-14.5-0.3-22.4c-2.9-4.3-6.1-11.4-4.5-15.4c6-15.4,13.9-30.1,22.3-47.6c-34.4-17.3-68.4-34.3-98.9-49.6
			c-9,7-16.7,11.1-21.8,17.3c-8.8,10.8-15.9,22.8-23.3,33.8c-9.1-7.2-19-13.9-27.6-22c-7.4-7-16.1-14.5-19.5-23.6
			c-5.9-15.6-8.2-32.5-11.9-48.9c-6.7-29.3-15.7-57-48.8-67.2c-1.7-0.5-3.5-1.9-4.6-3.3c-16.7-20.8-19.3-47.3-28.5-71.2
			c-0.7-1.8,1.4-4.5,1.8-6.8c1-7.1,3-14.3,2.5-21.4c-1.1-16.3-14.8-32.2-0.8-48.9c0.9-1.1-1.2-4.4-1.5-6.7c-1.1-9.7-2-19.4-3-29.3
			c34.6-2.9,64.9-5.5,95.2-8.1c0-0.9,0-1.9,0.1-2.8c-30.8-3.4-61.7-6.9-91.9-10.3c-4.5-9.6-1.4-14.2,7.4-17
			c15.2-4.8,30.2-10,45-15.9c9.8-3.9,19-9.3,28.5-14c-0.5-1.2-1-2.4-1.5-3.5c-4.2,0.8-8.4,1.3-12.5,2.3c-22,5.1-44.1,9.8-66,15.6
			c-10.8,2.9-17.6-2.4-21-10.3c-1.5-3.4,3.2-10.7,6.7-14.9c14.2-17,29-33.4,43.6-50c-0.9-0.8-1.8-1.7-2.6-2.5
			c-19.5,15.4-39.1,30.7-58.4,46.4c-6.6,5.4-12.1,8.4-21.9,6.7c-18.6-3.3-20.1-15.9-21.4-30.3c-1.6-18.7-3.8-37.4-5.8-56.2
			c-1.4,0-2.7,0.1-4.1,0.1c-2.6,27.1-5.1,54.2-7.7,80.8c-15.3,4.2-29.1,10.6-42.4-2.7c-8.5-8.4-18.7-15.2-28.4-22.4
			c-9.7-7.2-19.7-14.1-29.5-21.1c0.8,6.6,3.2,11.2,6.6,15.1c11.8,13.4,23.4,27,36.2,39.5c7.9,7.7,8.5,13.6-0.4,19.7
			c-4.1,2.9-9.1,6.1-13.8,6.3c-19.2,0.7-38.4,0.3-53.5,0.3c-9.9-49.2-20.5-95.7-28.2-142.6c-3.8-23-3.9-46.9-2.5-70.2
			c1.8-29.2-1.1-56.4-17.7-81.2c-7-10.4,2-32.6,14.2-35.3c14.5-3.2,26.5-16.5,24.1-27.5c-2.2-9.9-8.9-19.6-0.1-29.7
			c0.9-1-0.4-4.8-1.6-6.6c-8.4-12.2-15.3-26.8-37.7-22.6c18.7-24,10.6-47.9,12.1-70.4c-12.9-5-23.8-9.7-35.5,0.6
			c-5.7,5-14.4,6.5-21.8,9.6c-3,2.6-1.6,11.4-5.3,15.1c-13.8,14.2-11.5,28.3-3.9,43.8c1.6,3.2,1.6,7.1,2.6,11.7
			c-12.3,0.9-23,1.8-35.2,2.7c-4,6.6-12.5,15.5-2.1,26.8c1.1,1.3-0.6,5.5-1.6,8.2c-7.2,20.9-5,20.9,11,35.8
			c9,8.3,12.6,23.3,16.6,35.9c2.5,8.1,1,17.4,1.6,26.1c0.2,3.8,1.4,7.5,1.7,11.3c1,10.2-0.5,21.3,3.1,30.4
			c5.3,13.1,14.6,24.7,5.6,39.6c-0.6,0.9,0,3.1,0.7,4.1c13.4,18.4,10,39.2,9.3,59.8c-1.5,42.1,1.6,83.7,13.5,124.6
			c7.1,24.3,9.5,47.8-8.1,72.4c-20.9,29.3-29.8,64.7-24.6,101.8c2,14.5,8.8,27,22.3,33.7c10.9,5.4,12.6,10.5,5.7,21.1
			c-5.4,8.3-8.5,17.7,5.6,24.6c15.1,7.4,19.1,23.8,14.7,39.9c-1.4,5.1-1.2,11.9,1.2,16.4c4.6,8.4,3.7,13.9-1.2,22.3
			c-3.9,6.6-4.7,18.5-1.3,25.1c6.5,12.6,17.1,23,25.8,34.5c1.6,2.2,2.1,5.3,2.9,8c6.5,20,1.8,37-8.7,55.5
			c-17.7,31-29.7,65-29.1,101.6c0.4,22.5,9.1,29.8,31,30.8c3.2,0.1,6.4,0.8,9.6,1.2c2.8,15.6-0.8,28.4-6.8,42.5
			c-12.4,29.3-31.7,59.2-9.1,92.5c1.2,1.8,1,4.6,1.2,7c3.5,30.4,6.4,60.9,10.5,91.3c4.2,30.8,7.7,60.8-3.9,91.3
			c-4,10.4,0.4,23.9,0.9,36c0.1,2.8,0.3,5.7-0.5,8.3c-10.3,36.4-15.6,73.4-12.6,111.2c1.1,13.4,3.8,26.7,4.2,40
			c0.4,13.1,1.9,27.5-2.8,39c-5,12.2-5.9,22.4-1.7,34.1c1.9,5.3,4.2,11.2,3.4,16.5c-4.2,29.8-17.4,55.5-37.2,78
			c-2.5,2.8-5.7,5.4-9.1,6.8c-10.8,4.2-21.8,7.7-33.1,11.6c0.5,5.3,1.5,9.6,1.2,13.9c-1.3,18,2,38.5-23.7,43.9
			c-2.3,0.5-5.1,9.4-4,13.4c4.3,15.6,10.1,30.8,14.3,43.3c-4.8,5.8-10.7,9.6-11.2,14c-2.3,21.3-3.3,42.7-4.6,62.8
			c-21.8,5.2-35-0.2-38.4-19c-10,4.1-18.6,7.6-28.3,11.6c-2.1,43.1-4.9,87.3,16.8,128.8c5.8,11.1,10,23,14.5,34.7
			c1,2.5,0.7,8.2-0.1,8.4c-10.2,3-3.6,9-2.8,13.8c2,12.6,5.9,25.3,5.7,37.9c-0.7,49.7-0.1,99.6-5.3,148.9c-2.4,22.7-5.3,44.3-1.1,67
			c2.4,12.9,0.4,26.5,0.4,40c208.4,0,415.6,0,620.9,0c4-14.6,9.3-27.8,11-41.4c1.7-13.2,3.8-29.1-2-39.6c-4.4-8-6.6-15.3-7-23.2
			c-1.8-44.4-3.1-88.8-4.4-133.3c-0.1-4.3,0.2-8.6,1-12.8c3.5-18.1,7.2-36.1,11.1-55.6c1.5-1,8.2-3,9.1-6.6
			c3.2-11.8,5.6-24.1,5.9-36.3c1-39.1,1.1-78.3,1.3-117.4c0.1-18.5-3.3-21.8-21.2-19.4c-4.8,0.6-9.1,5.4-13.6,8.3
			c-7.9-5.3-6.1-23.7-23.5-14.3C1779.4,2168.6,1772.6,2151.8,1779.5,2138.2z"/>
		<path d="M1779.5,2138.2c-6.9,13.6-0.1,30.4-2.9,47.6c17.4-9.4,15.6,9.1,23.5,14.3c4.5-2.9,8.8-7.7,13.6-8.3
			c17.9-2.4,21.2,0.9,21.2,19.4c-0.2,39.2-0.3,78.3-1.3,117.4c-0.3,12.2-2.7,24.5-5.9,36.3c-1,3.6-7.7,5.6-9.1,6.6
			c-3.9,19.5-7.6,37.5-11.1,55.6c-0.8,4.2-1.1,8.5-1,12.8c1.3,44.4,2.6,88.9,4.4,133.3c0.3,8,2.5,15.2,7,23.2
			c5.8,10.5,3.6,26.4,2,39.6c-1.7,13.6-7,26.8-11,41.4c-205.3,0-412.5,0-620.9,0c0-13.4,2-27.1-0.4-40c-4.3-22.7-1.3-44.3,1.1-67
			c5.1-49.3,4.6-99.2,5.3-148.9c0.2-12.6-3.7-25.2-5.7-37.9c-0.8-4.8-7.4-10.8,2.8-13.8c0.8-0.2,1.1-5.9,0.1-8.4
			c-4.5-11.7-8.7-23.6-14.5-34.7c-21.6-41.5-18.9-85.7-16.8-128.8c9.7-4,18.3-7.5,28.3-11.6c3.4,18.8,16.6,24.3,38.4,19
			c1.3-20.1,2.2-41.6,4.6-62.8c0.5-4.4,6.4-8.2,11.2-14c-4.3-12.5-10-27.7-14.3-43.3c-1.1-4,1.7-12.9,4-13.4
			c25.8-5.4,22.4-25.9,23.7-43.9c0.3-4.2-0.7-8.6-1.2-13.9c11.3-3.9,22.3-7.4,33.1-11.6c3.4-1.3,6.6-4,9.1-6.8
			c19.8-22.4,33-48.2,37.2-78c0.7-5.2-1.6-11.2-3.4-16.5c-4.1-11.8-3.2-21.9,1.7-34.1c4.7-11.5,3.2-25.9,2.8-39
			c-0.4-13.4-3.2-26.7-4.2-40c-3-37.9,2.3-74.8,12.6-111.2c0.7-2.6,0.6-5.5,0.5-8.3c-0.5-12.1-4.9-25.6-0.9-36
			c11.6-30.5,8.1-60.6,3.9-91.3c-4.1-30.3-7-60.9-10.5-91.3c-0.3-2.4,0-5.2-1.2-7c-22.5-33.3-3.3-63.1,9.1-92.5
			c5.9-14,9.6-26.8,6.8-42.5c-3.2-0.4-6.4-1-9.6-1.2c-21.9-1-30.6-8.3-31-30.8c-0.7-36.6,11.4-70.6,29.1-101.6
			c10.6-18.5,15.2-35.5,8.7-55.5c-0.9-2.7-1.3-5.8-2.9-8c-8.6-11.5-19.3-21.9-25.8-34.5c-3.4-6.6-2.6-18.5,1.3-25.1
			c4.9-8.4,5.8-13.9,1.2-22.3c-2.4-4.4-2.6-11.3-1.2-16.4c4.4-16.1,0.4-32.5-14.7-39.9c-14.1-6.9-11-16.3-5.6-24.6
			c6.9-10.6,5.2-15.8-5.7-21.1c-13.5-6.7-20.3-19.1-22.3-33.7c-5.2-37.1,3.6-72.6,24.6-101.8c17.7-24.7,15.2-48.1,8.1-72.4
			c-11.9-41-15-82.5-13.5-124.6c0.7-20.6,4.1-41.4-9.3-59.8c-0.8-1-1.3-3.2-0.7-4.1c9-14.9-0.3-26.5-5.6-39.6
			c-3.7-9-2.2-20.2-3.1-30.4c-0.4-3.8-1.5-7.5-1.7-11.3c-0.6-8.7,0.9-18-1.6-26.1c-3.9-12.6-7.6-27.6-16.6-35.9
			c-16-14.9-18.2-14.9-11-35.8c0.9-2.7,2.7-7,1.6-8.2c-10.3-11.4-1.9-20.2,2.1-26.8c12.2-0.9,23-1.8,35.2-2.7
			c-1-4.6-1.1-8.5-2.6-11.7c-7.6-15.5-9.9-29.6,3.9-43.8c3.7-3.8,2.3-12.5,5.3-15.1c7.4-3.1,16.1-4.6,21.8-9.6
			c11.7-10.3,22.6-5.5,35.5-0.6c-1.4,22.5,6.6,46.5-12.1,70.4c22.4-4.2,29.2,10.4,37.7,22.6c1.2,1.8,2.5,5.6,1.6,6.6
			c-8.7,10.1-2,19.7,0.1,29.7c2.4,11.1-9.6,24.3-24.1,27.5c-12.2,2.7-21.2,24.9-14.2,35.3c16.5,24.8,19.4,52,17.7,81.2
			c-1.4,23.3-1.3,47.3,2.5,70.2c7.7,46.9,18.3,93.4,28.2,142.6c15.1,0,34.3,0.4,53.5-0.3c4.7-0.2,9.7-3.5,13.8-6.3
			c8.9-6.1,8.3-12,0.4-19.7c-12.8-12.5-24.4-26.1-36.2-39.5c-3.4-3.8-5.8-8.5-6.6-15.1c9.8,7,19.8,13.9,29.5,21.1
			c9.7,7.2,19.9,14,28.4,22.4c13.4,13.3,27.1,6.9,42.4,2.7c2.5-26.7,5.1-53.7,7.7-80.8c1.4,0,2.7-0.1,4.1-0.1
			c2,18.7,4.2,37.4,5.8,56.2c1.2,14.4,2.8,26.9,21.4,30.3c9.8,1.8,15.3-1.3,21.9-6.7c19.3-15.7,38.9-30.9,58.4-46.4
			c0.9,0.8,1.8,1.7,2.6,2.5c-14.6,16.6-29.4,33-43.6,50c-3.5,4.2-8.2,11.5-6.7,14.9c3.5,7.9,10.2,13.2,21,10.3
			c21.8-5.8,43.9-10.5,66-15.6c4.1-0.9,8.3-1.5,12.5-2.3c0.5,1.2,1,2.4,1.5,3.5c-9.5,4.7-18.7,10.1-28.5,14
			c-14.8,5.9-29.9,11.1-45,15.9c-8.8,2.8-11.9,7.4-7.4,17c30.2,3.4,61.1,6.8,91.9,10.3c0,0.9,0,1.9-0.1,2.8
			c-30.3,2.6-60.6,5.1-95.2,8.1c1,9.9,1.9,19.6,3,29.3c0.3,2.3,2.4,5.6,1.5,6.7c-14,16.7-0.3,32.7,0.8,48.9c0.5,7-1.5,14.2-2.5,21.4
			c-0.3,2.3-2.4,5-1.8,6.8c9.2,23.9,11.8,50.4,28.5,71.2c1.2,1.4,2.9,2.8,4.6,3.3c33.1,10.3,42,37.9,48.8,67.2
			c3.8,16.4,6.1,33.3,11.9,48.9c3.4,9.1,12.1,16.6,19.5,23.6c8.6,8.1,18.5,14.9,27.6,22c7.5-11,14.6-23.1,23.3-33.8
			c5.1-6.3,12.8-10.4,21.8-17.3c30.5,15.3,64.5,32.4,98.9,49.6c-8.4,17.5-16.3,32.2-22.3,47.6c-1.6,4,1.6,11.1,4.5,15.4
			c5.4,7.9,5.4,14.6,0.3,22.4c-11.6,17.7-22.7,35.9-34.3,53.6c-7.5,11.4-17.7,18.3-32.1,19.7c-4,0.4-9.7,6.9-10.8,11.5
			c-7,30-12.7,60.2-19.2,90.3c-2.8,13.3-11.4,20.8-24.9,22.7c-11.8,1.6-16.7,7.8-15.1,19.9c4.4,33.5,9.7,66.9,12.4,100.5
			c3,37.4,3.6,75,5.2,112.6c0.1,1.9,0.5,4.9-0.5,5.6c-15.3,10.1-7.8,24.8-8.5,38.1c-0.3,6.9-4.6,13.6-6.1,20.6
			c-2.1,10-4.7,20.3-4.4,30.4c0.8,24.5,3,49,4.8,73.5c0.9,12-0.3,22.8-11.5,30.7c-3.4,2.4-5.4,9.2-5.1,13.7
			c2.8,40.9,7,81.7,9.4,122.6c1,17.4,1.9,33.5,19.3,43.2c1.7,1,2.1,5.1,2.4,7.8c0.8,9.1,2.1,18.4,1.5,27.5
			c-0.8,11.7,2.5,19.5,14.5,22.3c8.4,1.9,11.4,7.1,10.9,15.8c-0.7,11.6-0.9,23.3,0.1,34.8
			C1772.6,2124.9,1776.4,2130.6,1779.5,2138.2z M1406.8,768.5c1.6,17,2.3,33.2,5.1,49c1,6.1,6.8,11.3,10.3,16.9
			c2.1-0.1,4.3-0.2,6.4-0.3c3.2-10.4,8.6-20.8,9-31.3C1439.2,767.9,1438.6,767.8,1406.8,768.5z M1378.1,728.4
			c7.2,21.6,19.5,27.3,41.3,22.7c7.6-1.6,17.5-0.8,14.1-14.1C1415.5,734.2,1397.7,731.4,1378.1,728.4z M1582.5,928.8
			c-5.5-7.9-9.5-13.5-13.5-19.1c-1,0.8-2.1,1.6-3.1,2.4c0,5.6,0,11.1,0,17.6C1570.7,929.4,1574.8,929.2,1582.5,928.8z"/>
		<path class="st0" d="M1406.8,768.5c31.7-0.7,32.4-0.6,30.8,34.3c-0.5,10.6-5.9,20.9-9,31.3c-2.1,0.1-4.3,0.2-6.4,0.3
			c-3.6-5.6-9.3-10.9-10.3-16.9C1409.1,801.6,1408.4,785.4,1406.8,768.5z"/>
		<path class="st0" d="M1378.1,728.4c19.6,3.1,37.4,5.8,55.4,8.6c3.4,13.3-6.4,12.5-14.1,14.1C1397.6,755.7,1385.3,750,1378.1,728.4
			z"/>
		<path class="st0" d="M1582.5,928.8c-7.7,0.4-11.7,0.6-16.6,0.9c0-6.5,0-12.1,0-17.6c1-0.8,2.1-1.6,3.1-2.4
			C1573,915.3,1576.9,920.9,1582.5,928.8z"/>
	</g>
</g>
</svg>
