<?xml version="1.0" encoding="utf-8"?>
<!-- Generator: Adobe Illustrator 19.2.0, SVG Export Plug-In . SVG Version: 6.00 Build 0)  -->
<!DOCTYPE svg PUBLIC "-//W3C//DTD SVG 1.1//EN" "http://www.w3.org/Graphics/SVG/1.1/DTD/svg11.dtd">
<svg version="1.1" id="Ebene_1" xmlns="http://www.w3.org/2000/svg" xmlns:xlink="http://www.w3.org/1999/xlink" x="0px" y="0px"
	 viewBox="0 0 3000 3000" style="enable-background:new 0 0 3000 3000;" xml:space="preserve">
<style type="text/css">
	.st0{fill:#FFFFFF;}
</style>
<path class="st0" d="M1411.1,1479.2H826.9c-6.6,0-12-5.4-12-12V910.5c0-6.6,5.4-12,12-12h584.2c6.6,0,12,5.4,12,12v556.6
	C1423.1,1473.8,1417.7,1479.2,1411.1,1479.2z"/>
<path class="st0" d="M2154.4,1479.2h-584.2c-6.6,0-12-5.4-12-12V910.5c0-6.6,5.4-12,12-12h584.2c6.6,0,12,5.4,12,12v556.6
	C2166.4,1473.8,2161,1479.2,2154.4,1479.2z"/>
<path class="st0" d="M1411.1,2215H826.9c-6.6,0-12-5.4-12-12v-556.6c0-6.6,5.4-12,12-12h584.2c6.6,0,12,5.4,12,12V2203
	C1423.1,2209.6,1417.7,2215,1411.1,2215z"/>
<path class="st0" d="M2154.4,2215h-584.2c-6.6,0-12-5.4-12-12v-556.6c0-6.6,5.4-12,12-12h584.2c6.6,0,12,5.4,12,12V2203
	C2166.4,2209.6,2161,2215,2154.4,2215z"/>
</svg>
