<?xml version="1.0" encoding="utf-8"?>
<!-- Generator: Adobe Illustrator 19.2.0, SVG Export Plug-In . SVG Version: 6.00 Build 0)  -->
<!DOCTYPE svg PUBLIC "-//W3C//DTD SVG 1.1//EN" "http://www.w3.org/Graphics/SVG/1.1/DTD/svg11.dtd">
<svg version="1.1" id="Layer_1" xmlns="http://www.w3.org/2000/svg" xmlns:xlink="http://www.w3.org/1999/xlink" x="0px" y="0px"
	 viewBox="0 0 78 78" style="enable-background:new 0 0 78 78;" xml:space="preserve">
<style type="text/css">
	.st0{fill:#FFFFFF;}
</style>
<g>
	<path class="st0" d="M69,30.5c0-16.6-13.4-30-30-30c-16.6,0-30,13.4-30,30c0,7.1,2.5,13.6,6.6,18.7c0,0,0,0,0,0s0,0,0,0
		c7.7,9.7,18.7,23.3,22.3,27.8c0.3,0.4,0.7,0.6,1.2,0.6c0.5,0,0.9-0.2,1.2-0.6c3.6-4.5,14.5-18.1,22.3-27.8c0,0,0,0,0,0s0,0,0,0
		C66.5,44.1,69,37.5,69,30.5z M57.6,45.7L39,68.9l-18.4-23l-0.2-0.2c-0.1-0.1-0.1-0.1-0.2-0.2c-3.4-4.3-5.3-9.5-5.3-15
		c0-13.2,10.8-24,24-24s24,10.8,24,24c0,5.5-1.8,10.7-5.3,15C57.7,45.5,57.6,45.6,57.6,45.7z"/>
	<circle class="st0" cx="39" cy="30.5" r="10.5"/>
</g>
</svg>
